<?xml version="1.0" standalone="no"?>
<!DOCTYPE svg PUBLIC "-//W3C//DTD SVG 1.1//EN" "http://www.w3.org/Graphics/SVG/1.1/DTD/svg11.dtd" >
<svg xmlns="http://www.w3.org/2000/svg" xmlns:xlink="http://www.w3.org/1999/xlink" version="1.1">
<metadata>
Created by FontForge 20161003 at Sat Apr  8 08:34:44 2017
 By www-data
2005 Erik Spiekermann published by FSI Fonts und Software GmbH
</metadata>
<defs>
<font id="metaprobold" horiz-adv-x="1216" >
  <font-face 
    font-family="metaprobold"
    font-weight="700"
    font-stretch="normal"
    units-per-em="2048"
    panose-1="2 0 5 3 4 0 0 2 0 4"
    ascent="1544"
    descent="-504"
    x-height="1049"
    cap-height="1423"
    bbox="-379 -596 2427 2007"
    underline-thickness="40"
    underline-position="-330"
    unicode-range="U+000D-FB02"
  />
<missing-glyph horiz-adv-x="748" 
d="M68 0v1365h544v-1365h-544zM136 68h408v1229h-408v-1229z" />
    <glyph glyph-name="IJ" unicode="IJ" horiz-adv-x="1173" 
d="M143 0v1423h299v-1423h-299zM545 -188q55 34 101 81.5t65 90.5q17 38 22.5 91t5.5 171v1177h291v-1147q0 -129 -4 -180t-16 -98q-19 -82 -76 -152.5t-121 -112.5t-135 -69z" />
    <glyph glyph-name="ij" unicode="ij" horiz-adv-x="1099" 
d="M113 1337q0 70 50.5 120t121.5 50q69 0 117.5 -49.5t48.5 -120.5t-49.5 -120.5t-120.5 -49.5q-69 0 -118.5 50t-49.5 120zM143 0v1030l275 43v-1073h-275zM551 -299q64 52 100 119q33 59 33 200v986l272 65v-1042q0 -228 -77 -326q-75 -97 -213 -154zM653 1337
q0 71 50 121.5t120 50.5q69 0 119.5 -49.5t50.5 -118.5q0 -71 -50.5 -121.5t-121.5 -50.5q-70 0 -119 49.5t-49 118.5z" />
    <glyph glyph-name="uniFB01" unicode="fi" horiz-adv-x="1200" 
d="M59 856v193h101q0 22 -5 70.5t-5 72.5q0 155 88 240.5t249 85.5q65 0 128 -14.5t100 -35.5l-88 -170q-43 19 -92 19q-53 0 -84 -31.5t-31 -87.5v-149h627v-1049h-275v856h-350v-856h-268v856h-95zM741 1337q0 70 50.5 120t121.5 50q69 0 117.5 -49.5t48.5 -120.5
t-49.5 -120.5t-120.5 -49.5q-69 0 -118.5 50t-49.5 120z" />
    <glyph glyph-name="uniFB02" unicode="fl" horiz-adv-x="1208" 
d="M59 856v193h95q0 22 -5.5 70.5t-5.5 72.5q0 155 88.5 240.5t249.5 85.5q65 0 128 -14.5t100 -35.5l-88 -170q-43 19 -93 19q-53 0 -83.5 -31.5t-30.5 -87.5v-149h252l-70 -193h-174v-856h-268v856h-95zM752 1452l280 64q15 -85 15 -273v-817q0 -135 3 -173t15 -60
q16 -29 55 -29q21 0 31 4l47 -164q-76 -29 -164 -29q-87 0 -152.5 39t-90.5 105q-15 41 -20 83.5t-5 151.5v783q0 183 -14 315z" />
    <glyph glyph-name=".notdef" horiz-adv-x="748" 
d="M68 0v1365h544v-1365h-544zM136 68h408v1229h-408v-1229z" />
    <glyph glyph-name="glyph1" horiz-adv-x="0" 
 />
    <glyph glyph-name="glyph1" horiz-adv-x="0" 
 />
    <glyph glyph-name="glyph2" horiz-adv-x="682" 
 />
    <glyph glyph-name="uni000D" unicode="&#xd;" horiz-adv-x="460" 
 />
    <glyph glyph-name="space" unicode=" " horiz-adv-x="460" 
 />
    <glyph glyph-name="exclam" unicode="!" horiz-adv-x="624" 
d="M143 143q0 71 49.5 120.5t120.5 49.5q69 0 118.5 -50t49.5 -120t-50.5 -120t-121.5 -50q-69 0 -117.5 49.5t-48.5 120.5zM145 1407l328 47l-57 -1001h-209z" />
    <glyph glyph-name="quotedbl" unicode="&#x22;" horiz-adv-x="1019" 
d="M143 872v578h258v-578h-258zM618 872v578h259v-578h-259z" />
    <glyph glyph-name="numbersign" unicode="#" horiz-adv-x="1171" 
d="M72 412v184h196l35 258h-172v184h197l57 412h199l-58 -412h203l57 412h199l-57 -412h172v-184h-197l-35 -258h172v-184h-196l-58 -412h-198l57 412h-203l-57 -412h-199l58 412h-172zM467 596h203l35 258h-203z" />
    <glyph glyph-name="dollar" unicode="$" 
d="M72 98l106 224q110 -58 200.5 -86.5t190.5 -28.5q123 0 186.5 49.5t63.5 144.5q0 69 -45.5 114t-140.5 71l-158 43q-207 57 -280 180q-60 97 -60 217q0 176 117 294.5t311 141.5v148h176v-150q222 -22 381 -137l-135 -205q-180 109 -332 109q-88 0 -143 -46t-55 -118
q0 -56 34 -87t123 -56l172 -48q175 -47 268 -156t93 -267q0 -196 -135 -324.5t-363 -151.5v-166h-176v166q-213 19 -399 125z" />
    <glyph glyph-name="percent" unicode="%" horiz-adv-x="1740" 
d="M72 1087q0 160 95 258.5t251 98.5q165 0 262 -103q90 -90 90 -249q0 -170 -96 -263q-97 -94 -256 -94q-158 0 -252 95.5t-94 256.5zM295 1094q0 -114 22 -154q32 -51 103 -51q65 0 94 49t29 158q0 126 -41 164q-32 32 -86 32q-36 0 -63.5 -16t-39.5 -45q-18 -45 -18 -137
zM401 0l746 1423h194l-745 -1423h-195zM971 332q0 160 95 258t251 98q166 0 262 -102q90 -90 90 -250q0 -88 -22.5 -150.5t-73.5 -111.5q-97 -94 -256 -94q-158 0 -252 95.5t-94 256.5zM1194 338q0 -112 23 -154q32 -51 102 -51q65 0 94 49t29 158q0 126 -41 164
q-33 33 -86 33q-36 0 -63.5 -16.5t-39.5 -45.5q-18 -45 -18 -137z" />
    <glyph glyph-name="ampersand" unicode="&#x26;" horiz-adv-x="1464" 
d="M92 358q0 236 256 355q-102 78 -133 145q-33 72 -33 162q0 152 114.5 248t295.5 96q183 0 299.5 -90.5t116.5 -233.5q0 -116 -70 -196q-50 -55 -180 -127l-19 -10l238 -226q12 48 15 80.5t3 120.5v14h230v-12q0 -231 -66 -381l305 -303h-381l-86 86q-54 -47 -123 -74
q-103 -41 -268 -41q-246 0 -380 101t-134 286zM385 375q0 -97 60 -150t169 -53q148 0 215 70l-333 321q-111 -67 -111 -188zM463 1040q0 -44 20.5 -79t85.5 -101l17 -16q135 69 135 192q0 60 -36 99t-91 39q-59 0 -95 -37t-36 -97z" />
    <glyph glyph-name="quotesingle" unicode="'" horiz-adv-x="544" 
d="M143 872v578h258v-578h-258z" />
    <glyph glyph-name="parenleft" unicode="(" horiz-adv-x="659" 
d="M92 659q0 223 41 390q46 191 184 342q126 135 297 208l72 -161q-75 -54 -111 -90q-106 -106 -153 -248q-39 -110 -47 -269q-4 -59 -4 -167q0 -146 16 -316q22 -205 96 -336q38 -69 83.5 -112t123.5 -86l-72 -160q-149 51 -262 160.5t-176 263.5q-65 160 -82 422
q-6 88 -6 159z" />
    <glyph glyph-name="parenright" unicode=")" horiz-adv-x="655" 
d="M-31 -182q66 48 111 90q108 108 156 248q34 100 45 268q6 91 6 172q0 164 -17 311q-12 114 -33 190t-61 146t-85 113.5t-122 85.5l72 160q151 -53 264 -162t174 -264q63 -163 80 -422q4 -57 4 -154q0 -245 -39 -395q-49 -190 -186 -340q-125 -137 -299 -209z" />
    <glyph glyph-name="asterisk" unicode="*" horiz-adv-x="995" 
d="M61 1069l66 195l268 -97v283h209v-283l268 88l62 -194l-268 -86l170 -234l-170 -125l-172 236l-166 -225l-166 125l172 223z" />
    <glyph glyph-name="plus" unicode="+" horiz-adv-x="1306" 
d="M92 492v258h432v432h258v-432h432v-258h-432v-433h-258v433h-432z" />
    <glyph glyph-name="comma" unicode="," horiz-adv-x="602" 
d="M92 -182q67 15 107.5 47t40.5 69q0 20 -11.5 33.5t-42.5 32.5q-80 48 -80 143q0 73 52.5 124.5t126.5 51.5q89 0 146.5 -69t57.5 -176q0 -134 -79.5 -236.5t-208.5 -134.5z" />
    <glyph glyph-name="hyphen" unicode="-" horiz-adv-x="675" 
d="M92 442v238h492v-238h-492z" />
    <glyph glyph-name="period" unicode="." horiz-adv-x="585" 
d="M113 150q0 74 52.5 126t125.5 52q75 0 128.5 -52.5t53.5 -125.5q0 -75 -53 -129t-127 -54q-75 0 -127.5 54t-52.5 129z" />
    <glyph glyph-name="slash" unicode="/" horiz-adv-x="913" 
d="M92 -315l549 1880h180l-549 -1880h-180z" />
    <glyph glyph-name="zero" unicode="0" horiz-adv-x="1157" 
d="M92 520q0 247 135 398t353 151q223 0 354 -148t131 -397q0 -247 -135 -398t-352 -151q-223 0 -354.5 148.5t-131.5 396.5zM393 526q0 -105 13.5 -176t40.5 -108t58 -51.5t73 -14.5q100 0 143 88.5t43 253.5q0 105 -13.5 176t-40 108t-57.5 51.5t-73 14.5
q-187 0 -187 -342z" />
    <glyph glyph-name="one" unicode="1" horiz-adv-x="886" 
d="M61 782l396 287h184v-846h164v-223h-649v223h221v531q-125 -77 -246 -119z" />
    <glyph glyph-name="two" unicode="2" horiz-adv-x="1159" 
d="M92 879q114 101 238 151.5t278 50.5q182 0 291 -92.5t109 -243.5q0 -105 -50.5 -184t-142.5 -147q-33 -24 -82 -53.5t-111 -64.5t-87 -50q-4 -3 -13 -7t-21.5 -10.5t-19.5 -9.5q75 10 199 10h367l-60 -229h-854v250q12 6 76 35.5t135 70.5q202 114 278 192.5t76 153.5
q0 66 -44.5 102t-118.5 36q-65 0 -128.5 -30t-150.5 -101z" />
    <glyph glyph-name="three" unicode="3" horiz-adv-x="1122" 
d="M72 899q89 70 190 111q147 61 293 61q192 0 317 -101t125 -255q0 -85 -35 -155t-100 -109q-38 -23 -76 -37q115 -38 179.5 -121t64.5 -191q0 -140 -91.5 -249t-255.5 -169.5t-374 -60.5q-92 0 -170 10l-65 191q74 -14 155 -14q213 0 346.5 87.5t133.5 227.5
q0 52 -24.5 95t-66.5 61q-58 24 -190 24q-75 0 -104 -2v229q65 -8 141 -8q227 0 227 162q0 69 -44 111.5t-130 42.5q-165 0 -303 -115z" />
    <glyph glyph-name="four" unicode="4" horiz-adv-x="1112" 
d="M51 0v186l395 875h283l-295 -664q-59 -133 -92 -166q25 5 43 5h231l50 -3q-2 27 -2 37q0 79 14 219l22 240l215 49v-362q0 -84 -2 -121l-4 -62q41 3 66 3h86v-236h-92l-64 4q10 -27 10 -74v-288l-260 -33v346l4 51q-24 -6 -65 -6h-543z" />
    <glyph glyph-name="five" unicode="5" horiz-adv-x="1064" 
d="M92 -160q109 -28 193 -28q163 0 266.5 83.5t103.5 215.5q0 98 -61.5 157.5t-161.5 59.5q-114 0 -299 -58l66 779h698l-41 -234h-401l-29 -285q59 11 96 11q190 0 310 -111.5t120 -286.5q0 -227 -181 -373.5t-464 -146.5q-72 0 -155 15z" />
    <glyph glyph-name="six" unicode="6" horiz-adv-x="1198" 
d="M102 549q0 159 54 295q70 183 229 332q91 86 245 173t281 124l60 -197q-88 -29 -160 -63.5t-147 -89.5t-133.5 -136t-92.5 -184q82 67 219 67q186 0 312.5 -124.5t126.5 -307.5q0 -198 -138.5 -332.5t-341.5 -134.5q-225 0 -369.5 162.5t-144.5 415.5zM401 459
q0 -130 54 -203.5t149 -73.5q92 0 147.5 68.5t55.5 183.5q0 99 -50 157t-136 58q-96 0 -213 -67q-7 -44 -7 -123z" />
    <glyph glyph-name="seven" unicode="7" horiz-adv-x="1017" 
d="M51 801l62 248h854l-45 -240q-309 -463 -430 -858q-22 -78 -60 -285l-301 -76q38 158 68.5 257t79.5 235q76 212 180 412q89 175 190 315q-31 -8 -82 -8h-516z" />
    <glyph glyph-name="eight" unicode="8" horiz-adv-x="1239" 
d="M92 352q0 115 67.5 211.5t174.5 134.5q-34 10 -73.5 42t-67.5 71q-62 87 -62 197q0 169 136 273.5t356 104.5q207 0 339 -99.5t132 -256.5q0 -104 -72.5 -187.5t-192.5 -115.5q57 -17 119 -53t109 -78q90 -84 90 -221q0 -139 -92 -246.5t-242 -144.5q-103 -25 -215 -25
q-200 0 -324 76q-182 111 -182 317zM397 373q0 -97 63 -154t169 -57q92 0 150.5 49t58.5 127q0 95 -78 147q-80 53 -232 105q-131 -75 -131 -217zM414 1032q0 -50 29 -85.5t96 -69.5q51 -25 84 -39q33 16 56.5 31.5t51 40t42.5 57t15 71.5q0 71 -48 109.5t-138 38.5
q-85 0 -136.5 -42.5t-51.5 -111.5z" />
    <glyph glyph-name="nine" unicode="9" horiz-adv-x="1169" 
d="M92 604q0 207 140.5 343t355.5 136q229 0 359 -149t130 -410q0 -414 -336 -692q-95 -79 -211 -146.5t-223 -105.5l-149 168q166 43 330 176t210 262q-82 -39 -166 -39q-188 0 -314 131t-126 326zM389 612q0 -110 56.5 -176.5t150.5 -66.5q51 0 87.5 17t76.5 58
q20 70 20 154q0 129 -53 201.5t-145 72.5q-88 0 -140.5 -71t-52.5 -189z" />
    <glyph glyph-name="colon" unicode=":" horiz-adv-x="622" 
d="M133 139q0 75 52.5 129t125.5 54t124.5 -54t51.5 -129q0 -72 -52 -122t-126 -50q-72 0 -124 50t-52 122zM137 752q0 74 51 127t123 53q73 0 125.5 -52t52.5 -126q0 -73 -52 -124.5t-126 -51.5q-72 0 -123 51t-51 123z" />
    <glyph glyph-name="semicolon" unicode=";" horiz-adv-x="663" 
d="M133 -182q65 15 105.5 47t40.5 69q0 19 -10 32t-38 30q-86 52 -86 143q0 76 52 128t129 52q89 0 146.5 -70t57.5 -177q0 -131 -81.5 -234.5t-208.5 -134.5zM152 754q0 74 50 127t122 53q74 0 127 -52.5t53 -125.5q0 -72 -51 -124t-123 -52q-74 0 -126 51t-52 123z" />
    <glyph glyph-name="less" unicode="&#x3c;" horiz-adv-x="851" 
d="M51 612l494 637l215 -188l-344 -449l344 -452l-215 -185z" />
    <glyph glyph-name="equal" unicode="=" horiz-adv-x="1306" 
d="M92 295v258h1122v-258h-1122zM92 688v258h1122v-258h-1122z" />
    <glyph glyph-name="greater" unicode="&#x3e;" horiz-adv-x="851" 
d="M92 160l344 452l-344 449l215 188l494 -637l-494 -637z" />
    <glyph glyph-name="question" unicode="?" horiz-adv-x="991" 
d="M82 1288q23 24 55.5 47.5t81.5 49.5t117.5 42.5t142.5 16.5q163 0 276 -93t113 -249q0 -66 -17.5 -119.5t-50.5 -91t-57.5 -57t-62.5 -43.5q-154 -99 -158 -267q0 -25 4 -71h-235l-10 53q-9 43 -9 82q0 92 46.5 167t142.5 144q6 4 29 20t32 23t27 23.5t25.5 29t14.5 31.5
t7 39q0 71 -47.5 106t-120.5 35q-21 0 -41.5 -3t-36 -7t-33.5 -12t-28.5 -13.5t-26 -16t-21.5 -15t-19 -15.5t-15 -12zM268 143q0 71 50 120.5t120 49.5q69 0 118.5 -50t49.5 -120t-50.5 -120t-121.5 -50q-69 0 -117.5 49.5t-48.5 120.5z" />
    <glyph glyph-name="at" unicode="@" horiz-adv-x="1845" 
d="M92 412q0 178 64 339.5t175 280t269.5 188.5t339.5 70q170 0 319.5 -53t258.5 -146.5t172 -229.5t63 -296q0 -264 -136 -434t-329 -170q-73 0 -121 15t-71 45.5t-31 58t-12 70.5q-59 -70 -141 -117t-167 -47q-127 0 -197.5 78.5t-70.5 228.5q0 128 39.5 244t112 205.5
t184 142.5t246.5 53q134 0 291 -84q-16 -52 -30 -106t-28.5 -117.5t-23 -103t-25 -117.5t-22.5 -107q-17 -83 -17 -113q0 -41 20.5 -56t69.5 -15q94 0 155.5 125t61.5 321q0 243 -156.5 392t-414.5 149q-161 0 -300 -93t-221.5 -253t-82.5 -348q0 -138 44 -251t120.5 -187
t180 -114t222.5 -40q162 0 295 45l37 -174q-176 -58 -332 -58q-175 0 -324 53.5t-257 152t-169 246t-61 327.5zM702 285q0 -129 86 -129q71 0 148.5 71t101.5 185l76 350q-32 14 -74 14q-71 0 -129 -29.5t-96 -78t-64 -113t-37.5 -132t-11.5 -138.5z" />
    <glyph glyph-name="A" unicode="A" horiz-adv-x="1212" 
d="M-6 0l467 1427h309l449 -1427h-308l-100 338h-418l-100 -338h-299zM463 575h278q-46 150 -77 287l-58 252q-40 -168 -67 -274q-46 -175 -76 -265z" />
    <glyph glyph-name="B" unicode="B" horiz-adv-x="1249" 
d="M154 0v1423h481q131 0 208.5 -22.5t141.5 -79.5q117 -102 117 -254q0 -148 -96 -238q-31 -29 -57 -43.5t-75 -29.5q135 -39 209 -130.5t74 -228.5q0 -158 -97.5 -271t-275.5 -122q-90 -4 -182 -4h-448zM436 854h170q85 0 123 18q29 15 51.5 59t22.5 87q0 46 -22.5 87
t-59.5 56q-47 19 -119 19h-166v-326zM440 233h187q92 0 133 33q33 25 53.5 70.5t20.5 95.5q0 62 -29 111.5t-76 62.5q-42 12 -111 12h-178v-385z" />
    <glyph glyph-name="C" unicode="C" horiz-adv-x="1175" 
d="M92 682q0 263 96 442q83 155 228 242.5t317 87.5q105 0 203.5 -31t157.5 -82l-129 -194q-109 80 -228 80q-72 0 -137.5 -33t-103.5 -90q-80 -119 -80 -367q0 -147 13.5 -235t45.5 -146q87 -159 275 -159q129 0 243 92l131 -180q-85 -69 -179.5 -101.5t-215.5 -32.5
q-292 0 -465 197q-172 193 -172 510z" />
    <glyph glyph-name="D" unicode="D" horiz-adv-x="1286" 
d="M154 0v1423h286q134 0 248 -8q185 -15 311 -141q195 -192 195 -567q0 -302 -143 -494q-65 -89 -156 -143.5t-190 -61.5q-106 -8 -205 -8h-346zM444 233h154q140 0 207 110t67 337q0 282 -71 399q-36 60 -89.5 89.5t-136.5 29.5h-131v-965z" />
    <glyph glyph-name="E" unicode="E" horiz-adv-x="1034" 
d="M154 0v1423h811l-37 -233h-488v-330h408v-233h-404v-381h539v-246h-829z" />
    <glyph glyph-name="F" unicode="F" horiz-adv-x="915" 
d="M154 0v1423h772l-33 -231h-453v-326h363v-233h-363v-633h-286z" />
    <glyph glyph-name="G" unicode="G" horiz-adv-x="1335" 
d="M92 698q0 450 297 648q149 100 346 100q265 0 453 -164l-152 -178q-133 110 -297 110q-130 0 -204 -71q-68 -65 -94.5 -176t-26.5 -283q0 -299 106 -405q83 -80 223 -80q98 0 162 34v324h-217l-37 234h551v-680q-214 -127 -473 -127q-315 0 -485 217q-79 100 -115.5 219
t-36.5 278z" />
    <glyph glyph-name="H" unicode="H" horiz-adv-x="1292" 
d="M154 0v1423h284v-553h410v553h291v-1423h-291v635h-410v-635h-284z" />
    <glyph glyph-name="I" unicode="I" horiz-adv-x="606" 
d="M154 0v1423h299v-1423h-299z" />
    <glyph glyph-name="J" unicode="J" horiz-adv-x="608" 
d="M-31 -188q55 34 101 81.5t65 90.5q17 38 23 92t6 170v1177h291v-1147q0 -128 -4.5 -178.5t-16.5 -99.5q-19 -82 -76 -152.5t-121 -112.5t-135 -69z" />
    <glyph glyph-name="K" unicode="K" horiz-adv-x="1224" 
d="M154 0v1423h292v-649l406 649h352l-454 -659l505 -764h-376l-433 743v-743h-292z" />
    <glyph glyph-name="L" unicode="L" horiz-adv-x="976" 
d="M154 0v1423h292v-1185h510l-51 -238h-751z" />
    <glyph glyph-name="M" unicode="M" horiz-adv-x="1695" 
d="M113 0l133 1423h366l187 -712q32 -120 49 -226q18 112 51 232l193 706h364l127 -1423h-280l-54 760q-10 150 -10 237q-22 -112 -53 -219l-225 -778h-244l-203 748q-42 164 -57 251q0 -95 -11 -256l-49 -743h-284z" />
    <glyph glyph-name="N" unicode="N" horiz-adv-x="1296" 
d="M154 0v1423h317l272 -569q104 -219 156 -403q-18 201 -22 391l-7 581h273v-1423h-299l-244 545q-154 342 -192 467q9 -105 14 -404l8 -608h-276z" />
    <glyph glyph-name="O" unicode="O" horiz-adv-x="1413" 
d="M92 707q0 231 84.5 405.5t237.5 259.5q131 70 295 70q284 0 448 -194t164 -529q0 -243 -81 -417.5t-236 -258.5q-65 -35 -130.5 -50.5t-154.5 -15.5q-161 0 -271 47.5t-192 153.5q-164 209 -164 529zM412 707q0 -371 127 -461q67 -49 170 -49q149 0 215.5 121t66.5 393
q0 211 -37 329q-10 30 -28 59t-47.5 58t-74.5 46.5t-99 17.5q-72 0 -131.5 -34t-90.5 -91q-71 -133 -71 -389z" />
    <glyph glyph-name="P" unicode="P" horiz-adv-x="1179" 
d="M154 0v1423h374q170 0 250 -16t146 -53q99 -55 151.5 -150.5t52.5 -218.5q0 -141 -64 -250t-181 -164q-54 -25 -113.5 -36t-171.5 -11h-158v-524h-286zM440 758h150q87 0 124 14t66 59q35 55 35 148q0 100 -50.5 156.5t-141.5 56.5h-183v-434z" />
    <glyph glyph-name="Q" unicode="Q" horiz-adv-x="1413" 
d="M92 707q0 231 84.5 406.5t237.5 258.5q131 70 295 70q284 0 448 -194t164 -529q0 -227 -75 -396.5t-206 -256.5q18 -6 39 -17.5t53.5 -32.5t34.5 -22q99 -60 176 -60q27 0 59 3t50 5l18 3l-75 -187q-41 -24 -127 -24q-111 0 -262 100q-150 99 -289 143
q-160 0 -269.5 47.5t-191.5 153.5q-164 209 -164 529zM412 707q0 -371 127 -461q67 -49 170 -49q149 0 215.5 121t66.5 393q0 211 -37 329q-10 30 -28 59t-47.5 58t-74.5 46.5t-99 17.5q-72 0 -131.5 -34t-90.5 -91q-71 -133 -71 -389z" />
    <glyph glyph-name="R" unicode="R" 
d="M154 0v1423h530q189 0 303.5 -114.5t114.5 -302.5q0 -160 -93 -275.5t-225 -118.5q41 -32 60 -59q36 -45 121.5 -183.5t152.5 -253.5l68 -116h-338q-81 138 -133 233q-109 198 -154 265t-82 84q-22 9 -45 12v-594h-280zM434 809h96q92 0 139 10.5t76 36.5q56 53 56 143
q0 137 -103 175q-55 20 -161 20h-103v-385z" />
    <glyph glyph-name="S" unicode="S" 
d="M72 98l106 224q110 -58 200.5 -86.5t190.5 -28.5q123 0 186.5 49.5t63.5 144.5q0 69 -45.5 114t-140.5 71l-158 43q-207 57 -280 180q-60 97 -60 217q0 195 142 317.5t368 122.5q130 0 255.5 -37.5t219.5 -105.5l-135 -205q-180 109 -332 109q-88 0 -143 -46t-55 -118
q0 -56 34 -87t123 -56l172 -48q175 -47 268 -156t93 -267q0 -217 -161 -348.5t-427 -131.5q-122 0 -250 34t-235 95z" />
    <glyph glyph-name="T" unicode="T" horiz-adv-x="1026" 
d="M31 1186v237h1026l-47 -237h-340v-1186h-291v1186h-348z" />
    <glyph glyph-name="U" unicode="U" horiz-adv-x="1323" 
d="M150 432v991h292v-936q0 -122 25 -170q51 -98 195 -98q94 0 151 44t66 122q4 31 4 127v911h291v-958q0 -101 -4 -139t-19 -84q-12 -36 -34.5 -71.5t-63 -72t-93 -63.5t-128.5 -44.5t-164 -17.5q-163 0 -280 48.5t-177 142.5q-36 56 -48.5 111t-12.5 157z" />
    <glyph glyph-name="V" unicode="V" horiz-adv-x="1177" 
d="M-31 1423h314l235 -741q37 -116 66 -248q24 118 82 285l241 704h301l-495 -1433h-260z" />
    <glyph glyph-name="W" unicode="W" horiz-adv-x="1724" 
d="M10 1423h303l123 -561q25 -118 44 -235.5t26 -175.5l6 -58q25 232 74 455l127 575h313l131 -637q12 -59 27.5 -153t25.5 -159l9 -64q4 45 30 212.5t47 260.5l117 540h301l-344 -1435h-313l-127 579q-55 238 -68 406q-23 -190 -67 -402l-119 -583h-326z" />
    <glyph glyph-name="X" unicode="X" horiz-adv-x="1171" 
d="M-20 0l446 762l-385 661h350l193 -383l194 383h342l-370 -643l442 -780h-346l-256 502l-254 -502h-356z" />
    <glyph glyph-name="Y" unicode="Y" horiz-adv-x="1114" 
d="M-41 1423h344l182 -389q47 -99 72 -182q31 78 76 178l184 393h338l-455 -837v-586h-299v586z" />
    <glyph glyph-name="Z" unicode="Z" horiz-adv-x="1105" 
d="M72 0v201l524 866q17 29 39 61.5t35 49.5l14 18q-59 -10 -145 -10h-439l64 237h852v-206l-529 -891q-14 -23 -32 -48t-29 -39l-12 -14q84 8 141 8h479l-73 -233h-889z" />
    <glyph glyph-name="bracketleft" unicode="[" horiz-adv-x="634" 
d="M154 -319v1818h430v-184h-185v-1450h185v-184h-430z" />
    <glyph glyph-name="backslash" unicode="\" horiz-adv-x="907" 
d="M31 1487l233 72l613 -1596l-232 -72z" />
    <glyph glyph-name="bracketright" unicode="]" horiz-adv-x="634" 
d="M51 -135h185v1450h-185v184h430v-1818h-430v184z" />
    <glyph glyph-name="asciicircum" unicode="^" horiz-adv-x="1241" 
d="M102 702l369 748h299l369 -748h-291l-227 488l-230 -488h-289z" />
    <glyph glyph-name="underscore" unicode="_" horiz-adv-x="1044" 
d="M10 -154h1024v-102h-1024v102z" />
    <glyph glyph-name="grave" unicode="`" horiz-adv-x="686" 
d="M72 1346l118 213l424 -267l-84 -151z" />
    <glyph glyph-name="a" unicode="a" horiz-adv-x="1069" 
d="M82 289q0 183 126 271.5t378 88.5q38 0 61 -2v43q0 90 -25 123t-98 33q-126 0 -303 -119l-117 197q68 43 170 86q145 61 287 61q132 0 219.5 -47t118.5 -135q12 -36 16 -73q3 -30 3 -86v-30l-7 -352v-18q-1 -78 15 -120q18 -46 84 -95l-146 -168q-105 45 -147 127
q-37 -37 -64 -56q-79 -57 -211 -57q-174 0 -267 85.5t-93 242.5zM375 299q0 -61 34 -99t87 -38q78 0 143 71l4 226h-12q-145 0 -200.5 -33.5t-55.5 -126.5z" />
    <glyph glyph-name="b" unicode="b" horiz-adv-x="1150" 
d="M127 0q16 38 21.5 79t5.5 144v971q0 178 -19 258l281 66q10 -90 10 -187v-248q0 -68 -6 -92q78 84 223 84q192 0 304 -143t112 -389q0 -328 -195 -482q-102 -81 -229 -81q-148 0 -234 96q-10 -47 -28 -76h-246zM430 281q23 -21 40.5 -33.5t48 -23.5t65.5 -11q99 0 133 82
q18 42 24.5 92.5t6.5 149.5q0 119 -13 178q-15 66 -54 99.5t-95 33.5q-81 0 -156 -84v-483z" />
    <glyph glyph-name="c" unicode="c" horiz-adv-x="952" 
d="M92 516q0 173 58.5 295.5t156.5 189.5q53 35 123.5 56.5t136.5 21.5q117 0 203 -47q41 -21 102 -74l-133 -180q-88 82 -166 82q-93 0 -135.5 -84t-42.5 -268q0 -195 54 -264q47 -60 122 -60q90 0 189 86l16 15l125 -166q-48 -48 -96 -78q-114 -66 -256 -66
q-216 0 -336.5 143t-120.5 398z" />
    <glyph glyph-name="d" unicode="d" horiz-adv-x="1144" 
d="M92 506q0 246 124.5 399.5t324.5 153.5q111 0 186 -60q-8 46 -8 156v361l272 -43v-1090q0 -294 39 -383h-246q-10 21 -16 61q-101 -88 -242 -88q-199 0 -316.5 144t-117.5 389zM397 504q0 -169 42 -234t149 -65q36 0 74.5 20t60.5 47v500q-77 68 -150 68
q-92 0 -134 -80.5t-42 -255.5z" />
    <glyph glyph-name="e" unicode="e" horiz-adv-x="1056" 
d="M92 514q0 141 31 240.5t100 175.5q126 141 330 141q91 0 171.5 -29t131.5 -81q72 -73 105.5 -184t33.5 -275v-64h-606v-8q0 -122 57.5 -188t163.5 -66q141 0 267 105l106 -164q-180 -146 -395 -146q-226 0 -361 148t-135 395zM393 639h318v12q0 107 -33 158
q-40 61 -121 61q-78 0 -121 -59t-43 -168v-4z" />
    <glyph glyph-name="f" unicode="f" horiz-adv-x="643" 
d="M59 860v189h101q-10 72 -10 143q0 155 88 240.5t249 85.5q130 0 248 -66l-88 -170q-71 35 -112 35q-53 0 -84 -31.5t-31 -87.5v-149h266l-70 -189h-194v-860h-268v860h-95z" />
    <glyph glyph-name="g" unicode="g" horiz-adv-x="1153" 
d="M72 -102q0 58 24 106h254q-12 -30 -12 -67q0 -63 51 -96.5t146 -33.5q116 0 172 35q67 41 67 107q0 121 -192 125l-117 2q-178 3 -252 33q-80 29 -80 137q0 29 6.5 50.5t25 45.5t59 44t102.5 36q-226 58 -226 291q0 161 121 257.5t322 96.5q74 0 188 -27q90 -22 129 -22
q118 0 217 90l115 -174q-84 -78 -193 -78q-23 0 -71 6q61 -73 61 -172q0 -135 -110 -223t-277 -88q-21 0 -41 2q-57 -27 -82.5 -46t-25.5 -40q0 -25 45 -25l147 -2q121 -2 192 -22.5t126 -71.5q90 -84 90 -223q0 -127 -84 -217q-127 -135 -414 -135q-277 0 -397 112
q-86 80 -86 187zM377 711q0 -76 43 -113t119 -37q81 0 124.5 39t43.5 111q0 73 -44 114t-122 41t-121 -40.5t-43 -114.5z" />
    <glyph glyph-name="h" unicode="h" horiz-adv-x="1177" 
d="M133 1452l281 66q18 -86 18 -256v-209q0 -19 -2 -52t-2 -36q54 51 135.5 81.5t161.5 30.5q100 0 173.5 -40t98.5 -109q16 -46 21.5 -84.5t5.5 -110.5v-733h-268v705q0 78 -24.5 110.5t-82.5 32.5q-50 0 -110 -27t-107 -69v-752h-278v1212q0 165 -21 240z" />
    <glyph glyph-name="i" unicode="i" horiz-adv-x="581" 
d="M123 1337q0 70 50.5 120t121.5 50q69 0 117.5 -49.5t48.5 -120.5t-49.5 -120.5t-120.5 -49.5q-69 0 -118.5 50t-49.5 120zM154 0v1030l274 43v-1073h-274z" />
    <glyph glyph-name="j" unicode="j" horiz-adv-x="579" 
d="M20 -299q65 53 101 119q33 59 33 200v986l272 65v-1042q0 -227 -78 -326q-75 -97 -213 -154zM123 1337q0 71 50 121.5t120 50.5q69 0 119.5 -49.5t50.5 -118.5q0 -71 -50.5 -121.5t-121.5 -50.5q-70 0 -119 49.5t-49 118.5z" />
    <glyph glyph-name="k" unicode="k" horiz-adv-x="1079" 
d="M135 1454l277 68q16 -104 16 -340v-1182h-274v1182q0 143 -19 272zM434 594l268 455h330l-334 -439l412 -610h-324z" />
    <glyph glyph-name="l" unicode="l" horiz-adv-x="595" 
d="M139 1452l281 64q14 -80 14 -273v-817q0 -132 3.5 -171.5t15.5 -61.5q16 -29 55 -29q17 0 31 4l47 -164q-76 -29 -164 -29t-153.5 39t-90.5 105q-15 40 -19.5 82t-4.5 153v783q0 174 -15 315z" />
    <glyph glyph-name="m" unicode="m" horiz-adv-x="1644" 
d="M115 999l247 68q24 -39 37 -106q109 106 256 106q130 0 213 -86q21 -21 41 -51q72 73 141 105t156 32q131 0 207 -66q44 -38 61 -93.5t17 -162.5v-745h-266v692q0 94 -16 122t-70 28q-38 0 -88.5 -24t-94.5 -64v-754h-260v682q0 98 -18.5 130t-75.5 32q-40 0 -88.5 -21
t-91.5 -59v-764h-268v731q0 113 -8.5 171t-30.5 97z" />
    <glyph glyph-name="n" unicode="n" horiz-adv-x="1134" 
d="M117 1006l243 69q39 -67 39 -131q71 50 121 78q85 45 189 45q88 0 157.5 -42t94.5 -110q20 -56 20 -149v-766h-270v682q0 89 -19.5 121.5t-73.5 32.5q-85 0 -190 -95v-741h-274v760q0 142 -37 246z" />
    <glyph glyph-name="o" unicode="o" horiz-adv-x="1112" 
d="M82 520q0 247 129.5 398t341.5 151q222 0 356 -158q63 -74 92 -165t29 -218q0 -134 -31.5 -231t-99.5 -174q-130 -146 -346 -146q-214 0 -342.5 148t-128.5 395zM387 526q0 -183 35 -264q18 -41 57.5 -63.5t81.5 -22.5q89 0 129.5 84t40.5 270q0 211 -55 281
q-42 55 -119 55q-49 0 -86.5 -28t-54.5 -78q-29 -89 -29 -234z" />
    <glyph glyph-name="p" unicode="p" horiz-adv-x="1150" 
d="M137 1026l244 43q16 -58 18 -98q35 43 107 70.5t151 27.5q115 0 207 -63q195 -131 195 -453q0 -169 -32 -269t-114 -188q-113 -119 -280 -119q-125 0 -219 56q4 -25 4 -86v-328l-264 -70v1213q0 157 -17 264zM420 256q73 -61 151 -61q102 0 145.5 76t43.5 255
q0 156 -27 232q-31 88 -131 88q-105 0 -182 -80v-510z" />
    <glyph glyph-name="q" unicode="q" horiz-adv-x="1148" 
d="M92 508q0 140 25 234t82 167q59 76 146 121t181 45q82 0 155.5 -31.5t90.5 -74.5q2 40 21 82h227q-25 -111 -25 -310v-1126l-260 -70v398q0 72 6 106q-83 -74 -209 -74q-92 0 -166.5 29t-125 78.5t-84.5 117.5t-49 145t-15 163zM393 543q0 -39 0.5 -62t4 -64t10 -66
t20.5 -57t33 -50t49 -30.5t68 -12.5q43 0 86.5 24t70.5 56v493q-68 72 -157 72q-48 0 -83 -20t-54 -49t-30.5 -72.5t-14.5 -80t-3 -81.5z" />
    <glyph glyph-name="r" unicode="r" horiz-adv-x="731" 
d="M115 1008l245 65q37 -64 43 -149q110 149 246 149q50 0 103 -22l-76 -242q-39 20 -80 20q-92 0 -168 -88v-741h-274v700q0 208 -39 308z" />
    <glyph glyph-name="s" unicode="s" horiz-adv-x="1005" 
d="M61 88l99 201q77 -47 172 -83t176 -36q59 0 99 34t40 85q0 53 -39 83.5t-123 45.5l-123 22q-51 9 -107.5 40.5t-84.5 66.5q-27 33 -43 84.5t-16 103.5q0 154 111 248t294 94q78 0 152.5 -16.5t117.5 -34t105 -47.5l-90 -184q-147 75 -258 75q-60 0 -96.5 -28t-36.5 -74
q0 -40 29.5 -63.5t101.5 -42.5l127 -33q89 -23 133 -50.5t76 -68.5q57 -72 57 -178q0 -163 -124 -264t-325 -101q-191 0 -424 121z" />
    <glyph glyph-name="t" unicode="t" horiz-adv-x="718" 
d="M49 860v189h105q0 169 10 247l278 70q-16 -154 -16 -317h246l-70 -189h-176v-526q0 -100 24 -134t95 -34q28 0 98 20l35 -163q-116 -48 -223 -48q-104 0 -181 42.5t-102 111.5q-12 33 -15 61t-3 101v569h-105z" />
    <glyph glyph-name="u" unicode="u" horiz-adv-x="1118" 
d="M143 352v672l271 51v-674q0 -126 22 -172q10 -22 37.5 -35.5t58.5 -13.5q51 0 103 31t67 70v737l263 55v-801q0 -115 63 -190l-194 -111q-55 40 -82 103q-104 -101 -277 -101q-110 0 -196.5 47.5t-112.5 122.5q-23 68 -23 209z" />
    <glyph glyph-name="v" unicode="v" horiz-adv-x="970" 
d="M-10 1032l280 35l152 -473q40 -123 67 -252q14 110 64 266l141 441h287l-383 -1049h-227z" />
    <glyph glyph-name="w" unicode="w" horiz-adv-x="1452" 
d="M10 1030l273 31l86 -404q12 -54 26.5 -135t23.5 -136l9 -54q27 186 76 364l98 353h258l84 -347q21 -87 40.5 -179.5t28.5 -141.5l9 -49q28 207 57 342l80 375h283l-299 -1049h-252l-94 360q-44 161 -60 254q-6 37 -16 105q-6 -44 -25 -135q-28 -126 -90 -369l-53 -215
h-256z" />
    <glyph glyph-name="x" unicode="x" horiz-adv-x="1044" 
d="M-20 0l387 559l-291 440l284 80q95 -157 142 -256q21 -42 33 -69q20 54 92 204q25 56 49 91h323l-311 -484l377 -565h-348l-111 193q-9 17 -43.5 82.5t-38.5 72.5q-7 -23 -37 -82.5t-67 -120.5l-88 -145h-352z" />
    <glyph glyph-name="y" unicode="y" horiz-adv-x="1038" 
d="M0 1032l281 33l182 -612q7 -26 20 -78t23 -92.5t12 -46.5q0 5 12.5 68.5t20.5 98.5q16 68 41 146l158 500h288l-381 -1065q-54 -151 -98.5 -227.5t-101.5 -118.5q-107 -78 -254 -97l-94 180q115 31 170 70q40 30 77 86q28 44 60 123h-70q-86 255 -98 295z" />
    <glyph glyph-name="z" unicode="z" horiz-adv-x="980" 
d="M72 0v170l493 686h-452v193h778v-189l-463 -670h481l-65 -190h-772z" />
    <glyph glyph-name="braceleft" unicode="{" horiz-adv-x="802" 
d="M51 473v234q20 0 43 2.5t56.5 11t59 23t44 41.5t18.5 63v354q0 152 72 224.5t193 72.5h215v-233h-101q-44 0 -73 -12t-41 -34t-15.5 -40.5t-3.5 -44.5v-330q0 -54 -14 -94t-32.5 -61t-50 -34t-53 -17t-55.5 -7v-4q33 -2 55 -5.5t53.5 -16.5t50 -34t32.5 -61t14 -94v-332
q0 -26 3.5 -44.5t15.5 -40.5t41 -34t73 -12h101v-233h-215q-117 0 -191 74t-74 225v352q0 36 -18.5 63t-44 41.5t-59 23t-56.5 11t-43 2.5z" />
    <glyph glyph-name="bar" unicode="|" horiz-adv-x="565" 
d="M154 -426v1974h258v-1974h-258z" />
    <glyph glyph-name="braceright" unicode="}" horiz-adv-x="802" 
d="M51 -86h101q44 0 73 12t41 34t15.5 40.5t3.5 44.5v330q0 39 7 71t18 53t29 37t33.5 24.5t39 15t38.5 8.5t39 4v4q-33 2 -55 5.5t-53 16.5t-49.5 34t-32.5 61t-14 94v332q0 26 -3.5 44.5t-15.5 40.5t-41 34t-73 12h-101v233h221q113 0 185.5 -74t72.5 -225v-352
q0 -44 25.5 -75t65.5 -44t71 -17.5t60 -4.5v-234q-29 0 -60 -4.5t-71 -17.5t-65.5 -44t-25.5 -75v-355q0 -152 -71.5 -224t-192.5 -72h-215v233z" />
    <glyph glyph-name="asciitilde" unicode="~" horiz-adv-x="1150" 
d="M102 643q92 176 256 176q83 0 228 -65q14 -6 44.5 -20t47.5 -21t40.5 -16t42 -13t34.5 -4q36 0 70.5 22t52.5 43t48 62q3 4 5 6.5t4 5.5l74 -221q-92 -176 -256 -176q-83 0 -228 65q-14 6 -44.5 20t-47.5 21t-40.5 16t-42 13t-34.5 4q-36 0 -70.5 -22t-52.5 -43t-48 -62
l-9 -12z" />
    <glyph glyph-name="uni00A0" unicode="&#xa0;" horiz-adv-x="460" 
 />
    <glyph glyph-name="exclamdown" unicode="&#xa1;" horiz-adv-x="624" 
d="M143 899q0 70 50.5 120t121.5 50q69 0 117.5 -49.5t48.5 -120.5t-49.5 -120.5t-120.5 -49.5q-69 0 -118.5 50t-49.5 120zM152 -412l57 1002h209l61 -955z" />
    <glyph glyph-name="cent" unicode="&#xa2;" horiz-adv-x="952" 
d="M92 516q0 173 58.5 295.5t156.5 189.5q63 45 148 64v199h192v-197q51 0 123 -35q41 -21 102 -74l-133 -180q-88 82 -166 82q-93 0 -135.5 -84t-42.5 -268q0 -195 54 -264q47 -60 122 -60q90 0 189 86l16 15l125 -166q-48 -48 -96 -78q-70 -42 -158 -57v-211h-192v211
q-172 29 -267.5 168t-95.5 364z" />
    <glyph glyph-name="sterling" unicode="&#xa3;" horiz-adv-x="1214" 
d="M92 0v233h197v406h-197v209h197v145q0 93 33.5 178.5t95.5 153.5t160.5 109t218.5 41q273 0 428 -140l-205 -219q-40 40 -92 64t-94 24q-65 0 -113.5 -21.5t-74.5 -59.5t-38 -81t-12 -94v-100h319v-209h-319v-406h518v-233h-1022z" />
    <glyph glyph-name="currency" unicode="&#xa4;" horiz-adv-x="915" 
d="M63 905l242 142q58 -97 82 -144q32 4 62 4q50 0 77 -6q4 7 13 25.5t14 29.5l49 91l234 -142l-91 -139q56 -79 56 -211q0 -116 -60 -205l97 -145l-242 -142q-58 97 -82 144q-18 -4 -61 -4q-41 0 -78 6q-4 -7 -13 -26t-14 -29l-49 -91l-233 142l90 139q-54 76 -54 207
q0 123 58 209zM326 557q0 -118 22 -154q32 -51 103 -51q64 0 93 49t29 158q0 123 -41 164q-33 33 -86 33q-35 0 -62.5 -16.5t-39.5 -45.5q-18 -45 -18 -137z" />
    <glyph glyph-name="yen" unicode="&#xa5;" horiz-adv-x="1163" 
d="M-16 1423h344l182 -389q47 -99 72 -182q37 94 75 178l185 393h338l-314 -573h211v-211h-323l-29 -53v-103h352v-211h-352v-272h-299v272h-346v211h346v103l-29 53h-317v211h207z" />
    <glyph glyph-name="brokenbar" unicode="&#xa6;" horiz-adv-x="565" 
d="M154 422h258v-848h-258v848zM154 700v848h258v-848h-258z" />
    <glyph glyph-name="section" unicode="&#xa7;" horiz-adv-x="1224" 
d="M92 -51l262 129q18 -69 83 -105t141 -36q27 0 53.5 5t52.5 16t41.5 33t15.5 52q0 39 -34 70.5t-88.5 55.5t-120 49t-131 58t-120 74t-88.5 105.5t-34 144.5q0 193 178 303q-61 40 -95 101.5t-34 134.5q0 86 39.5 155t104 109.5t140.5 62t156 21.5q70 0 134.5 -11
t128 -35.5t115 -69.5t81.5 -107l-258 -148q-21 58 -73 91.5t-115 33.5q-54 0 -93.5 -28t-39.5 -80q0 -36 27.5 -66.5t72.5 -53t102.5 -47.5t117 -47.5t117 -56t102.5 -71t72.5 -93.5t27.5 -123q0 -83 -48.5 -155.5t-123.5 -110.5q53 -42 82.5 -107t29.5 -136
q0 -77 -31.5 -141.5t-82.5 -106.5t-117.5 -71.5t-135 -42.5t-137.5 -13q-357 0 -477 258zM408 657q0 -27 9.5 -50t21.5 -37.5t36 -30t39 -23t45 -20.5q2 -1 6 -3.5t6 -3.5l209 -96q70 42 70 125q0 28 -11.5 51.5t-33 41.5t-41 30t-47.5 25l-238 112q-71 -41 -71 -121z" />
    <glyph glyph-name="dieresis" unicode="&#xa8;" horiz-adv-x="970" 
d="M113 1300q0 64 47 111t112 47q63 0 108.5 -46.5t45.5 -111.5q0 -64 -46.5 -110.5t-111.5 -46.5q-63 0 -109 46.5t-46 110.5zM545 1300q0 65 47 111.5t113 46.5q63 0 108 -46.5t45 -111.5q0 -64 -46.5 -110.5t-111.5 -46.5q-64 0 -109.5 46t-45.5 111z" />
    <glyph glyph-name="copyright" unicode="&#xa9;" horiz-adv-x="1708" 
d="M92 725q0 155 60.5 296t162.5 243t243 162.5t296 60.5t296 -60.5t243 -162.5t162.5 -243t60.5 -296t-60.5 -296t-162.5 -243t-243 -162.5t-296 -60.5t-296 60.5t-243 162.5t-162.5 243t-60.5 296zM301 725q0 -156 74 -289t201.5 -211t277.5 -78t277.5 78t201.5 211
t74 289t-74 289t-201.5 211t-277.5 78t-277.5 -78t-201.5 -211t-74 -289zM494 709q0 187 102 305.5t272 118.5q137 0 230 -78l-94 -135q-76 51 -134 51q-153 0 -153 -234q0 -139 38 -200.5t124 -61.5q77 0 137 57l100 -126q-63 -47 -121.5 -68t-128.5 -21q-169 0 -270.5 107
t-101.5 285z" />
    <glyph glyph-name="ordfeminine" unicode="&#xaa;" horiz-adv-x="890" 
d="M72 473v160h747v-160h-747zM96 993q0 271 379 271h45v30q0 68 -18 92.5t-74 24.5q-97 0 -227 -88l-88 147q36 24 129 64q108 47 215 47q98 0 163.5 -35.5t88.5 -101.5q16 -45 14 -141l-4 -265v-14q0 -63 15 -95.5t59 -64.5l-99 -127q-40 16 -74 42t-47 55
q-34 -32 -49 -43q-59 -43 -157 -43q-130 0 -200.5 64t-70.5 181zM315 1001q0 -45 26.5 -73.5t66.5 -28.5q56 0 106 53l4 170h-10q-109 0 -151 -25.5t-42 -95.5z" />
    <glyph glyph-name="guillemotleft" unicode="&#xab;" horiz-adv-x="1130" 
d="M61 510l326 479l186 -125l-237 -354l237 -354l-186 -125zM557 510l326 479l186 -125l-238 -354l238 -354l-186 -125z" />
    <glyph glyph-name="logicalnot" unicode="&#xac;" horiz-adv-x="1087" 
d="M92 406v223h903v-510h-252v287h-651z" />
    <glyph glyph-name="uni00AD" unicode="&#xad;" horiz-adv-x="675" 
d="M92 442v238h492v-238h-492z" />
    <glyph glyph-name="registered" unicode="&#xae;" horiz-adv-x="1708" 
d="M92 725q0 155 60.5 296t162.5 243t243 162.5t296 60.5t296 -60.5t243 -162.5t162.5 -243t60.5 -296t-60.5 -296t-162.5 -243t-243 -162.5t-296 -60.5t-296 60.5t-243 162.5t-162.5 243t-60.5 296zM301 725q0 -156 74 -289t201.5 -211t277.5 -78t277.5 78t201.5 211
t74 289t-74 289t-201.5 211t-277.5 78t-277.5 -78t-201.5 -211t-74 -289zM571 350v783h314q115 0 183.5 -66t68.5 -174q0 -87 -51.5 -146t-129.5 -67q22 -8 43 -28t32 -35t30 -44q25 -38 59.5 -94t55.5 -93l22 -36h-235q-63 100 -82 133q-97 164 -111 176v-309h-199z
M770 813h53q57 0 80 18.5t23 59.5q0 42 -24.5 61t-76.5 19h-55v-158z" />
    <glyph glyph-name="macron" unicode="&#xaf;" horiz-adv-x="745" 
d="M51 1364v160h643v-160h-643z" />
    <glyph glyph-name="degree" unicode="&#xb0;" horiz-adv-x="841" 
d="M72 1087q0 160 95 258.5t251 98.5q159 0 262 -103q90 -90 90 -249q0 -170 -96 -263q-97 -94 -256 -94q-158 0 -252 95.5t-94 256.5zM295 1094q0 -119 22 -154q32 -51 103 -51q65 0 94 49t29 158q0 126 -41 164q-32 32 -86 32q-36 0 -63.5 -16t-39.5 -45q-18 -45 -18 -137
z" />
    <glyph glyph-name="plusminus" unicode="&#xb1;" horiz-adv-x="1050" 
d="M92 580v231h307v281h252v-281h307v-231h-307v-293h-252v293h-307zM96 0v231h858v-231h-858z" />
    <glyph glyph-name="uni00B2" unicode="&#xb2;" horiz-adv-x="786" 
d="M72 1210q81 69 160.5 101t177.5 32q118 0 189 -67.5t71 -175.5q0 -45 -22 -96t-48 -89t-76 -90t-75.5 -75.5t-77.5 -69.5q13 0 37.5 1t33.5 1h273l-47 -170h-564v137q144 133 211 205q127 132 127 227q0 49 -20.5 67.5t-59.5 18.5q-67 0 -176 -86z" />
    <glyph glyph-name="uni00B3" unicode="&#xb3;" horiz-adv-x="770" 
d="M72 655q84 -14 125 -14q123 0 194.5 46t71.5 116q0 24 -10 41t-23 25t-36.5 12.5t-38 5t-40.5 0.5h-82v166q79 -9 105 -9q117 0 117 80q0 68 -84 68q-95 0 -187 -74l-110 131q154 115 317 115q122 0 204.5 -63t82.5 -160q0 -107 -96 -172q116 -58 116 -178
q0 -133 -128.5 -214t-325.5 -81q-56 0 -117 8z" />
    <glyph glyph-name="acute" unicode="&#xb4;" horiz-adv-x="686" 
d="M72 1292l424 267l118 -213l-458 -205z" />
    <glyph glyph-name="uni00B5" unicode="&#xb5;" horiz-adv-x="1128" 
d="M154 -451v1475l270 51v-674q0 -126 22 -172q10 -21 38 -35t59 -14q51 0 103 31t67 70v737l262 55v-801q0 -115 63 -190l-194 -111q-55 40 -82 103q-104 -101 -277 -101q-39 0 -71 29q4 -40 4 -63v-320z" />
    <glyph glyph-name="paragraph" unicode="&#xb6;" horiz-adv-x="1232" 
d="M51 1065q0 198 126.5 291.5t350.5 93.5h551v-1708h-184v1561h-219v-1561h-184v950q-197 0 -319 105t-122 268z" />
    <glyph glyph-name="periodcentered" unicode="&#xb7;" horiz-adv-x="548" 
d="M92 561q0 75 54 129.5t130 54.5q75 0 128 -54.5t53 -131.5q0 -74 -54.5 -127t-130.5 -53q-75 0 -127.5 53.5t-52.5 128.5z" />
    <glyph glyph-name="cedilla" unicode="&#xb8;" horiz-adv-x="626" 
d="M113 -358l61 129q5 -2 19 -8.5t21 -9t19 -6.5t23.5 -5.5t24.5 -1.5q21 0 36 12t15 25q0 41 -51 41q-10 0 -19.5 -2.5t-20 -6t-16.5 -4.5l-26 41l49 179l147 -13l-28 -78q74 -7 110.5 -51.5t36.5 -109.5q0 -78 -59.5 -129.5t-163.5 -51.5q-42 0 -92.5 15.5t-85.5 34.5z
" />
    <glyph glyph-name="uni00B9" unicode="&#xb9;" horiz-adv-x="663" 
d="M72 1149l274 182h139v-653h107v-166h-440v166h131v426q-94 -50 -154 -70z" />
    <glyph glyph-name="ordmasculine" unicode="&#xba;" horiz-adv-x="890" 
d="M72 473v160h747v-160h-747zM86 1153q0 186 97 299t255 113q170 0 269 -117q90 -109 90 -289q0 -187 -99 -301q-95 -110 -260 -110q-160 0 -256 110.5t-96 294.5zM319 1159q0 -119 27 -186q12 -30 40.5 -48t57.5 -18q64 0 92.5 60.5t28.5 193.5q0 159 -39 203
q-32 37 -84 37q-70 0 -100 -76q-23 -61 -23 -166z" />
    <glyph glyph-name="guillemotright" unicode="&#xbb;" horiz-adv-x="1130" 
d="M61 156l238 354l-238 354l187 125l325 -479l-325 -479zM557 156l238 354l-238 354l186 125l326 -479l-326 -479z" />
    <glyph glyph-name="onequarter" unicode="&#xbc;" horiz-adv-x="1896" 
d="M72 1149l274 182h139v-653h107v-166h-440v166h131v426q-94 -50 -154 -70zM274 -315l1082 1880h221l-1081 -1880h-222zM1178 145v129l223 547h215l-172 -424q-7 -16 -39 -78h141q0 36 2.5 75.5t5 67t8 74.5t7.5 72l168 37v-213v-100l-2 -15q3 0 9.5 1t8.5 1h72v-174h-76
l-14 2q0 -3 1 -10.5t1 -11.5v-154l-197 -22v186l2 10h-364z" />
    <glyph glyph-name="onehalf" unicode="&#xbd;" horiz-adv-x="1892" 
d="M72 1149l274 182h139v-653h107v-166h-440v166h131v426q-94 -50 -154 -70zM231 -315l1082 1880h221l-1081 -1880h-222zM1178 698q81 69 160.5 101t177.5 32q118 0 189 -67.5t71 -175.5q0 -45 -22 -96t-48 -89t-76 -90t-75.5 -75.5t-77.5 -69.5q13 0 37.5 1t33.5 1h273
l-47 -170h-564v137q144 133 211 205q127 132 127 227q0 49 -20.5 67.5t-59.5 18.5q-67 0 -176 -86z" />
    <glyph glyph-name="threequarters" unicode="&#xbe;" horiz-adv-x="2002" 
d="M72 655q84 -14 125 -14q123 0 194.5 46t71.5 116q0 24 -10 41t-23 25t-36.5 12.5t-38 5t-40.5 0.5h-82v166q79 -9 105 -9q117 0 117 80q0 68 -84 68q-95 0 -187 -74l-110 131q154 115 317 115q122 0 204.5 -63t82.5 -160q0 -107 -96 -172q116 -58 116 -178
q0 -133 -128.5 -214t-325.5 -81q-56 0 -117 8zM381 -315l1081 1880h221l-1081 -1880h-221zM1284 145v129l223 547h215l-172 -424q-7 -16 -39 -78h142q0 36 2.5 76.5t4.5 65.5t7.5 75.5t7.5 71.5l168 37v-213v-100l-2 -15q3 0 10 1t9 1h71v-174h-76l-14 2q0 -3 1 -10.5
t1 -11.5v-154l-196 -22v186l2 10h-365z" />
    <glyph glyph-name="questiondown" unicode="&#xbf;" horiz-adv-x="991" 
d="M123 -59q0 66 17.5 119.5t50.5 91t57.5 57t62.5 43.5q154 99 158 266q0 26 -4 72h235l11 -53q8 -39 8 -82q0 -92 -46.5 -167.5t-142.5 -144.5q-6 -4 -29 -20t-32 -23t-27 -23.5t-25.5 -29t-14.5 -31.5t-7 -39q0 -71 47.5 -106t120.5 -35q21 0 41.5 3t36 7t33.5 12
t28.5 13.5t26 16t21.5 15t19 15.5t15 12l125 -176q-23 -24 -55.5 -47.5t-81.5 -49.5t-117.5 -42t-142.5 -16q-163 0 -276 93t-113 249zM385 899q0 70 50.5 120t121.5 50q69 0 117.5 -49.5t48.5 -120.5t-49.5 -120.5t-120.5 -49.5q-69 0 -118.5 50t-49.5 120z" />
    <glyph glyph-name="Agrave" unicode="&#xc0;" horiz-adv-x="1212" 
d="M4 0l467 1427h309l449 -1427h-307l-101 338h-418l-100 -338h-299zM322 1673l118 213l424 -266l-84 -152zM473 575h279q-47 150 -78 287l-58 252q-40 -168 -67 -274q-46 -175 -76 -265z" />
    <glyph glyph-name="Aacute" unicode="&#xc1;" horiz-adv-x="1212" 
d="M4 0l467 1427h309l449 -1427h-307l-101 338h-418l-100 -338h-299zM393 1620l424 266l119 -213l-459 -205zM473 575h279q-47 150 -78 287l-58 252q-40 -168 -67 -274q-46 -175 -76 -265z" />
    <glyph glyph-name="Acircumflex" unicode="&#xc2;" horiz-adv-x="1212" 
d="M4 0l467 1427h309l449 -1427h-307l-101 338h-418l-100 -338h-299zM242 1608l368 276l377 -276l-92 -150l-285 156l-276 -156zM473 575h279q-47 150 -78 287l-58 252q-40 -168 -67 -274q-46 -175 -76 -265z" />
    <glyph glyph-name="Atilde" unicode="&#xc3;" horiz-adv-x="1212" 
d="M4 0l467 1427h309l449 -1427h-307l-101 338h-418l-100 -338h-299zM258 1681q94 119 254 119q61 0 135 -34.5t133 -34.5q85 0 140 61l84 -156q-47 -61 -106 -89.5t-148 -28.5q-63 0 -136.5 34.5t-132.5 34.5q-83 0 -139 -59zM473 575h279q-47 150 -78 287l-58 252
q-40 -168 -67 -274q-46 -175 -76 -265z" />
    <glyph glyph-name="Adieresis" unicode="&#xc4;" horiz-adv-x="1212" 
d="M4 0l467 1427h309l449 -1427h-307l-101 338h-418l-100 -338h-299zM252 1628q0 64 47.5 111t112.5 47q63 0 108 -46.5t45 -111.5t-46.5 -111.5t-110.5 -46.5q-63 0 -109.5 47t-46.5 111zM473 575h279q-47 150 -78 287l-58 252q-40 -168 -67 -274q-46 -175 -76 -265z
M686 1628q0 64 47.5 111t112.5 47q63 0 108 -46.5t45 -111.5t-46.5 -111.5t-110.5 -46.5q-63 0 -109.5 47t-46.5 111z" />
    <glyph glyph-name="Aring" unicode="&#xc5;" horiz-adv-x="1212" 
d="M4 0l467 1427h309l449 -1427h-307l-101 338h-418l-100 -338h-299zM410 1677q0 89 64.5 153t152.5 64t150.5 -64t62.5 -153t-64 -153t-153 -64q-88 0 -150.5 64t-62.5 153zM473 575h279q-47 150 -78 287l-58 252q-40 -168 -67 -274q-46 -175 -76 -265zM520 1677
q0 -43 31 -73.5t72 -30.5q43 0 73.5 30.5t30.5 73.5t-29.5 74t-70.5 31q-44 0 -75.5 -31t-31.5 -74z" />
    <glyph glyph-name="AE" unicode="&#xc6;" horiz-adv-x="1759" 
d="M-31 0l848 1423h864l-36 -233h-488v-330h408v-233h-404v-381h547v-246h-838v338h-391l-190 -338h-320zM612 575h258v330q0 101 9 164q-13 -26 -121.5 -227.5t-145.5 -266.5z" />
    <glyph glyph-name="Ccedilla" unicode="&#xc7;" horiz-adv-x="1175" 
d="M92 682q0 263 96 442q83 155 228 242.5t317 87.5q105 0 203.5 -31t157.5 -82l-129 -194q-109 80 -228 80q-72 0 -137.5 -33t-103.5 -90q-80 -119 -80 -367q0 -147 13.5 -235t45.5 -146q87 -159 275 -159q131 0 243 92l131 -180q-85 -69 -179.5 -101.5t-215.5 -32.5h-35
l-14 -41q74 -7 110.5 -51.5t36.5 -109.5q0 -78 -59.5 -129.5t-163.5 -51.5q-42 0 -92.5 15.5t-85.5 34.5l61 129q5 -2 19 -8.5t21 -9t19 -6.5t23.5 -5.5t24.5 -1.5q21 0 36 12t15 25q0 41 -51 41q-12 0 -29.5 -6.5t-25.5 -6.5l-27 41l41 150q-172 44 -289 176
q-172 193 -172 510z" />
    <glyph glyph-name="Egrave" unicode="&#xc8;" horiz-adv-x="1034" 
d="M164 0v1423h811l-37 -233h-487v-330h407v-233h-403v-381h538v-246h-829zM248 1673l119 213l424 -266l-84 -152z" />
    <glyph glyph-name="Eacute" unicode="&#xc9;" horiz-adv-x="1034" 
d="M164 0v1423h811l-37 -233h-487v-330h407v-233h-403v-381h538v-246h-829zM297 1620l424 266l119 -213l-459 -205z" />
    <glyph glyph-name="Ecircumflex" unicode="&#xca;" horiz-adv-x="1034" 
d="M164 0v1423h811l-37 -233h-487v-330h407v-233h-403v-381h538v-246h-829zM193 1608l368 276l377 -276l-92 -150l-285 156l-276 -156z" />
    <glyph glyph-name="Edieresis" unicode="&#xcb;" horiz-adv-x="1034" 
d="M164 0v1423h811l-37 -233h-487v-330h407v-233h-403v-381h538v-246h-829zM197 1628q0 64 47 111t112 47q63 0 108.5 -46.5t45.5 -111.5q0 -64 -47 -111t-111 -47q-63 0 -109 47t-46 111zM629 1628q0 64 47 111t112 47q63 0 108.5 -46.5t45.5 -111.5q0 -64 -47 -111
t-111 -47q-63 0 -109 47t-46 111z" />
    <glyph glyph-name="Igrave" unicode="&#xcc;" horiz-adv-x="606" 
d="M10 1673l119 213l424 -266l-84 -152zM164 0v1423h299v-1423h-299z" />
    <glyph glyph-name="Iacute" unicode="&#xcd;" horiz-adv-x="606" 
d="M82 1620l424 266l119 -213l-459 -205zM164 0v1423h299v-1423h-299z" />
    <glyph glyph-name="Icircumflex" unicode="&#xce;" horiz-adv-x="606" 
d="M-59 1608l368 276l377 -276l-92 -150l-285 156l-276 -156zM164 0v1423h299v-1423h-299z" />
    <glyph glyph-name="Idieresis" unicode="&#xcf;" horiz-adv-x="606" 
d="M-59 1628q0 64 47 111t112 47q63 0 108.5 -46.5t45.5 -111.5q0 -64 -47 -111t-111 -47q-63 0 -109 47t-46 111zM164 0v1423h299v-1423h-299zM373 1628q0 64 47 111t112 47q63 0 108.5 -46.5t45.5 -111.5q0 -64 -47 -111t-111 -47q-63 0 -109 47t-46 111z" />
    <glyph glyph-name="Eth" unicode="&#xd0;" horiz-adv-x="1286" 
d="M-2 627v182h156v614h286q134 0 248 -8q185 -15 311 -141q195 -192 195 -567q0 -302 -143 -494q-65 -89 -156 -143.5t-190 -61.5q-106 -8 -205 -8h-346v627h-156zM444 233h154q140 0 207 110t67 337q0 282 -71 399q-36 60 -89.5 89.5t-136.5 29.5h-131v-389h220l-50 -182
h-170v-394z" />
    <glyph glyph-name="Ntilde" unicode="&#xd1;" horiz-adv-x="1296" 
d="M164 0v1423h317l273 -569q101 -213 155 -403q-18 201 -22 391l-6 581h272v-1423h-299l-244 545q-154 342 -192 467q9 -105 14 -404l8 -608h-276zM272 1681q94 119 254 119q61 0 135.5 -34.5t133.5 -34.5q84 0 139 61l84 -156q-47 -61 -106 -89.5t-148 -28.5
q-63 0 -136 34.5t-132 34.5q-84 0 -140 -59z" />
    <glyph glyph-name="Ograve" unicode="&#xd2;" horiz-adv-x="1413" 
d="M102 707q0 231 84.5 405.5t237.5 259.5q131 70 295 70q284 0 448 -194t164 -529q0 -243 -81 -417.5t-236 -258.5q-65 -35 -130.5 -50.5t-154.5 -15.5q-161 0 -271 47.5t-192 153.5q-164 209 -164 529zM414 1673l118 213l424 -266l-84 -152zM422 707q0 -371 127 -461
q67 -49 170 -49q149 0 215.5 121t66.5 393q0 214 -36 329q-10 30 -28.5 59t-47.5 58t-74.5 46.5t-99.5 17.5q-72 0 -131 -34t-90 -91q-72 -135 -72 -389z" />
    <glyph glyph-name="Oacute" unicode="&#xd3;" horiz-adv-x="1413" 
d="M102 707q0 231 84.5 405.5t237.5 259.5q131 70 295 70q284 0 448 -194t164 -529q0 -243 -81 -417.5t-236 -258.5q-65 -35 -130.5 -50.5t-154.5 -15.5q-161 0 -271 47.5t-192 153.5q-164 209 -164 529zM422 707q0 -371 127 -461q67 -49 170 -49q149 0 215.5 121t66.5 393
q0 214 -36 329q-10 30 -28.5 59t-47.5 58t-74.5 46.5t-99.5 17.5q-72 0 -131 -34t-90 -91q-72 -135 -72 -389zM463 1620l424 266l119 -213l-459 -205z" />
    <glyph glyph-name="Ocircumflex" unicode="&#xd4;" horiz-adv-x="1413" 
d="M102 707q0 231 84.5 405.5t237.5 259.5q131 70 295 70q284 0 448 -194t164 -529q0 -243 -81 -417.5t-236 -258.5q-65 -35 -130.5 -50.5t-154.5 -15.5q-161 0 -271 47.5t-192 153.5q-164 209 -164 529zM350 1608l369 276l377 -276l-92 -150l-285 156l-277 -156zM422 707
q0 -371 127 -461q67 -49 170 -49q149 0 215.5 121t66.5 393q0 214 -36 329q-10 30 -28.5 59t-47.5 58t-74.5 46.5t-99.5 17.5q-72 0 -131 -34t-90 -91q-72 -135 -72 -389z" />
    <glyph glyph-name="Otilde" unicode="&#xd5;" horiz-adv-x="1413" 
d="M90 707q0 231 84.5 405.5t237.5 259.5q131 70 295 70q284 0 448 -194t164 -529q0 -242 -81.5 -417t-236.5 -259q-65 -35 -130 -50.5t-154 -15.5q-161 0 -271 47.5t-192 153.5q-164 209 -164 529zM348 1681q94 119 254 119q61 0 135 -34.5t133 -34.5q85 0 140 61l84 -156
q-47 -61 -106 -89.5t-148 -28.5q-63 0 -136.5 34.5t-132.5 34.5q-83 0 -139 -59zM410 707q0 -371 127 -461q67 -49 170 -49q149 0 215.5 121t66.5 393q0 211 -37 329q-10 30 -28.5 59t-47.5 58t-74.5 46.5t-99.5 17.5q-72 0 -131 -34t-90 -91q-71 -133 -71 -389z" />
    <glyph glyph-name="Odieresis" unicode="&#xd6;" horiz-adv-x="1413" 
d="M102 707q0 231 84.5 405.5t237.5 259.5q131 70 295 70q284 0 448 -194t164 -529q0 -243 -81 -417.5t-236 -258.5q-65 -35 -130.5 -50.5t-154.5 -15.5q-161 0 -271 47.5t-192 153.5q-164 209 -164 529zM344 1628q0 64 47.5 111t112.5 47q63 0 108 -46.5t45 -111.5
t-46.5 -111.5t-110.5 -46.5q-63 0 -109.5 47t-46.5 111zM422 707q0 -371 127 -461q67 -49 170 -49q149 0 215.5 121t66.5 393q0 214 -36 329q-10 30 -28.5 59t-47.5 58t-74.5 46.5t-99.5 17.5q-72 0 -131 -34t-90 -91q-72 -135 -72 -389zM776 1628q0 64 47.5 111t112.5 47
q63 0 108.5 -46.5t45.5 -111.5q0 -64 -47 -111t-111 -47q-63 0 -109.5 47t-46.5 111z" />
    <glyph glyph-name="multiply" unicode="&#xd7;" horiz-adv-x="1282" 
d="M154 315l305 306l-305 305l182 182l305 -305l305 305l182 -182l-305 -305l305 -306l-182 -182l-305 305l-305 -305z" />
    <glyph glyph-name="Oslash" unicode="&#xd8;" horiz-adv-x="1413" 
d="M92 707q0 231 84.5 406.5t237.5 258.5q131 70 295 70q168 0 297 -72l124 203l150 -84l-139 -225q180 -192 180 -545q0 -243 -81 -417.5t-236 -258.5q-65 -35 -130.5 -50.5t-154.5 -15.5q-190 0 -318 70l-137 -227l-149 84l155 256q-178 217 -178 547zM412 707
q0 -164 24 -275l441 725q-71 64 -172 64q-72 0 -132.5 -34t-89.5 -91q-71 -133 -71 -389zM526 252q79 -55 183 -55q149 0 215.5 121t66.5 393q0 158 -22 268z" />
    <glyph glyph-name="Ugrave" unicode="&#xd9;" horiz-adv-x="1323" 
d="M160 432v991h293v-936q0 -123 24 -170q51 -98 195 -98q94 0 151 44t66 122q4 31 4 127v911h291v-958q0 -101 -4 -139t-19 -84q-12 -36 -34.5 -71.5t-63 -72t-93 -63.5t-128.5 -44.5t-164 -17.5q-163 0 -280 48.5t-177 142.5q-36 56 -48.5 111t-12.5 157zM365 1673
l118 213l424 -266l-84 -152z" />
    <glyph glyph-name="Uacute" unicode="&#xda;" horiz-adv-x="1323" 
d="M160 432v991h293v-936q0 -123 24 -170q51 -98 195 -98q94 0 151 44t66 122q4 31 4 127v911h291v-958q0 -101 -4 -139t-19 -84q-12 -36 -34.5 -71.5t-63 -72t-93 -63.5t-128.5 -44.5t-164 -17.5q-163 0 -280 48.5t-177 142.5q-36 56 -48.5 111t-12.5 157zM465 1620
l424 266l119 -213l-459 -205z" />
    <glyph glyph-name="Ucircumflex" unicode="&#xdb;" horiz-adv-x="1323" 
d="M160 432v991h293v-936q0 -123 24 -170q51 -98 195 -98q94 0 151 44t66 122q4 31 4 127v911h291v-958q0 -101 -4 -139t-19 -84q-12 -36 -34.5 -71.5t-63 -72t-93 -63.5t-128.5 -44.5t-164 -17.5q-163 0 -280 48.5t-177 142.5q-36 56 -48.5 111t-12.5 157zM309 1608
l369 276l377 -276l-92 -150l-285 156l-277 -156z" />
    <glyph glyph-name="Udieresis" unicode="&#xdc;" horiz-adv-x="1323" 
d="M160 432v991h293v-936q0 -123 24 -170q51 -98 195 -98q94 0 151 44t66 122q4 31 4 127v911h291v-958q0 -101 -4 -139t-19 -84q-12 -36 -34.5 -71.5t-63 -72t-93 -63.5t-128.5 -44.5t-164 -17.5q-163 0 -280 48.5t-177 142.5q-36 56 -48.5 111t-12.5 157zM299 1628
q0 64 47.5 111t112.5 47q63 0 108 -46.5t45 -111.5t-46.5 -111.5t-110.5 -46.5q-63 0 -109.5 47t-46.5 111zM729 1628q0 64 47.5 111t112.5 47q63 0 108 -46.5t45 -111.5t-46.5 -111.5t-110.5 -46.5q-63 0 -109.5 47t-46.5 111z" />
    <glyph glyph-name="Yacute" unicode="&#xdd;" horiz-adv-x="1114" 
d="M-31 1423h344l183 -389q44 -93 71 -182q31 78 76 178l184 393h338l-454 -837v-586h-299v586zM348 1620l424 266l119 -213l-459 -205z" />
    <glyph glyph-name="Thorn" unicode="&#xde;" horiz-adv-x="1179" 
d="M154 0v1423h286v-225h88q169 0 249 -16t147 -54q99 -55 151.5 -150t52.5 -218q0 -141 -64 -250t-181 -164q-54 -25 -113.5 -36t-171.5 -11h-158v-299h-286zM440 532h150q87 0 123.5 14.5t66.5 59.5q35 55 35 148q0 100 -50.5 156.5t-141.5 56.5h-183v-435z" />
    <glyph glyph-name="germandbls" unicode="&#xdf;" horiz-adv-x="1253" 
d="M27 836v213h168v32q0 105 18.5 167.5t83.5 121.5q87 81 213 105q58 10 113 10q204 0 324 -91.5t120 -246.5q0 -166 -152 -256l-65 -39q-27 -17 -27 -37q0 -29 49 -51q100 -44 142.5 -70t81.5 -67q86 -89 86 -232q0 -189 -129 -305.5t-338 -116.5q-100 0 -154 25l62 188
q27 -10 61 -10q94 0 145.5 54.5t51.5 154.5q0 44 -8.5 70t-34.5 53q-38 42 -76 65l-92 60q-90 58 -90 166q0 90 67 143l47 37q66 51 66 131t-37 123q-38 41 -102 41q-53 0 -92 -34t-50 -87q-6 -31 -6 -143v-799q0 -119 -41 -211h-278q12 40 26.5 118t14.5 142v576h-168z" />
    <glyph glyph-name="agrave" unicode="&#xe0;" horiz-adv-x="1069" 
d="M92 289q0 183 126 271.5t378 88.5q38 0 61 -2v43q0 90 -24.5 123t-97.5 33q-127 0 -304 -119l-116 197q68 43 170 86q145 61 286 61q132 0 219.5 -47t118.5 -135q12 -36 16 -73t3 -116l-6 -352q-2 -93 15.5 -138t82.5 -95l-146 -168q-105 45 -147 127q-40 -40 -63 -56
q-79 -57 -211 -57q-174 0 -267.5 85.5t-93.5 242.5zM248 1346l119 213l424 -267l-84 -151zM385 299q0 -61 34 -99t87 -38q78 0 143 71l4 226h-12q-145 0 -200.5 -33.5t-55.5 -126.5z" />
    <glyph glyph-name="aacute" unicode="&#xe1;" horiz-adv-x="1069" 
d="M92 289q0 183 126 271.5t378 88.5q38 0 61 -2v43q0 90 -24.5 123t-97.5 33q-127 0 -304 -119l-116 197q68 43 170 86q145 61 286 61q132 0 219.5 -47t118.5 -135q12 -36 16 -73t3 -116l-6 -352q-2 -93 15.5 -138t82.5 -95l-146 -168q-105 45 -147 127q-40 -40 -63 -56
q-79 -57 -211 -57q-174 0 -267.5 85.5t-93.5 242.5zM311 1292l424 267l119 -213l-459 -205zM385 299q0 -61 34 -99t87 -38q78 0 143 71l4 226h-12q-145 0 -200.5 -33.5t-55.5 -126.5z" />
    <glyph glyph-name="acircumflex" unicode="&#xe2;" horiz-adv-x="1069" 
d="M92 289q0 183 126 271.5t378 88.5q38 0 61 -2v43q0 90 -24.5 123t-97.5 33q-127 0 -304 -119l-116 197q68 43 170 86q145 61 286 61q132 0 219.5 -47t118.5 -135q12 -36 16 -73t3 -116l-6 -352q-2 -93 15.5 -138t82.5 -95l-146 -168q-105 45 -147 127q-40 -40 -63 -56
q-79 -57 -211 -57q-174 0 -267.5 85.5t-93.5 242.5zM160 1280l368 276l377 -276l-92 -150l-285 156l-276 -156zM385 299q0 -61 34 -99t87 -38q78 0 143 71l4 226h-12q-145 0 -200.5 -33.5t-55.5 -126.5z" />
    <glyph glyph-name="atilde" unicode="&#xe3;" horiz-adv-x="1069" 
d="M92 289q0 183 126 271.5t378 88.5q38 0 61 -2v43q0 90 -24.5 123t-97.5 33q-127 0 -304 -119l-116 197q68 43 170 86q145 61 286 61q132 0 219.5 -47t118.5 -135q12 -36 16 -73t3 -116l-6 -352q-2 -93 15.5 -138t82.5 -95l-146 -168q-105 45 -147 127q-40 -40 -63 -56
q-79 -57 -211 -57q-174 0 -267.5 85.5t-93.5 242.5zM168 1354q94 119 254 119q61 0 135 -35t133 -35q84 0 139 61l84 -155q-47 -62 -106 -90.5t-148 -28.5q-63 0 -136 35t-132 35q-82 0 -139 -60zM385 299q0 -61 34 -99t87 -38q78 0 143 71l4 226h-12q-145 0 -200.5 -33.5
t-55.5 -126.5z" />
    <glyph glyph-name="adieresis" unicode="&#xe4;" horiz-adv-x="1069" 
d="M92 289q0 183 126 271.5t378 88.5q38 0 61 -2v43q0 90 -24.5 123t-97.5 33q-127 0 -304 -119l-116 197q68 43 170 86q145 61 286 61q132 0 219.5 -47t118.5 -135q12 -36 16 -73t3 -116l-6 -352q-2 -93 15.5 -138t82.5 -95l-146 -168q-105 45 -147 127q-40 -40 -63 -56
q-79 -57 -211 -57q-174 0 -267.5 85.5t-93.5 242.5zM152 1300q0 66 50 115t117 49q64 0 111 -49t47 -115q0 -67 -48 -115t-116 -48q-65 0 -113 48t-48 115zM385 299q0 -61 34 -99t87 -38q78 0 143 71l4 226h-12q-145 0 -200.5 -33.5t-55.5 -126.5zM584 1303q0 67 50 115
t118 48q66 0 112.5 -47.5t46.5 -115.5q0 -67 -48.5 -116.5t-114.5 -49.5t-115 49.5t-49 116.5z" />
    <glyph glyph-name="aring" unicode="&#xe5;" horiz-adv-x="1069" 
d="M92 289q0 183 126 271.5t378 88.5q38 0 61 -2v43q0 90 -24.5 123t-97.5 33q-127 0 -304 -119l-116 197q68 43 170 86q145 61 286 61q132 0 219.5 -47t118.5 -135q12 -36 16 -73t3 -116l-6 -352q-2 -93 15.5 -138t82.5 -95l-146 -168q-105 45 -147 127q-40 -40 -63 -56
q-79 -57 -211 -57q-174 0 -267.5 85.5t-93.5 242.5zM330 1350q0 89 64.5 153t152.5 64t150.5 -64t62.5 -153t-64 -153t-153 -64q-88 0 -150.5 64t-62.5 153zM385 299q0 -61 34 -99t87 -38q78 0 143 71l4 226h-12q-145 0 -200.5 -33.5t-55.5 -126.5zM440 1350q0 -43 31 -74
t72 -31q43 0 73.5 31t30.5 74t-29.5 73.5t-70.5 30.5q-44 0 -75.5 -30.5t-31.5 -73.5z" />
    <glyph glyph-name="ae" unicode="&#xe6;" horiz-adv-x="1581" 
d="M82 289q0 183 126 271.5t378 88.5q9 0 27 -1t34 -1v43q0 90 -25 123t-98 33q-126 0 -303 -119l-117 197q61 41 170 86q145 61 287 61q146 0 266 -96q45 42 111.5 68t138.5 26q91 0 171.5 -29.5t131.5 -81.5q72 -74 106 -184t34 -274v-64h-607v-8q0 -121 58 -187.5
t164 -66.5q140 0 266 105l106 -164q-180 -146 -395 -146q-107 0 -172 22t-141 81q-5 4 -11.5 10t-14 14.5t-11.5 12.5q-22 -30 -54 -55.5t-55 -37.5q-98 -55 -211 -55q-174 0 -267 85.5t-93 242.5zM375 299q0 -61 34 -99t87 -38q78 0 145 74l2 223h-12q-145 0 -200.5 -33.5
t-55.5 -126.5zM918 637h317v12q0 107 -33 158q-40 61 -121 61q-78 0 -120.5 -59t-42.5 -168v-4z" />
    <glyph glyph-name="ccedilla" unicode="&#xe7;" horiz-adv-x="952" 
d="M92 516q0 173 58.5 295.5t156.5 189.5q53 35 123.5 56.5t136.5 21.5q107 0 203 -47q41 -21 102 -74l-133 -180q-88 82 -166 82q-93 0 -135.5 -84t-42.5 -268q0 -198 54 -264q47 -60 122 -60q90 0 189 86l16 15l125 -166q-48 -48 -96 -78q-113 -66 -240 -66l-14 -41
q74 -7 110.5 -51.5t36.5 -109.5q0 -78 -59.5 -129.5t-163.5 -51.5q-42 0 -92.5 15.5t-85.5 34.5l61 129q5 -2 19 -8.5t21 -9t19 -6.5t23.5 -5.5t24.5 -1.5q21 0 36 12t15 25q0 41 -51 41q-12 0 -29.5 -6.5t-25.5 -6.5l-27 41l39 144q-158 38 -244 174.5t-86 351.5z" />
    <glyph glyph-name="egrave" unicode="&#xe8;" horiz-adv-x="1056" 
d="M102 514q0 141 31 240.5t100 175.5q126 141 330 141q91 0 171.5 -29t131.5 -81q72 -74 106 -184.5t34 -274.5v-64h-607v-8q0 -121 58 -187.5t164 -66.5q140 0 266 105l106 -164q-180 -146 -395 -146q-226 0 -361 148t-135 395zM215 1346l119 213l424 -267l-84 -151z
M403 639h318v12q0 107 -33 158q-40 61 -121 61q-78 0 -121 -59t-43 -168v-4z" />
    <glyph glyph-name="eacute" unicode="&#xe9;" horiz-adv-x="1056" 
d="M102 514q0 141 31 240.5t100 175.5q126 141 330 141q91 0 171.5 -29t131.5 -81q72 -74 106 -184.5t34 -274.5v-64h-607v-8q0 -121 58 -187.5t164 -66.5q140 0 266 105l106 -164q-180 -146 -395 -146q-226 0 -361 148t-135 395zM319 1292l424 267l119 -213l-459 -205z
M403 639h318v12q0 107 -33 158q-40 61 -121 61q-78 0 -121 -59t-43 -168v-4z" />
    <glyph glyph-name="ecircumflex" unicode="&#xea;" horiz-adv-x="1056" 
d="M102 514q0 141 31 240.5t100 175.5q126 141 330 141q91 0 171.5 -29t131.5 -81q72 -74 106 -184.5t34 -274.5v-64h-607v-8q0 -121 58 -187.5t164 -66.5q140 0 266 105l106 -164q-180 -146 -395 -146q-226 0 -361 148t-135 395zM193 1280l368 276l377 -276l-92 -150
l-285 156l-276 -156zM403 639h318v12q0 107 -33 158q-40 61 -121 61q-78 0 -121 -59t-43 -168v-4z" />
    <glyph glyph-name="edieresis" unicode="&#xeb;" horiz-adv-x="1056" 
d="M102 514q0 141 31 240.5t100 175.5q126 141 330 141q91 0 171.5 -29t131.5 -81q72 -74 106 -184.5t34 -274.5v-64h-607v-8q0 -121 58 -187.5t164 -66.5q140 0 266 105l106 -164q-180 -146 -395 -146q-226 0 -361 148t-135 395zM193 1300q0 64 47 111t112 47
q63 0 108.5 -46.5t45.5 -111.5q0 -64 -46.5 -110.5t-111.5 -46.5q-63 0 -109 46.5t-46 110.5zM403 639h318v12q0 107 -33 158q-40 61 -121 61q-78 0 -121 -59t-43 -168v-4zM625 1300q0 64 47 111t112 47q63 0 108.5 -46.5t45.5 -111.5q0 -64 -46.5 -110.5t-111.5 -46.5
q-63 0 -109 46.5t-46 110.5z" />
    <glyph glyph-name="igrave" unicode="&#xec;" horiz-adv-x="581" 
d="M-20 1346l118 213l424 -267l-84 -151zM164 0v1030l274 43v-1073h-274z" />
    <glyph glyph-name="iacute" unicode="&#xed;" horiz-adv-x="581" 
d="M88 1292l424 267l119 -213l-459 -205zM164 0v1030l274 43v-1073h-274z" />
    <glyph glyph-name="icircumflex" unicode="&#xee;" horiz-adv-x="581" 
d="M-72 1280l369 276l377 -276l-92 -150l-285 156l-277 -156zM164 0v1030l274 43v-1073h-274z" />
    <glyph glyph-name="idieresis" unicode="&#xef;" horiz-adv-x="581" 
d="M-72 1300q0 64 47.5 111t112.5 47q63 0 108.5 -46.5t45.5 -111.5q0 -64 -46.5 -110.5t-111.5 -46.5q-63 0 -109.5 46.5t-46.5 110.5zM164 0v1030l274 43v-1073h-274zM360 1300q0 64 47.5 111t112.5 47q63 0 108.5 -46.5t45.5 -111.5q0 -64 -46.5 -110.5t-111.5 -46.5
q-63 0 -109.5 46.5t-46.5 110.5z" />
    <glyph glyph-name="eth" unicode="&#xf0;" horiz-adv-x="1097" 
d="M2 1217l164 194q148 -17 291 -84l63 74l166 -74l-76 -88q98 -68 162 -143q234 -274 234 -602q0 -248 -128.5 -383.5t-332.5 -135.5q-198 0 -325.5 125.5t-127.5 337.5q0 194 121.5 311t312.5 117q14 0 107 -6q-59 81 -135 148q-10 9 -54 43l-84 -97l-165 74l98 111
q-132 61 -291 78zM369 434q0 -106 50 -170.5t138 -64.5q87 0 131.5 75.5t44.5 202.5q0 28 -12 133q-61 39 -182 39q-80 0 -125 -56t-45 -159z" />
    <glyph glyph-name="ntilde" unicode="&#xf1;" horiz-adv-x="1134" 
d="M127 1006l244 69q39 -67 39 -131q75 53 120 78q85 45 189 45q88 0 157.5 -42t94.5 -110q20 -56 20 -149v-766h-270v682q0 90 -19 122t-73 32q-86 0 -191 -95v-741h-274v760q0 142 -37 246zM201 1354q94 119 254 119q61 0 135 -35t133 -35q84 0 139 61l84 -155
q-47 -62 -106 -90.5t-148 -28.5q-63 0 -136 35t-132 35q-82 0 -139 -60z" />
    <glyph glyph-name="ograve" unicode="&#xf2;" horiz-adv-x="1112" 
d="M92 520q0 247 129.5 398t341.5 151q223 0 357 -158q63 -73 91.5 -164t28.5 -219q0 -134 -31.5 -231t-99.5 -174q-130 -146 -346 -146q-214 0 -342.5 148t-128.5 395zM211 1346l119 213l424 -267l-84 -151zM397 526q0 -183 35 -264q18 -41 57.5 -63.5t81.5 -22.5
q89 0 129.5 84t40.5 270q0 211 -55 281q-42 55 -119 55q-49 0 -86.5 -28t-54.5 -78q-29 -89 -29 -234z" />
    <glyph glyph-name="oacute" unicode="&#xf3;" horiz-adv-x="1112" 
d="M92 520q0 247 129.5 398t341.5 151q223 0 357 -158q63 -73 91.5 -164t28.5 -219q0 -134 -31.5 -231t-99.5 -174q-130 -146 -346 -146q-214 0 -342.5 148t-128.5 395zM322 1292l423 267l119 -213l-458 -205zM397 526q0 -183 35 -264q18 -41 57.5 -63.5t81.5 -22.5
q89 0 129.5 84t40.5 270q0 211 -55 281q-42 55 -119 55q-49 0 -86.5 -28t-54.5 -78q-29 -89 -29 -234z" />
    <glyph glyph-name="ocircumflex" unicode="&#xf4;" horiz-adv-x="1112" 
d="M92 520q0 247 129.5 398t341.5 151q223 0 357 -158q63 -73 91.5 -164t28.5 -219q0 -134 -31.5 -231t-99.5 -174q-130 -146 -346 -146q-214 0 -342.5 148t-128.5 395zM195 1280l368 276l377 -276l-92 -150l-285 156l-276 -156zM397 526q0 -183 35 -264q18 -41 57.5 -63.5
t81.5 -22.5q89 0 129.5 84t40.5 270q0 211 -55 281q-42 55 -119 55q-49 0 -86.5 -28t-54.5 -78q-29 -89 -29 -234z" />
    <glyph glyph-name="otilde" unicode="&#xf5;" horiz-adv-x="1112" 
d="M92 520q0 247 129.5 398t341.5 151q223 0 357 -158q63 -73 91.5 -164t28.5 -219q0 -134 -31.5 -231t-99.5 -174q-130 -146 -346 -146q-214 0 -342.5 148t-128.5 395zM190 1354q94 119 254 119q61 0 135.5 -35t133.5 -35q84 0 139 61l84 -155q-47 -62 -106 -90.5
t-148 -28.5q-63 0 -136 35t-132 35q-83 0 -140 -60zM397 526q0 -183 35 -264q18 -41 57.5 -63.5t81.5 -22.5q89 0 129.5 84t40.5 270q0 211 -55 281q-42 55 -119 55q-49 0 -86.5 -28t-54.5 -78q-29 -89 -29 -234z" />
    <glyph glyph-name="odieresis" unicode="&#xf6;" horiz-adv-x="1112" 
d="M92 520q0 247 129.5 398t341.5 151q223 0 357 -158q63 -73 91.5 -164t28.5 -219q0 -134 -31.5 -231t-99.5 -174q-130 -146 -346 -146q-214 0 -342.5 148t-128.5 395zM193 1300q0 64 47 111t112 47q63 0 108.5 -46.5t45.5 -111.5q0 -64 -46.5 -110.5t-111.5 -46.5
q-63 0 -109 46.5t-46 110.5zM397 526q0 -183 35 -264q18 -41 57.5 -63.5t81.5 -22.5q89 0 129.5 84t40.5 270q0 211 -55 281q-42 55 -119 55q-49 0 -86.5 -28t-54.5 -78q-29 -89 -29 -234zM625 1300q0 64 47 111t112 47q63 0 108.5 -46.5t45.5 -111.5q0 -64 -46.5 -110.5
t-111.5 -46.5q-63 0 -109 46.5t-46 110.5z" />
    <glyph glyph-name="divide" unicode="&#xf7;" horiz-adv-x="1218" 
d="M92 438v215h1034v-215h-1034zM428 139q0 75 52.5 129t125.5 54t124.5 -54t51.5 -129q0 -72 -52 -122t-126 -50q-72 0 -124 50t-52 122zM432 954q0 74 51 127.5t123 53.5q73 0 125.5 -52.5t52.5 -126.5q0 -73 -52 -124.5t-126 -51.5q-72 0 -123 51t-51 123z" />
    <glyph glyph-name="oslash" unicode="&#xf8;" horiz-adv-x="1112" 
d="M82 520q0 247 129.5 398t341.5 151q125 0 223 -49l121 197l127 -72l-133 -215q139 -136 139 -402q0 -134 -31.5 -231t-99.5 -174q-130 -146 -346 -146q-117 0 -211 48l-119 -197l-127 72l127 211q-141 150 -141 409zM387 526q0 -20 6 -137l266 438q-42 39 -102 39
q-49 0 -86.5 -28t-54.5 -78q-29 -89 -29 -234zM457 213q46 -37 104 -37q89 0 129.5 84t40.5 270q0 86 -6 123z" />
    <glyph glyph-name="ugrave" unicode="&#xf9;" horiz-adv-x="1118" 
d="M154 352v672l270 51v-674q0 -126 22 -172q10 -21 38 -35t59 -14q51 0 103 31t67 70v737l262 55v-801q0 -115 63 -190l-194 -111q-55 40 -82 103q-104 -101 -277 -101q-110 0 -196.5 47.5t-112.5 122.5q-22 65 -22 209zM276 1346l119 213l424 -267l-84 -151z" />
    <glyph glyph-name="uacute" unicode="&#xfa;" horiz-adv-x="1118" 
d="M154 352v672l270 51v-674q0 -126 22 -172q10 -21 38 -35t59 -14q51 0 103 31t67 70v737l262 55v-801q0 -115 63 -190l-194 -111q-55 40 -82 103q-104 -101 -277 -101q-110 0 -196.5 47.5t-112.5 122.5q-22 65 -22 209zM348 1292l424 267l119 -213l-459 -205z" />
    <glyph glyph-name="ucircumflex" unicode="&#xfb;" horiz-adv-x="1118" 
d="M154 352v672l270 51v-674q0 -126 22 -172q10 -21 38 -35t59 -14q51 0 103 31t67 70v737l262 55v-801q0 -115 63 -190l-194 -111q-55 40 -82 103q-104 -101 -277 -101q-110 0 -196.5 47.5t-112.5 122.5q-22 65 -22 209zM199 1280l368 276l377 -276l-92 -150l-285 156
l-276 -156z" />
    <glyph glyph-name="udieresis" unicode="&#xfc;" horiz-adv-x="1118" 
d="M154 352v672l270 51v-674q0 -126 22 -172q10 -21 38 -35t59 -14q51 0 103 31t67 70v737l262 55v-801q0 -115 63 -190l-194 -111q-55 40 -82 103q-104 -101 -277 -101q-110 0 -196.5 47.5t-112.5 122.5q-22 65 -22 209zM186 1300q0 64 47.5 111t112.5 47q63 0 108.5 -46.5
t45.5 -111.5q0 -64 -46.5 -110.5t-111.5 -46.5q-63 0 -109.5 46.5t-46.5 110.5zM629 1300q0 64 47 111t112 47q63 0 108.5 -46.5t45.5 -111.5q0 -64 -46.5 -110.5t-111.5 -46.5q-63 0 -109 46.5t-46 110.5z" />
    <glyph glyph-name="yacute" unicode="&#xfd;" horiz-adv-x="1038" 
d="M10 1032l281 33l182 -612q7 -26 20 -78t23 -92.5t12 -46.5q0 5 12.5 68.5t20.5 98.5q16 68 41 146l158 500h289l-381 -1065q-53 -151 -98 -227.5t-103 -118.5q-107 -78 -254 -97l-94 180q115 31 170 70q42 31 78 86q25 39 59 123h-70q-86 255 -98 295zM330 1292l424 267
l118 -213l-458 -205z" />
    <glyph glyph-name="thorn" unicode="&#xfe;" horiz-adv-x="1142" 
d="M127 1452l281 66q10 -90 10 -187v-248q0 -68 -6 -92q78 84 223 84q192 0 304 -143t112 -389q0 -328 -195 -482q-102 -81 -229 -81q-138 0 -217 79v-440l-265 -70v1645q0 182 -18 258zM422 281q24 -21 40.5 -33t47 -23.5t65.5 -11.5q100 0 134 82q18 42 24 92t6 150
q0 124 -12 178q-15 66 -54 99.5t-95 33.5q-81 0 -156 -84v-483z" />
    <glyph glyph-name="ydieresis" unicode="&#xff;" horiz-adv-x="1038" 
d="M10 1032l281 33l182 -612q7 -26 20 -78t23 -92.5t12 -46.5q0 5 12.5 68.5t20.5 98.5q16 68 41 146l158 500h289l-381 -1065q-53 -151 -98 -227.5t-103 -118.5q-107 -78 -254 -97l-94 180q115 31 170 70q42 31 78 86q25 39 59 123h-70q-86 255 -98 295zM182 1300
q0 64 47.5 111t112.5 47q63 0 108.5 -46.5t45.5 -111.5q0 -64 -46.5 -110.5t-111.5 -46.5q-63 0 -109.5 46.5t-46.5 110.5zM614 1300q0 64 47.5 111t112.5 47q63 0 108.5 -46.5t45.5 -111.5q0 -64 -46.5 -110.5t-111.5 -46.5q-63 0 -109.5 46.5t-46.5 110.5z" />
    <glyph glyph-name="Amacron" unicode="&#x100;" horiz-adv-x="1212" 
d="M4 0l467 1427h309l449 -1427h-307l-101 338h-418l-100 -338h-299zM301 1532v188h643v-188h-643zM473 575h279q-47 150 -78 287l-58 252q-40 -168 -67 -274q-46 -175 -76 -265z" />
    <glyph glyph-name="amacron" unicode="&#x101;" horiz-adv-x="1069" 
d="M92 289q0 183 126 271.5t378 88.5q38 0 61 -2v43q0 90 -24.5 123t-97.5 33q-127 0 -304 -119l-116 197q68 43 170 86q145 61 286 61q132 0 219.5 -47t118.5 -135q12 -36 16 -73t3 -116l-6 -352q-2 -93 15.5 -138t82.5 -95l-146 -168q-105 45 -147 127q-40 -40 -63 -56
q-79 -57 -211 -57q-174 0 -267.5 85.5t-93.5 242.5zM221 1206v160h643v-160h-643zM385 299q0 -61 34 -99t87 -38q78 0 143 71l4 226h-12q-145 0 -200.5 -33.5t-55.5 -126.5z" />
    <glyph glyph-name="Abreve" unicode="&#x102;" horiz-adv-x="1212" 
d="M4 0l467 1427h309l449 -1427h-307l-101 338h-418l-100 -338h-299zM238 1733l88 110q29 -28 67.5 -55.5t107.5 -55.5t134 -28q126 0 301 139l74 -117q-21 -25 -49 -54.5t-84 -79t-122.5 -81.5t-127.5 -32q-49 0 -103 21.5t-97 52t-84.5 68.5t-65.5 65t-39 47zM473 575h279
q-47 150 -78 287l-58 252q-40 -168 -67 -274q-46 -175 -76 -265z" />
    <glyph glyph-name="abreve" unicode="&#x103;" horiz-adv-x="1069" 
d="M92 289q0 183 126 271.5t378 88.5q38 0 61 -2v43q0 90 -24.5 123t-97.5 33q-127 0 -304 -119l-116 197q68 43 170 86q145 61 286 61q132 0 219.5 -47t118.5 -135q12 -36 16 -73t3 -116l-6 -352q-2 -93 15.5 -138t82.5 -95l-146 -168q-105 45 -147 127q-40 -40 -63 -56
q-79 -57 -211 -57q-174 0 -267.5 85.5t-93.5 242.5zM154 1391l88 110q29 -28 67.5 -55.5t107.5 -55.5t134 -28q54 0 123.5 31t107 56.5t70.5 51.5l74 -117q-21 -25 -49 -54.5t-84 -79t-122.5 -81.5t-127.5 -32q-49 0 -103 21.5t-97 52t-84.5 68.5t-65.5 65t-39 47zM385 299
q0 -61 34 -99t87 -38q78 0 143 71l4 226h-12q-145 0 -200.5 -33.5t-55.5 -126.5z" />
    <glyph glyph-name="Aogonek" unicode="&#x104;" horiz-adv-x="1212" 
d="M-6 0l467 1427h309l449 -1427h-29q-81 0 -131.5 -54.5t-50.5 -117.5q0 -13 4 -29q14 -49 65 -49q45 0 109 31l57 -137q-127 -56 -227 -56q-96 0 -153.5 52.5t-57.5 136.5q0 59 30 119t76 104l-100 338h-418l-100 -338h-299zM463 575h278q-46 150 -77 287l-58 252
q-40 -168 -67 -274q-46 -175 -76 -265z" />
    <glyph glyph-name="aogonek" unicode="&#x105;" horiz-adv-x="1069" 
d="M82 289q0 183 126 271.5t378 88.5q38 0 61 -2v43q0 90 -25 123t-98 33q-126 0 -303 -119l-117 197q68 43 170 86q145 61 287 61q132 0 219.5 -47t118.5 -135q12 -36 16 -73t3 -116l-7 -391q-1 -69 28 -130.5t75 -102.5q-201 -142 -201 -254q0 -3 1 -8.5t1 -8.5
q3 -25 20 -40t46 -15q44 0 108 31l58 -137q-127 -56 -228 -56q-94 0 -152.5 51.5t-58.5 137.5q0 121 150 241q-26 26 -41 56q-37 -37 -64 -56q-79 -57 -211 -57q-174 0 -267 85.5t-93 242.5zM375 299q0 -61 34 -99t87 -38q78 0 143 71l4 226h-12q-145 0 -200.5 -33.5
t-55.5 -126.5z" />
    <glyph glyph-name="Cacute" unicode="&#x106;" horiz-adv-x="1175" 
d="M102 682q0 261 97 442q83 155 227.5 242.5t316.5 87.5q105 0 203.5 -31t157.5 -82l-129 -194q-109 80 -227 80q-72 0 -138 -33t-104 -90q-80 -119 -80 -367q0 -147 13.5 -235t45.5 -146q87 -159 275 -159q130 0 244 92l131 -180q-85 -69 -180 -101.5t-216 -32.5
q-292 0 -465 197q-172 193 -172 510zM467 1620l424 266l119 -213l-459 -205z" />
    <glyph glyph-name="cacute" unicode="&#x107;" horiz-adv-x="952" 
d="M102 516q0 173 58.5 295.5t156.5 189.5q53 35 124 56.5t137 21.5q116 0 202 -47q43 -22 103 -74l-133 -180q-88 82 -166 82q-93 0 -135.5 -84t-42.5 -268q0 -196 53 -264q47 -60 123 -60q89 0 188 86l16 15l125 -166q-48 -48 -96 -78q-114 -66 -256 -66
q-216 0 -336.5 143t-120.5 398zM326 1288l424 266l118 -213l-458 -204z" />
    <glyph glyph-name="Ccircumflex" unicode="&#x108;" horiz-adv-x="1175" 
d="M102 682q0 261 97 442q83 155 227.5 242.5t316.5 87.5q105 0 203.5 -31t157.5 -82l-129 -194q-109 80 -227 80q-72 0 -138 -33t-104 -90q-80 -119 -80 -367q0 -147 13.5 -235t45.5 -146q87 -159 275 -159q130 0 244 92l131 -180q-85 -69 -180 -101.5t-216 -32.5
q-292 0 -465 197q-172 193 -172 510zM373 1608l368 276l377 -276l-92 -150l-285 156l-276 -156z" />
    <glyph glyph-name="ccircumflex" unicode="&#x109;" horiz-adv-x="952" 
d="M102 516q0 173 58.5 295.5t156.5 189.5q53 35 124 56.5t137 21.5q116 0 202 -47q43 -22 103 -74l-133 -180q-88 82 -166 82q-93 0 -135.5 -84t-42.5 -268q0 -196 53 -264q47 -60 123 -60q89 0 188 86l16 15l125 -166q-48 -48 -96 -78q-114 -66 -256 -66
q-216 0 -336.5 143t-120.5 398zM209 1280l369 276l376 -276l-92 -150l-284 156l-277 -156z" />
    <glyph glyph-name="Cdotaccent" unicode="&#x10a;" horiz-adv-x="1175" 
d="M102 682q0 261 97 442q83 155 227.5 242.5t316.5 87.5q105 0 203.5 -31t157.5 -82l-129 -194q-109 80 -227 80q-72 0 -138 -33t-104 -90q-80 -119 -80 -367q0 -147 13.5 -235t45.5 -146q87 -159 275 -159q130 0 244 92l131 -180q-85 -69 -180 -101.5t-216 -32.5
q-292 0 -465 197q-172 193 -172 510zM575 1640q0 70 51 120t122 50q69 0 117 -49.5t48 -120.5q0 -70 -49.5 -120t-120.5 -50q-69 0 -118.5 50t-49.5 120z" />
    <glyph glyph-name="cdotaccent" unicode="&#x10b;" horiz-adv-x="952" 
d="M102 516q0 173 58.5 295.5t156.5 189.5q53 35 124 56.5t137 21.5q116 0 202 -47q43 -22 103 -74l-133 -180q-88 82 -166 82q-93 0 -135.5 -84t-42.5 -268q0 -196 53 -264q47 -60 123 -60q89 0 188 86l16 15l125 -166q-48 -48 -96 -78q-114 -66 -256 -66
q-216 0 -336.5 143t-120.5 398zM410 1337q0 70 50.5 120t121.5 50q69 0 117.5 -49.5t48.5 -120.5t-50 -120.5t-120 -49.5q-69 0 -118.5 50t-49.5 120z" />
    <glyph glyph-name="Ccaron" unicode="&#x10c;" horiz-adv-x="1175" 
d="M102 682q0 261 97 442q83 155 227.5 242.5t316.5 87.5q105 0 203.5 -31t157.5 -82l-129 -194q-109 80 -227 80q-72 0 -138 -33t-104 -90q-80 -119 -80 -367q0 -147 13.5 -235t45.5 -146q87 -159 275 -159q130 0 244 92l131 -180q-85 -69 -180 -101.5t-216 -32.5
q-292 0 -465 197q-172 193 -172 510zM346 1745l92 149l285 -155l276 155l93 -149l-369 -277z" />
    <glyph glyph-name="ccaron" unicode="&#x10d;" horiz-adv-x="952" 
d="M102 516q0 173 58.5 295.5t156.5 189.5q53 35 124 56.5t137 21.5q116 0 202 -47q43 -22 103 -74l-133 -180q-88 82 -166 82q-93 0 -135.5 -84t-42.5 -268q0 -196 53 -264q47 -60 123 -60q89 0 188 86l16 15l125 -166q-48 -48 -96 -78q-114 -66 -256 -66
q-216 0 -336.5 143t-120.5 398zM190 1413l93 150l284 -156l277 156l92 -150l-369 -276z" />
    <glyph glyph-name="Dcaron" unicode="&#x10e;" horiz-adv-x="1286" 
d="M164 0v1423h287q133 0 247 -8q186 -15 312 -141q194 -191 194 -567q0 -302 -143 -494q-65 -89 -156 -143.5t-190 -61.5q-106 -8 -205 -8h-346zM217 1745l92 149l285 -155l276 155l93 -149l-369 -277zM455 233h153q140 0 207.5 110t67.5 337q0 280 -72 399
q-36 60 -89.5 89.5t-135.5 29.5h-131v-965z" />
    <glyph glyph-name="dcaron" unicode="&#x10f;" horiz-adv-x="1144" 
d="M102 506q0 246 124.5 399.5t324.5 153.5q111 0 186 -60q-8 46 -8 156v361l272 -43v-1090q0 -294 39 -383h-245q-12 24 -17 61q-101 -88 -241 -88q-200 0 -317.5 144.5t-117.5 388.5zM408 504q0 -169 41.5 -234t148.5 -65q36 0 74.5 20t60.5 47v500q-77 68 -149 68
q-92 0 -134 -80.5t-42 -255.5zM1075 1112q56 17 88.5 47.5t34.5 63.5v4q0 9 -5 14t-19 11.5t-21 11.5q-68 41 -68 116q0 60 45 102t109 42q83 0 131.5 -54t48.5 -145q0 -108 -71 -192q-29 -35 -79.5 -68t-105.5 -47z" />
    <glyph glyph-name="Dcroat" unicode="&#x110;" horiz-adv-x="1286" 
d="M-2 627v182h156v614h286q134 0 248 -8q185 -15 311 -141q195 -192 195 -567q0 -302 -143 -494q-65 -89 -156 -143.5t-190 -61.5q-106 -8 -205 -8h-346v627h-156zM444 233h154q140 0 207 110t67 337q0 282 -71 399q-36 60 -89.5 89.5t-136.5 29.5h-131v-389h220l-50 -182
h-170v-394z" />
    <glyph glyph-name="dcroat" unicode="&#x111;" horiz-adv-x="1144" 
d="M92 506q0 246 124.5 399.5t324.5 153.5q111 0 186 -60q-8 46 -8 156v12h-227v160h227v189l272 -43v-146h144v-160h-144v-784q0 -294 39 -383h-246q-10 21 -16 61q-101 -88 -242 -88q-199 0 -316.5 144t-117.5 389zM397 504q0 -169 42 -234t149 -65q36 0 74.5 20t60.5 47
v500q-77 68 -150 68q-92 0 -134 -80.5t-42 -255.5z" />
    <glyph glyph-name="Emacron" unicode="&#x112;" horiz-adv-x="1034" 
d="M164 0v1423h811l-37 -233h-487v-330h407v-233h-403v-381h538v-246h-829zM246 1532v188h643v-188h-643z" />
    <glyph glyph-name="emacron" unicode="&#x113;" horiz-adv-x="1056" 
d="M102 514q0 141 31 240.5t100 175.5q126 141 330 141q91 0 171.5 -29t131.5 -81q72 -74 106 -184.5t34 -274.5v-64h-607v-8q0 -121 58 -187.5t164 -66.5q140 0 266 105l106 -164q-180 -146 -395 -146q-226 0 -361 148t-135 395zM248 1206v160h643v-160h-643zM403 639h318
v12q0 107 -33 158q-40 61 -121 61q-78 0 -121 -59t-43 -168v-4z" />
    <glyph glyph-name="Edotaccent" unicode="&#x116;" horiz-adv-x="1034" 
d="M164 0v1423h811l-37 -233h-487v-330h407v-233h-403v-381h538v-246h-829zM397 1638q0 70 50.5 120t121.5 50q69 0 117.5 -49.5t48.5 -120.5q0 -70 -49.5 -120t-120.5 -50q-69 0 -118.5 50t-49.5 120z" />
    <glyph glyph-name="edotaccent" unicode="&#x117;" horiz-adv-x="1056" 
d="M102 514q0 141 31 240.5t100 175.5q126 141 330 141q91 0 171.5 -29t131.5 -81q72 -74 106 -184.5t34 -274.5v-64h-607v-8q0 -121 58 -187.5t164 -66.5q140 0 266 105l106 -164q-180 -146 -395 -146q-226 0 -361 148t-135 395zM399 1337q0 70 50.5 120t121.5 50
q69 0 117.5 -49.5t48.5 -120.5t-49.5 -120.5t-120.5 -49.5q-69 0 -118.5 50t-49.5 120zM403 639h318v12q0 107 -33 158q-40 61 -121 61q-78 0 -121 -59t-43 -168v-4z" />
    <glyph glyph-name="Eogonek" unicode="&#x118;" horiz-adv-x="1034" 
d="M154 0v1423h811l-37 -233h-488v-330h408v-233h-404v-381h539v-246q-81 0 -131.5 -54.5t-50.5 -117.5q0 -13 4 -29q14 -49 65 -49q45 0 109 31l57 -137q-127 -56 -227 -56q-96 0 -153.5 52.5t-57.5 136.5q0 58 30.5 118.5t76.5 104.5h-551z" />
    <glyph glyph-name="eogonek" unicode="&#x119;" horiz-adv-x="1056" 
d="M92 514q0 141 31 240.5t100 175.5q126 141 330 141q91 0 171.5 -29t131.5 -81q72 -73 105.5 -184t33.5 -275v-64h-606v-8q0 -122 57.5 -188t163.5 -66q141 0 267 105l106 -164q-6 -6 -20 -16.5t-25 -17.5l-10 -7q-199 -145 -199 -254q0 -3 1 -8.5t1 -8.5q3 -25 20 -40
t46 -15q44 0 108 31l58 -137q-127 -56 -228 -56q-94 0 -152.5 51.5t-58.5 137.5q0 97 99 196q-6 0 -18 -1t-17 -1q-226 0 -361 148t-135 395zM393 639h318v12q0 107 -33 158q-40 61 -121 61q-78 0 -121 -61t-43 -170z" />
    <glyph glyph-name="Ecaron" unicode="&#x11a;" horiz-adv-x="1034" 
d="M164 0v1423h811l-37 -233h-487v-330h407v-233h-403v-381h538v-246h-829zM195 1745l92 149l284 -155l277 155l92 -149l-369 -277z" />
    <glyph glyph-name="ecaron" unicode="&#x11b;" horiz-adv-x="1056" 
d="M102 514q0 141 31 240.5t100 175.5q126 141 330 141q91 0 171.5 -29t131.5 -81q72 -74 106 -184.5t34 -274.5v-64h-607v-8q0 -121 58 -187.5t164 -66.5q140 0 266 105l106 -164q-180 -146 -395 -146q-226 0 -361 148t-135 395zM197 1413l92 150l284 -156l277 156l92 -150
l-369 -276zM403 639h318v12q0 107 -33 158q-40 61 -121 61q-78 0 -121 -59t-43 -168v-4z" />
    <glyph glyph-name="Gcircumflex" unicode="&#x11c;" horiz-adv-x="1335" 
d="M102 698q0 450 297 648q149 100 346 100q265 0 453 -164l-151 -178q-133 110 -297 110q-131 0 -205 -71q-68 -65 -94.5 -176t-26.5 -283q0 -299 106 -405q83 -80 224 -80q97 0 161 34v324h-217l-36 234h550v-680q-214 -127 -473 -127q-315 0 -485 217q-79 100 -115.5 219
t-36.5 278zM377 1608l368 276l377 -276l-92 -150l-285 156l-276 -156z" />
    <glyph glyph-name="gcircumflex" unicode="&#x11d;" horiz-adv-x="1153" 
d="M82 -102q0 58 24 106h254q-12 -30 -12 -67q0 -63 51 -96.5t146 -33.5q116 0 172 35q67 41 67 107q0 121 -192 125l-117 2q-178 3 -252 33q-80 29 -80 137q0 29 6.5 50.5t25 45.5t59 44t102.5 36q-225 58 -225 291q0 161 120.5 257.5t321.5 96.5q74 0 188 -27
q90 -22 129 -22q118 0 217 90l115 -174q-84 -78 -192 -78q-24 0 -72 6q61 -73 61 -172q0 -135 -110 -223t-277 -88q-21 0 -41 2q-57 -27 -82.5 -46t-25.5 -40q0 -25 45 -25l147 -2q121 -2 192 -22.5t126 -71.5q90 -84 90 -223q0 -127 -84 -217q-127 -135 -414 -135
q-277 0 -397 112q-86 80 -86 187zM203 1280l368 276l377 -276l-92 -150l-285 156l-276 -156zM387 711q0 -76 43 -113t119 -37q81 0 124.5 39t43.5 111q0 73 -44 114t-122 41t-121 -40.5t-43 -114.5z" />
    <glyph glyph-name="Gbreve" unicode="&#x11e;" horiz-adv-x="1335" 
d="M102 698q0 450 297 648q149 100 346 100q265 0 453 -164l-151 -178q-133 110 -297 110q-131 0 -205 -71q-68 -65 -94.5 -176t-26.5 -283q0 -299 106 -405q83 -80 224 -80q97 0 161 34v324h-217l-36 234h550v-680q-214 -127 -473 -127q-315 0 -485 217q-79 100 -115.5 219
t-36.5 278zM342 1733l88 110q29 -28 67.5 -55.5t107.5 -55.5t134 -28q54 0 123.5 31t107 56.5t70.5 51.5l74 -117q-21 -25 -49 -54.5t-84 -79t-122.5 -81.5t-127.5 -32q-49 0 -103 21.5t-97 52t-84.5 68.5t-65.5 65t-39 47z" />
    <glyph glyph-name="gbreve" unicode="&#x11f;" horiz-adv-x="1153" 
d="M82 -102q0 58 24 106h254q-12 -30 -12 -67q0 -63 51 -96.5t146 -33.5q116 0 172 35q67 41 67 107q0 121 -192 125l-117 2q-178 3 -252 33q-80 29 -80 137q0 29 6.5 50.5t25 45.5t59 44t102.5 36q-225 58 -225 291q0 161 120.5 257.5t321.5 96.5q74 0 188 -27
q90 -22 129 -22q118 0 217 90l115 -174q-84 -78 -192 -78q-24 0 -72 6q61 -73 61 -172q0 -135 -110 -223t-277 -88q-21 0 -41 2q-57 -27 -82.5 -46t-25.5 -40q0 -25 45 -25l147 -2q121 -2 192 -22.5t126 -71.5q90 -84 90 -223q0 -127 -84 -217q-127 -135 -414 -135
q-277 0 -397 112q-86 80 -86 187zM188 1391l88 110q51 -48 134 -93.5t176 -45.5q54 0 123.5 31t107 56.5t70.5 51.5l74 -117q-21 -25 -49 -54.5t-84 -79t-122.5 -81.5t-127.5 -32q-60 0 -126.5 31t-120 77t-88.5 82.5t-55 63.5zM387 711q0 -76 43 -113t119 -37
q81 0 124.5 39t43.5 111q0 73 -44 114t-122 41t-121 -40.5t-43 -114.5z" />
    <glyph glyph-name="Gdotaccent" unicode="&#x120;" horiz-adv-x="1335" 
d="M102 698q0 450 297 648q149 100 346 100q265 0 453 -164l-151 -178q-133 110 -297 110q-131 0 -205 -71q-68 -65 -94.5 -176t-26.5 -283q0 -299 106 -405q83 -80 224 -80q97 0 161 34v324h-217l-36 234h550v-680q-214 -127 -473 -127q-315 0 -485 217q-79 100 -115.5 219
t-36.5 278zM578 1640q0 70 50.5 120t121.5 50q69 0 117 -49.5t48 -120.5q0 -70 -49.5 -120t-120.5 -50q-69 0 -118 50t-49 120z" />
    <glyph glyph-name="gdotaccent" unicode="&#x121;" horiz-adv-x="1153" 
d="M82 -102q0 58 24 106h254q-12 -30 -12 -67q0 -63 51 -96.5t146 -33.5q116 0 172 35q67 41 67 107q0 121 -192 125l-117 2q-178 3 -252 33q-80 29 -80 137q0 29 6.5 50.5t25 45.5t59 44t102.5 36q-225 58 -225 291q0 161 120.5 257.5t321.5 96.5q74 0 188 -27
q90 -22 129 -22q118 0 217 90l115 -174q-84 -78 -192 -78q-24 0 -72 6q61 -73 61 -172q0 -135 -110 -223t-277 -88q-21 0 -41 2q-57 -27 -82.5 -46t-25.5 -40q0 -25 45 -25l147 -2q121 -2 192 -22.5t126 -71.5q90 -84 90 -223q0 -127 -84 -217q-127 -135 -414 -135
q-277 0 -397 112q-86 80 -86 187zM387 711q0 -76 43 -113t119 -37q81 0 124.5 39t43.5 111q0 73 -44 114t-122 41t-121 -40.5t-43 -114.5zM387 1337q0 70 50.5 120t121.5 50q69 0 117.5 -49.5t48.5 -120.5t-49.5 -120.5t-120.5 -49.5q-69 0 -118.5 50t-49.5 120z" />
    <glyph glyph-name="Gcommaaccent" unicode="&#x122;" horiz-adv-x="1335" 
d="M102 698q0 450 297 648q149 100 346 100q265 0 453 -164l-151 -178q-133 110 -297 110q-131 0 -205 -71q-68 -65 -94.5 -176t-26.5 -283q0 -299 106 -405q83 -80 224 -80q97 0 161 34v324h-217l-36 234h550v-680q-214 -127 -473 -127q-315 0 -485 217q-79 100 -115.5 219
t-36.5 278zM557 -502q56 17 88.5 47.5t34.5 63.5v4q0 9 -5 14t-19 11.5t-21 11.5q-68 41 -68 119q0 60 44.5 100.5t109.5 40.5q83 0 131.5 -54t48.5 -145q0 -107 -72 -192q-29 -35 -79 -68t-105 -47z" />
    <glyph glyph-name="gcommaaccent" unicode="&#x123;" horiz-adv-x="1153" 
d="M82 -102q0 58 24 106h254q-12 -30 -12 -67q0 -63 51 -96.5t146 -33.5q116 0 172 35q67 41 67 107q0 121 -192 125l-117 2q-178 3 -252 33q-80 29 -80 137q0 29 6.5 50.5t25 45.5t59 44t102.5 36q-225 58 -225 291q0 161 120.5 257.5t321.5 96.5q74 0 188 -27
q90 -22 129 -22q118 0 217 90l115 -174q-84 -78 -192 -78q-24 0 -72 6q61 -73 61 -172q0 -135 -110 -223t-277 -88q-21 0 -41 2q-57 -27 -82.5 -46t-25.5 -40q0 -25 45 -25l147 -2q121 -2 192 -22.5t126 -71.5q90 -84 90 -223q0 -127 -84 -217q-127 -135 -414 -135
q-277 0 -397 112q-86 80 -86 187zM385 1346q0 107 72 192q29 35 79 68t105 47l88 -94q-56 -17 -88.5 -47.5t-34.5 -63.5v-4q0 -9 5 -14t19 -11.5t21 -11.5q68 -41 68 -119q0 -60 -44.5 -100.5t-109.5 -40.5q-83 0 -131.5 54t-48.5 145zM387 711q0 -76 43 -113t119 -37
q81 0 124.5 39t43.5 111q0 73 -44 114t-122 41t-121 -40.5t-43 -114.5z" />
    <glyph glyph-name="Hcircumflex" unicode="&#x124;" horiz-adv-x="1292" 
d="M164 0v1423h285v-553h409v553h291v-1423h-291v635h-409v-635h-285zM287 1608l368 276l377 -276l-92 -150l-285 156l-276 -156z" />
    <glyph glyph-name="hcircumflex" unicode="&#x125;" horiz-adv-x="1177" 
d="M-72 1626l369 277l377 -277l-92 -149l-285 155l-277 -155zM143 1452l281 66q18 -86 18 -256v-209q0 -19 -2 -52t-2 -36q54 51 135.5 81.5t161.5 30.5q100 0 174 -40t99 -109q15 -46 20.5 -84t5.5 -111v-733h-268v705q0 78 -24.5 110.5t-82.5 32.5q-50 0 -110 -27
t-107 -69v-752h-278v1212q0 165 -21 240z" />
    <glyph glyph-name="Hbar" unicode="&#x126;" horiz-adv-x="1292" 
d="M10 1012v231h144v180h284v-180h410v180h291v-180h143v-231h-143v-1012h-291v635h-410v-635h-284v1012h-144zM438 870h410v142h-410v-142z" />
    <glyph glyph-name="hbar" unicode="&#x127;" horiz-adv-x="1177" 
d="M59 1128v172h93q-7 104 -19 152l281 66q15 -75 18 -218h316v-172h-316v-75q0 -19 -2 -52t-2 -36q54 51 135.5 81.5t161.5 30.5q100 0 173.5 -40t98.5 -109q16 -46 21.5 -84.5t5.5 -110.5v-733h-268v705q0 78 -24.5 110.5t-82.5 32.5q-50 0 -110 -27t-107 -69v-752h-278
v1128h-95z" />
    <glyph glyph-name="Imacron" unicode="&#x12a;" horiz-adv-x="606" 
d="M-4 1532v188h643v-188h-643zM164 0v1423h299v-1423h-299z" />
    <glyph glyph-name="imacron" unicode="&#x12b;" horiz-adv-x="581" 
d="M2 1206v160h643v-160h-643zM164 0v1030l274 43v-1073h-274z" />
    <glyph glyph-name="Iogonek" unicode="&#x12e;" horiz-adv-x="606" 
d="M47 -223q0 58 30.5 118.5t76.5 104.5v1423h299v-1423h-21q-81 0 -131.5 -54.5t-50.5 -117.5q0 -13 4 -29q14 -49 65 -49q45 0 109 31l57 -137q-127 -56 -227 -56q-96 0 -153.5 52.5t-57.5 136.5z" />
    <glyph glyph-name="iogonek" unicode="&#x12f;" horiz-adv-x="581" 
d="M47 -223q0 58 30.5 118.5t76.5 104.5v1030l274 43v-1073q-77 0 -127.5 -55t-50.5 -117q0 -13 4 -29q14 -49 65 -49q45 0 109 31l57 -137q-127 -56 -227 -56q-96 0 -153.5 52.5t-57.5 136.5zM123 1337q0 70 50.5 120t121.5 50q69 0 117.5 -49.5t48.5 -120.5t-49.5 -120.5
t-120.5 -49.5q-69 0 -118.5 50t-49.5 120z" />
    <glyph glyph-name="Idotaccent" unicode="&#x130;" horiz-adv-x="606" 
d="M145 1638q0 70 50.5 120t121.5 50q69 0 117.5 -49.5t48.5 -120.5q0 -70 -49.5 -120t-120.5 -50q-69 0 -118.5 50t-49.5 120zM164 0v1423h299v-1423h-299z" />
    <glyph glyph-name="dotlessi" unicode="&#x131;" horiz-adv-x="581" 
d="M154 0v1030l274 43v-1073h-274z" />
    <glyph glyph-name="Jcircumflex" unicode="&#x134;" horiz-adv-x="608" 
d="M-49 1608l368 276l377 -276l-92 -150l-285 156l-276 -156zM-20 -188q55 33 100.5 81t64.5 91q17 38 23 92t6 170v1177h291v-1147q0 -128 -4.5 -178.5t-16.5 -99.5q-19 -82 -76 -152.5t-120.5 -112.5t-134.5 -69z" />
    <glyph glyph-name="jcircumflex" unicode="&#x135;" horiz-adv-x="579" 
d="M-66 1280l369 276l377 -276l-92 -150l-285 156l-276 -156zM31 -299q64 52 100 119q33 59 33 200v986l272 65v-1042q0 -227 -78 -326q-75 -97 -213 -154z" />
    <glyph glyph-name="Kcommaaccent" unicode="&#x136;" horiz-adv-x="1224" 
d="M164 0v1423h293v-649l405 649h352l-454 -659l506 -764h-377l-432 743v-743h-293zM471 -502q56 17 88.5 47.5t34.5 63.5v4q0 9 -5 14t-19 11.5t-21 11.5q-68 41 -68 119q0 60 44.5 100.5t109.5 40.5q83 0 131.5 -54t48.5 -145q0 -107 -72 -192q-29 -35 -79 -68t-105 -47z
" />
    <glyph glyph-name="kcommaaccent" unicode="&#x137;" horiz-adv-x="1079" 
d="M145 1454l277 68q16 -104 16 -340v-1182h-274v1182q0 143 -19 272zM420 -502q56 17 88.5 47.5t34.5 63.5v4q0 9 -5 14t-19 11.5t-21 11.5q-68 41 -68 119q0 60 44.5 100.5t109.5 40.5q83 0 131.5 -54t48.5 -145q0 -107 -72 -192q-29 -35 -79 -68t-105 -47zM444 594
l269 455h329l-333 -439l411 -610h-323z" />
    <glyph glyph-name="Lacute" unicode="&#x139;" horiz-adv-x="976" 
d="M84 1620l424 266l119 -213l-459 -205zM164 0v1423h293v-1185h510l-52 -238h-751z" />
    <glyph glyph-name="lacute" unicode="&#x13a;" horiz-adv-x="595" 
d="M51 1649l424 266l119 -213l-459 -205zM150 1452l280 64q14 -80 14 -273v-817q0 -132 3.5 -171.5t15.5 -61.5q16 -29 55 -29q17 0 31 4l47 -164q-76 -29 -164 -29t-153.5 39t-90.5 105q-15 40 -19.5 82t-4.5 153v783q0 183 -14 315z" />
    <glyph glyph-name="Lcommaaccent" unicode="&#x13b;" horiz-adv-x="976" 
d="M164 0v1423h293v-1185h510l-52 -238h-751zM367 -502q56 17 88 47.5t34 63.5v4q0 9 -5 14t-19 11.5t-21 11.5q-67 40 -67 119q0 60 44 100.5t109 40.5q83 0 132 -54t49 -145q0 -107 -72 -192q-29 -35 -79 -68t-105 -47z" />
    <glyph glyph-name="lcommaaccent" unicode="&#x13c;" horiz-adv-x="595" 
d="M150 1452l280 64q14 -80 14 -273v-817q0 -132 3.5 -171.5t15.5 -61.5q16 -29 55 -29q17 0 31 4l47 -164q-76 -29 -164 -29t-153.5 39t-90.5 105q-15 40 -19.5 82t-4.5 153v783q0 183 -14 315zM205 -502q56 17 88.5 47.5t34.5 63.5v4q0 9 -5 14t-19 11.5t-21 11.5
q-68 41 -68 119q0 60 44.5 100.5t109.5 40.5q83 0 131.5 -54t48.5 -145q0 -107 -72 -192q-29 -35 -79 -68t-105 -47z" />
    <glyph glyph-name="Lcaron" unicode="&#x13d;" horiz-adv-x="976" 
d="M164 0v1423h293v-1185h510l-52 -238h-751zM600 1028q56 17 88.5 47.5t34.5 63.5v4q0 9 -5 14t-19 11.5t-21 11.5q-68 41 -68 118q0 60 44.5 101t109.5 41q83 0 131.5 -54t48.5 -145q0 -107 -72 -192q-29 -35 -79 -68t-105 -47z" />
    <glyph glyph-name="lcaron" unicode="&#x13e;" horiz-adv-x="595" 
d="M150 1452l280 64q14 -80 14 -273v-817q0 -132 3.5 -171.5t15.5 -61.5q16 -29 55 -29q17 0 31 4l47 -164q-76 -29 -164 -29t-153.5 39t-90.5 105q-15 40 -19.5 82t-4.5 153v783q0 183 -14 315zM526 1112q56 17 88.5 47.5t34.5 63.5v4q0 9 -5 14t-19 11.5t-21 11.5
q-67 40 -67 118q0 60 44 101t109 41q83 0 131.5 -54t48.5 -145q0 -108 -71 -192q-29 -35 -79.5 -68t-105.5 -47z" />
    <glyph glyph-name="Lslash" unicode="&#x141;" horiz-adv-x="976" 
d="M39 565v189l115 37v632h292v-536l304 98v-188l-304 -99v-460h510l-51 -238h-751v602z" />
    <glyph glyph-name="lslash" unicode="&#x142;" horiz-adv-x="595" 
d="M72 559v189l82 26v363q0 174 -15 315l281 64q14 -80 14 -273v-373l111 37v-188l-111 -37v-256q0 -132 3.5 -171.5t15.5 -61.5q16 -29 55 -29q17 0 31 4l47 -164q-76 -29 -164 -29t-153.5 39t-90.5 105q-15 40 -19.5 82t-4.5 153v232z" />
    <glyph glyph-name="Nacute" unicode="&#x143;" horiz-adv-x="1296" 
d="M164 0v1423h317l273 -569q101 -213 155 -403q-18 201 -22 391l-6 581h272v-1423h-299l-244 545q-154 342 -192 467q9 -105 14 -404l8 -608h-276zM424 1620l424 266l119 -213l-459 -205z" />
    <glyph glyph-name="nacute" unicode="&#x144;" horiz-adv-x="1134" 
d="M127 1006l244 69q39 -67 39 -131q75 53 120 78q85 45 189 45q88 0 157.5 -42t94.5 -110q20 -56 20 -149v-766h-270v682q0 90 -19 122t-73 32q-86 0 -191 -95v-741h-274v760q0 142 -37 246zM315 1288l424 266l119 -213l-459 -204z" />
    <glyph glyph-name="Ncommaaccent" unicode="&#x145;" horiz-adv-x="1296" 
d="M164 0v1423h317l273 -569q101 -213 155 -403q-18 201 -22 391l-6 581h272v-1423h-299l-244 545q-154 342 -192 467q9 -105 14 -404l8 -608h-276zM479 -502q56 17 88.5 47.5t34.5 63.5v4q0 9 -5 14t-19 11.5t-21 11.5q-68 41 -68 119q0 60 44.5 100.5t109.5 40.5
q83 0 131.5 -54t48.5 -145q0 -108 -71 -192q-29 -35 -79.5 -68t-105.5 -47z" />
    <glyph glyph-name="ncommaaccent" unicode="&#x146;" horiz-adv-x="1134" 
d="M127 1006l244 69q39 -67 39 -131q75 53 120 78q85 45 189 45q88 0 157.5 -42t94.5 -110q20 -56 20 -149v-766h-270v682q0 90 -19 122t-73 32q-86 0 -191 -95v-741h-274v760q0 142 -37 246zM410 -502q56 17 88 47.5t34 63.5v4q0 9 -5 14t-19 11.5t-21 11.5q-67 40 -67 119
q0 60 44 100.5t109 40.5q83 0 132 -54t49 -145q0 -107 -72 -192q-29 -35 -79 -68t-105 -47z" />
    <glyph glyph-name="Ncaron" unicode="&#x147;" horiz-adv-x="1296" 
d="M164 0v1423h317l273 -569q101 -213 155 -403q-18 201 -22 391l-6 581h272v-1423h-299l-244 545q-154 342 -192 467q9 -105 14 -404l8 -608h-276zM285 1745l92 149l285 -155l276 155l92 -149l-368 -277z" />
    <glyph glyph-name="ncaron" unicode="&#x148;" horiz-adv-x="1134" 
d="M127 1006l244 69q39 -67 39 -131q75 53 120 78q85 45 189 45q88 0 157.5 -42t94.5 -110q20 -56 20 -149v-766h-270v682q0 90 -19 122t-73 32q-86 0 -191 -95v-741h-274v760q0 142 -37 246zM201 1413l92 150l285 -156l276 156l92 -150l-368 -276z" />
    <glyph glyph-name="Omacron" unicode="&#x14c;" horiz-adv-x="1413" 
d="M102 707q0 231 84.5 405.5t237.5 259.5q131 70 295 70q284 0 448 -194t164 -529q0 -243 -81 -417.5t-236 -258.5q-65 -35 -130.5 -50.5t-154.5 -15.5q-161 0 -271 47.5t-192 153.5q-164 209 -164 529zM397 1532v188h643v-188h-643zM422 707q0 -371 127 -461
q67 -49 170 -49q149 0 215.5 121t66.5 393q0 214 -36 329q-10 30 -28.5 59t-47.5 58t-74.5 46.5t-99.5 17.5q-72 0 -131 -34t-90 -91q-72 -135 -72 -389z" />
    <glyph glyph-name="omacron" unicode="&#x14d;" horiz-adv-x="1112" 
d="M92 520q0 247 129.5 398t341.5 151q223 0 357 -158q63 -73 91.5 -164t28.5 -219q0 -134 -31.5 -231t-99.5 -174q-130 -146 -346 -146q-214 0 -342.5 148t-128.5 395zM256 1206v160h643v-160h-643zM397 526q0 -183 35 -264q18 -41 57.5 -63.5t81.5 -22.5q89 0 129.5 84
t40.5 270q0 211 -55 281q-42 55 -119 55q-49 0 -86.5 -28t-54.5 -78q-29 -89 -29 -234z" />
    <glyph glyph-name="Ohungarumlaut" unicode="&#x150;" horiz-adv-x="1413" 
d="M102 707q0 231 84.5 405.5t237.5 259.5q131 70 295 70q284 0 448 -194t164 -529q0 -243 -81 -417.5t-236 -258.5q-65 -35 -130.5 -50.5t-154.5 -15.5q-161 0 -271 47.5t-192 153.5q-164 209 -164 529zM391 1563l242 436l211 -129l-305 -402zM422 707q0 -371 127 -461
q67 -49 170 -49q149 0 215.5 121t66.5 393q0 214 -36 329q-10 30 -28.5 59t-47.5 58t-74.5 46.5t-99.5 17.5q-72 0 -131 -34t-90 -91q-72 -135 -72 -389zM836 1614l305 393l188 -160l-360 -350z" />
    <glyph glyph-name="ohungarumlaut" unicode="&#x151;" horiz-adv-x="1112" 
d="M92 520q0 247 129.5 398t341.5 151q223 0 357 -158q63 -73 91.5 -164t28.5 -219q0 -134 -31.5 -231t-99.5 -174q-130 -146 -346 -146q-214 0 -342.5 148t-128.5 395zM276 1206l170 469l228 -94l-238 -444zM397 526q0 -183 35 -264q18 -41 57.5 -63.5t81.5 -22.5
q89 0 129.5 84t40.5 270q0 211 -55 281q-42 55 -119 55q-49 0 -86.5 -28t-54.5 -78q-29 -89 -29 -234zM690 1237l240 436l209 -129l-301 -401z" />
    <glyph glyph-name="OE" unicode="&#x152;" horiz-adv-x="1732" 
d="M92 715q0 291 144 485q116 158 346 205q95 18 260 18h813l-37 -233h-485v-330h405v-233h-405v-381h548v-246h-835q-126 0 -197 4t-141 19t-119.5 44t-101.5 80q-195 189 -195 568zM434 741q0 -280 72 -399q36 -60 90 -89.5t135 -29.5q30 0 63 5.5t50 10.5l18 5v915
q-77 21 -153 21q-141 0 -208 -106.5t-67 -332.5z" />
    <glyph glyph-name="oe" unicode="&#x153;" horiz-adv-x="1662" 
d="M82 520q0 247 129.5 398t341.5 151q187 0 307 -108q117 108 299 108q91 0 171.5 -29.5t131.5 -81.5q72 -74 106 -184t34 -274v-64h-607v-8q0 -121 58 -187.5t164 -66.5q140 0 266 105l106 -164q-180 -146 -395 -146q-201 0 -330 117q-122 -109 -311 -109
q-214 0 -342.5 148t-128.5 395zM387 526q0 -183 35 -264q18 -41 57.5 -63.5t81.5 -22.5q89 0 129.5 84t40.5 270q0 211 -55 281q-42 55 -119 55q-49 0 -86.5 -28t-54.5 -78q-29 -89 -29 -234zM999 637h318q0 67 -7 104t-26 66q-40 61 -121 61q-78 0 -121 -59.5t-43 -171.5z
" />
    <glyph glyph-name="Racute" unicode="&#x154;" 
d="M164 0v1423h530q189 0 303.5 -114.5t114.5 -302.5q0 -160 -92.5 -275.5t-224.5 -118.5q39 -31 59 -59q36 -45 121.5 -183.5t152.5 -253.5l68 -116h-338q-81 138 -133 233q-109 198 -154 265t-82 84q-22 9 -45 12v-594h-280zM328 1620l424 266l118 -213l-458 -205z
M444 809h97q92 0 139 10.5t76 36.5q55 52 55 143q0 137 -102 175q-55 20 -162 20h-103v-385z" />
    <glyph glyph-name="racute" unicode="&#x155;" horiz-adv-x="731" 
d="M125 1008l246 65q37 -64 43 -149q110 149 245 149q50 0 103 -22l-76 -242q-39 20 -80 20q-92 0 -168 -88v-741h-274v700q0 208 -39 308zM168 1288l424 266l119 -213l-459 -204z" />
    <glyph glyph-name="Rcommaaccent" unicode="&#x156;" 
d="M164 0v1423h530q189 0 303.5 -114.5t114.5 -302.5q0 -160 -92.5 -275.5t-224.5 -118.5q39 -31 59 -59q36 -45 121.5 -183.5t152.5 -253.5l68 -116h-338q-81 138 -133 233q-109 198 -154 265t-82 84q-22 9 -45 12v-594h-280zM444 809h97q92 0 139 10.5t76 36.5
q55 52 55 143q0 137 -102 175q-55 20 -162 20h-103v-385zM465 -502q56 17 88.5 47.5t34.5 63.5v4q0 9 -5 14t-19 11.5t-21 11.5q-68 41 -68 119q0 60 44.5 100.5t109.5 40.5q83 0 131.5 -54t48.5 -145q0 -107 -72 -192q-29 -35 -79 -68t-105 -47z" />
    <glyph glyph-name="rcommaaccent" unicode="&#x157;" horiz-adv-x="731" 
d="M125 1008l246 65q37 -64 43 -149q110 149 245 149q50 0 103 -22l-76 -242q-39 20 -80 20q-92 0 -168 -88v-741h-274v700q0 208 -39 308zM133 -502q56 17 88.5 47.5t34.5 63.5v4q0 9 -5 14t-19 11.5t-21 11.5q-68 41 -68 119q0 60 44.5 100.5t109.5 40.5q83 0 131.5 -54
t48.5 -145q0 -108 -71 -192q-29 -35 -79.5 -68t-105.5 -47z" />
    <glyph glyph-name="Rcaron" unicode="&#x158;" 
d="M164 0v1423h530q189 0 303.5 -114.5t114.5 -302.5q0 -160 -92.5 -275.5t-224.5 -118.5q39 -31 59 -59q36 -45 121.5 -183.5t152.5 -253.5l68 -116h-338q-81 138 -133 233q-109 198 -154 265t-82 84q-22 9 -45 12v-594h-280zM223 1745l92 149l285 -155l277 155l92 -149
l-369 -277zM444 809h97q92 0 139 10.5t76 36.5q55 52 55 143q0 137 -102 175q-55 20 -162 20h-103v-385z" />
    <glyph glyph-name="rcaron" unicode="&#x159;" horiz-adv-x="731" 
d="M66 1413l92 150l284 -156l277 156l92 -150l-369 -276zM125 1008l246 65q37 -64 43 -149q110 149 245 149q50 0 103 -22l-76 -242q-39 20 -80 20q-92 0 -168 -88v-741h-274v700q0 208 -39 308z" />
    <glyph glyph-name="Sacute" unicode="&#x15a;" 
d="M82 98l106 224q110 -58 200.5 -86.5t191.5 -28.5q123 0 186 49.5t63 144.5q0 69 -45.5 114t-140.5 71l-158 43q-207 57 -280 180q-60 97 -60 217q0 195 142 317.5t368 122.5q130 0 255.5 -37.5t219.5 -105.5l-135 -205q-96 58 -173.5 83.5t-157.5 25.5q-88 0 -143.5 -46
t-55.5 -118q0 -56 34.5 -87t123.5 -56l172 -48q175 -47 267.5 -156t92.5 -267q0 -217 -161 -348.5t-427 -131.5q-122 0 -250 34t-235 95zM412 1620l424 266l118 -213l-458 -205z" />
    <glyph glyph-name="sacute" unicode="&#x15b;" horiz-adv-x="1005" 
d="M72 88l98 201q77 -47 172 -83t176 -36q59 0 99 34t40 85q0 53 -38.5 83.5t-122.5 45.5l-123 22q-51 9 -108 41t-85 66q-27 33 -43 84.5t-16 103.5q0 154 111 248t294 94q78 0 152.5 -16.5t117.5 -34t105 -47.5l-90 -184q-147 75 -258 75q-60 0 -96.5 -28t-36.5 -74
q0 -40 29.5 -63.5t101.5 -42.5l127 -33q89 -23 133 -50.5t76 -68.5q57 -72 57 -178q0 -163 -123.5 -264t-324.5 -101q-191 0 -424 121zM276 1288l424 266l119 -213l-459 -204z" />
    <glyph glyph-name="Scircumflex" unicode="&#x15c;" 
d="M82 98l106 224q110 -58 200.5 -86.5t191.5 -28.5q123 0 186 49.5t63 144.5q0 69 -45.5 114t-140.5 71l-158 43q-207 57 -280 180q-60 97 -60 217q0 195 142 317.5t368 122.5q130 0 255.5 -37.5t219.5 -105.5l-135 -205q-96 58 -173.5 83.5t-157.5 25.5q-88 0 -143.5 -46
t-55.5 -118q0 -56 34.5 -87t123.5 -56l172 -48q175 -47 267.5 -156t92.5 -267q0 -217 -161 -348.5t-427 -131.5q-122 0 -250 34t-235 95zM281 1608l368 276l377 -276l-92 -150l-285 156l-276 -156z" />
    <glyph glyph-name="scircumflex" unicode="&#x15d;" horiz-adv-x="1005" 
d="M72 88l98 201q77 -47 172 -83t176 -36q59 0 99 34t40 85q0 53 -38.5 83.5t-122.5 45.5l-123 22q-51 9 -108 41t-85 66q-27 33 -43 84.5t-16 103.5q0 154 111 248t294 94q78 0 152.5 -16.5t117.5 -34t105 -47.5l-90 -184q-147 75 -258 75q-60 0 -96.5 -28t-36.5 -74
q0 -40 29.5 -63.5t101.5 -42.5l127 -33q89 -23 133 -50.5t76 -68.5q57 -72 57 -178q0 -163 -123.5 -264t-324.5 -101q-191 0 -424 121zM158 1280l368 276l377 -276l-92 -150l-285 156l-276 -156z" />
    <glyph glyph-name="Scedilla" unicode="&#x15e;" 
d="M72 98l106 224q110 -58 200.5 -86.5t190.5 -28.5q123 0 186.5 49.5t63.5 144.5q0 69 -45.5 114t-140.5 71l-158 43q-207 57 -280 180q-60 97 -60 217q0 195 142 317.5t368 122.5q130 0 255.5 -37.5t219.5 -105.5l-135 -205q-180 109 -332 109q-88 0 -143 -46t-55 -118
q0 -56 34 -87t123 -56l172 -48q175 -47 268 -156t93 -267q0 -197 -136.5 -325.5t-367.5 -150.5l-14 -39q74 -7 110.5 -51.5t36.5 -109.5q0 -78 -59.5 -129.5t-163.5 -51.5q-42 0 -92.5 15.5t-85.5 34.5l61 129q5 -2 19 -8.5t21 -9t19 -6.5t23.5 -5.5t24.5 -1.5q21 0 36 12
t15 25q0 41 -51 41q-10 0 -19.5 -2.5t-20 -6t-16.5 -4.5l-26 41l35 125q-229 16 -422 127z" />
    <glyph glyph-name="scedilla" unicode="&#x15f;" horiz-adv-x="1005" 
d="M61 88l99 201q77 -47 172 -83t176 -36q59 0 99 34t40 85q0 53 -39 83.5t-123 45.5l-123 22q-51 9 -107.5 40.5t-84.5 66.5q-27 33 -43 84.5t-16 103.5q0 154 111 248t294 94q78 0 152.5 -16.5t117.5 -34t105 -47.5l-90 -184q-147 75 -258 75q-60 0 -96.5 -28t-36.5 -74
q0 -40 29.5 -63.5t101.5 -42.5l127 -33q89 -23 133 -50.5t76 -68.5q57 -72 57 -178q0 -152 -108.5 -250.5t-288.5 -112.5l-13 -35q74 -7 111 -52t37 -109q0 -78 -59.5 -129.5t-163.5 -51.5q-43 0 -94 15.5t-85 34.5l62 129q6 -2 19 -8t20 -9t19 -7t23.5 -5.5t24.5 -1.5
q21 0 36 12t15 25q0 41 -51 41q-10 0 -19.5 -2.5t-19.5 -6t-16 -4.5l-27 41l35 127q-149 20 -330 115z" />
    <glyph glyph-name="Scaron" unicode="&#x160;" 
d="M82 98l106 224q110 -58 200.5 -86.5t191.5 -28.5q123 0 186 49.5t63 144.5q0 69 -45.5 114t-140.5 71l-158 43q-207 57 -280 180q-60 97 -60 217q0 195 142 317.5t368 122.5q130 0 255.5 -37.5t219.5 -105.5l-135 -205q-96 58 -173.5 83.5t-157.5 25.5q-88 0 -143.5 -46
t-55.5 -118q0 -56 34.5 -87t123.5 -56l172 -48q175 -47 267.5 -156t92.5 -267q0 -217 -161 -348.5t-427 -131.5q-122 0 -250 34t-235 95zM260 1780l92 149l285 -155l276 155l93 -149l-369 -277z" />
    <glyph glyph-name="scaron" unicode="&#x161;" horiz-adv-x="1005" 
d="M72 88l98 201q77 -47 172 -83t176 -36q59 0 99 34t40 85q0 53 -38.5 83.5t-122.5 45.5l-123 22q-51 9 -108 41t-85 66q-27 33 -43 84.5t-16 103.5q0 154 111 248t294 94q78 0 152.5 -16.5t117.5 -34t105 -47.5l-90 -184q-147 75 -258 75q-60 0 -96.5 -28t-36.5 -74
q0 -40 29.5 -63.5t101.5 -42.5l127 -33q89 -23 133 -50.5t76 -68.5q57 -72 57 -178q0 -163 -123.5 -264t-324.5 -101q-191 0 -424 121zM129 1411l92 150l285 -156l276 156l92 -150l-368 -276z" />
    <glyph glyph-name="Tcommaaccent" unicode="&#x162;" horiz-adv-x="1026" 
d="M31 1186v237h1026l-47 -237h-340v-1186h-66l-24 -66q74 -7 110.5 -51.5t36.5 -109.5q0 -78 -59.5 -129.5t-163.5 -51.5q-42 0 -92.5 15.5t-85.5 34.5l61 129q5 -2 19 -8.5t21 -9t19 -6.5t23.5 -5.5t24.5 -1.5q21 0 36 12t15 25q0 41 -51 41q-10 0 -19.5 -2.5t-20 -6
t-16.5 -4.5l-26 41l41 154h-74v1186h-348z" />
    <glyph glyph-name="tcommaaccent" unicode="&#x163;" horiz-adv-x="718" 
d="M49 860v189h105q0 169 10 247l278 70q-16 -154 -16 -317h246l-70 -189h-176v-526q0 -100 24 -134t95 -34q28 0 98 20l35 -163q-71 -31 -152 -41l-16 -48q74 -7 110.5 -51.5t36.5 -109.5q0 -78 -59.5 -129.5t-163.5 -51.5q-42 0 -92.5 15.5t-85.5 34.5l61 129
q5 -2 19 -8.5t21 -9t19 -6.5t23.5 -5.5t24.5 -1.5q21 0 36 12t15 25q0 41 -51 41q-10 0 -19.5 -2.5t-19.5 -6t-16 -4.5l-27 41l37 136q-77 14 -132 52.5t-75 94.5q-12 33 -15 61t-3 101v569h-105z" />
    <glyph glyph-name="Tcaron" unicode="&#x164;" horiz-adv-x="1026" 
d="M41 1186v237h1026l-47 -237h-340v-1186h-291v1186h-348zM156 1745l92 149l284 -155l277 155l92 -149l-369 -277z" />
    <glyph glyph-name="tcaron" unicode="&#x165;" horiz-adv-x="718" 
d="M59 860v189h105q0 169 10 247l279 70q-17 -163 -17 -317h246l-70 -189h-176v-526q0 -100 24 -134t95 -34q28 0 98 20l35 -163q-116 -48 -223 -48q-104 0 -181 42.5t-102 111.5q-12 33 -15 61t-3 101v569h-105zM537 1214q56 17 88 47.5t34 63.5v4q0 9 -5 14t-19 11.5
t-21 11.5q-67 40 -67 119q0 60 44 100.5t109 40.5q83 0 132 -54t49 -145q0 -107 -72 -192q-29 -35 -79 -68t-105 -47z" />
    <glyph glyph-name="Umacron" unicode="&#x16a;" horiz-adv-x="1323" 
d="M160 432v991h293v-936q0 -123 24 -170q51 -98 195 -98q94 0 151 44t66 122q4 31 4 127v911h291v-958q0 -101 -4 -139t-19 -84q-12 -36 -34.5 -71.5t-63 -72t-93 -63.5t-128.5 -44.5t-164 -17.5q-163 0 -280 48.5t-177 142.5q-36 56 -48.5 111t-12.5 157zM350 1532v188
h643v-188h-643z" />
    <glyph glyph-name="umacron" unicode="&#x16b;" horiz-adv-x="1118" 
d="M154 352v672l270 51v-674q0 -126 22 -172q10 -21 38 -35t59 -14q51 0 103 31t67 70v737l262 55v-801q0 -115 63 -190l-194 -111q-55 40 -82 103q-104 -101 -277 -101q-110 0 -196.5 47.5t-112.5 122.5q-22 65 -22 209zM250 1206v160h643v-160h-643z" />
    <glyph glyph-name="Ubreve" unicode="&#x16c;" horiz-adv-x="1323" 
d="M160 432v991h293v-936q0 -123 24 -170q51 -98 195 -98q94 0 151 44t66 122q4 31 4 127v911h291v-958q0 -101 -4 -139t-19 -84q-12 -36 -34.5 -71.5t-63 -72t-93 -63.5t-128.5 -44.5t-164 -17.5q-163 0 -280 48.5t-177 142.5q-36 56 -48.5 111t-12.5 157zM289 1733l88 110
q29 -28 67.5 -55.5t107.5 -55.5t134 -28q126 0 301 139l74 -117q-21 -25 -49 -54.5t-84 -79t-122.5 -81.5t-127.5 -32q-49 0 -103 21.5t-97 52t-84.5 68.5t-65.5 65t-39 47z" />
    <glyph glyph-name="ubreve" unicode="&#x16d;" horiz-adv-x="1118" 
d="M154 352v672l270 51v-674q0 -126 22 -172q10 -21 38 -35t59 -14q51 0 103 31t67 70v737l262 55v-801q0 -115 63 -190l-194 -111q-55 40 -82 103q-104 -101 -277 -101q-110 0 -196.5 47.5t-112.5 122.5q-22 65 -22 209zM209 1470l74 91q28 -26 62 -51.5t98.5 -54
t123.5 -28.5q113 0 277 134l63 -91q-11 -16 -31.5 -40t-57.5 -59.5t-76 -64.5t-88.5 -50t-94.5 -21q-56 0 -116.5 30t-109.5 74.5t-78 75.5t-46 55z" />
    <glyph glyph-name="Uring" unicode="&#x16e;" horiz-adv-x="1323" 
d="M160 432v991h293v-936q0 -123 24 -170q51 -98 195 -98q94 0 151 44t66 122q4 31 4 127v911h291v-958q0 -101 -4 -139t-19 -84q-12 -36 -34.5 -71.5t-63 -72t-93 -63.5t-128.5 -44.5t-164 -17.5q-163 0 -280 48.5t-177 142.5q-36 56 -48.5 111t-12.5 157zM459 1679
q0 89 64.5 153t152.5 64t150.5 -64t62.5 -153t-64 -153t-153 -64q-88 0 -150.5 64t-62.5 153zM569 1679q0 -43 30.5 -73.5t72.5 -30.5q43 0 73.5 30.5t30.5 73.5t-29.5 74t-70.5 31q-44 0 -75.5 -31t-31.5 -74z" />
    <glyph glyph-name="uring" unicode="&#x16f;" horiz-adv-x="1118" 
d="M154 352v672l270 51v-674q0 -126 22 -172q10 -21 38 -35t59 -14q51 0 103 31t67 70v737l262 55v-801q0 -115 63 -190l-194 -111q-55 40 -82 103q-104 -101 -277 -101q-110 0 -196.5 47.5t-112.5 122.5q-22 65 -22 209zM371 1354q0 89 64.5 153t152.5 64t150.5 -64
t62.5 -153t-64 -153t-153 -64q-88 0 -150.5 64t-62.5 153zM481 1354q0 -43 31 -74t72 -31q43 0 73.5 31t30.5 74t-29.5 73.5t-70.5 30.5q-44 0 -75.5 -30.5t-31.5 -73.5z" />
    <glyph glyph-name="Uhungarumlaut" unicode="&#x170;" horiz-adv-x="1323" 
d="M160 432v991h293v-936q0 -123 24 -170q51 -98 195 -98q94 0 151 44t66 122q4 31 4 127v911h291v-958q0 -101 -4 -139t-19 -84q-12 -36 -34.5 -71.5t-63 -72t-93 -63.5t-128.5 -44.5t-164 -17.5q-163 0 -280 48.5t-177 142.5q-36 56 -48.5 111t-12.5 157zM344 1563
l242 436l211 -129l-305 -402zM788 1614l306 393l188 -160l-360 -350z" />
    <glyph glyph-name="uhungarumlaut" unicode="&#x171;" horiz-adv-x="1118" 
d="M154 352v672l270 51v-674q0 -126 22 -172q10 -21 38 -35t59 -14q51 0 103 31t67 70v737l262 55v-801q0 -115 63 -190l-194 -111q-55 40 -82 103q-104 -101 -277 -101q-110 0 -196.5 47.5t-112.5 122.5q-22 65 -22 209zM289 1206l170 469l227 -94l-237 -444zM702 1237
l240 436l209 -129l-301 -401z" />
    <glyph glyph-name="Uogonek" unicode="&#x172;" horiz-adv-x="1323" 
d="M150 432v991h292v-936q0 -122 25 -170q51 -98 195 -98q94 0 151 44t66 122q4 31 4 127v911h291v-958q0 -101 -4 -139t-19 -84q-29 -91 -116.5 -158.5t-184.5 -89.5q-69 -15 -117.5 -66.5t-48.5 -105.5q0 -3 1 -8.5t1 -8.5q3 -25 20 -40t46 -15q44 0 108 31l58 -137
q-127 -56 -228 -56q-94 0 -152.5 51.5t-58.5 137.5q0 98 94 200q-258 24 -362 187q-36 56 -48.5 111t-12.5 157z" />
    <glyph glyph-name="uogonek" unicode="&#x173;" horiz-adv-x="1118" 
d="M143 352v672l271 51v-674q0 -126 22 -172q10 -22 37.5 -35.5t58.5 -13.5q51 0 103 31t67 70v737l263 55v-801q0 -52 19 -107.5t50 -92.5q-194 -138 -194 -248q0 -3 1 -9.5t1 -9.5q7 -55 65 -55q45 0 109 31l57 -137q-127 -56 -227 -56q-94 0 -152.5 51.5t-58.5 137.5
q0 121 149 241q-21 27 -32 56q-104 -101 -277 -101q-110 0 -196.5 47.5t-112.5 122.5q-23 68 -23 209z" />
    <glyph glyph-name="Ydieresis" unicode="&#x178;" horiz-adv-x="1114" 
d="M-31 1423h344l183 -389q44 -93 71 -182q31 78 76 178l184 393h338l-454 -837v-586h-299v586zM188 1628q0 64 47.5 111t112.5 47q63 0 108.5 -46.5t45.5 -111.5q0 -64 -47 -111t-111 -47q-63 0 -109.5 47t-46.5 111zM621 1628q0 64 47 111t112 47q63 0 108.5 -46.5
t45.5 -111.5q0 -64 -47 -111t-111 -47q-63 0 -109 47t-46 111z" />
    <glyph glyph-name="Zacute" unicode="&#x179;" horiz-adv-x="1105" 
d="M82 0v201l524 866q17 29 39 61.5t35 49.5l14 18q-59 -10 -145 -10h-438l63 237h852v-206l-528 -891q-14 -23 -32.5 -48t-29.5 -39l-12 -14q84 8 141 8h479l-73 -233h-889zM336 1620l424 266l119 -213l-459 -205z" />
    <glyph glyph-name="zacute" unicode="&#x17a;" horiz-adv-x="980" 
d="M82 0v170l493 686h-452v193h778v-189l-463 -670h482l-66 -190h-772zM246 1288l424 266l118 -213l-458 -204z" />
    <glyph glyph-name="Zdotaccent" unicode="&#x17b;" horiz-adv-x="1105" 
d="M82 0v201l524 866q17 29 39 61.5t35 49.5l14 18q-59 -10 -145 -10h-438l63 237h852v-206l-528 -891q-14 -23 -32.5 -48t-29.5 -39l-12 -14q84 8 141 8h479l-73 -233h-889zM424 1638q0 70 50.5 120t121.5 50q69 0 117.5 -49.5t48.5 -120.5q0 -70 -50 -120t-120 -50
q-69 0 -118.5 50t-49.5 120z" />
    <glyph glyph-name="zdotaccent" unicode="&#x17c;" horiz-adv-x="980" 
d="M82 0v170l493 686h-452v193h778v-189l-463 -670h482l-66 -190h-772zM352 1337q0 70 50.5 120t121.5 50q69 0 117.5 -49.5t48.5 -120.5t-50 -120.5t-120 -49.5q-69 0 -118.5 50t-49.5 120z" />
    <glyph glyph-name="Zcaron" unicode="&#x17d;" horiz-adv-x="1105" 
d="M82 0v201l524 866q17 29 39 61.5t35 49.5l14 18q-59 -10 -145 -10h-438l63 237h852v-206l-528 -891q-14 -23 -32.5 -48t-29.5 -39l-12 -14q84 8 141 8h479l-73 -233h-889zM186 1780l93 149l284 -155l277 155l92 -149l-369 -277z" />
    <glyph glyph-name="zcaron" unicode="&#x17e;" horiz-adv-x="980" 
d="M82 0v170l493 686h-452v193h778v-189l-463 -670h482l-66 -190h-772zM135 1411l92 150l285 -156l276 156l93 -150l-369 -276z" />
    <glyph glyph-name="longs" unicode="&#x17f;" horiz-adv-x="741" 
d="M16 836v213h168v65q0 104 19 166.5t84 122.5q86 80 213 104q64 11 112 11q99 0 234 -64l-113 -188q-66 41 -123 41q-53 0 -91.5 -34t-49.5 -87q-6 -31 -6 -144v-1042h-279v836h-168z" />
    <glyph glyph-name="florin" unicode="&#x192;" horiz-adv-x="659" 
d="M-14 -264q55 42 81 66t48.5 56.5t30.5 68.5t12 93l55 836h-88v193h106q0 26 3.5 79t3.5 64q9 156 94 241t235 85q119 0 221 -66l-83 -170q-39 22 -59.5 28.5t-45.5 6.5q-48 0 -80.5 -31.5t-36.5 -87.5l-10 -149h242l-66 -193h-184l-55 -786q-12 -169 -45 -258.5
t-76.5 -131.5t-170.5 -127q-3 -3 -5 -4z" />
    <glyph glyph-name="Scommaaccent" unicode="&#x218;" 
d="M82 98l106 224q110 -58 200.5 -86.5t191.5 -28.5q123 0 186 49.5t63 144.5q0 69 -45.5 114t-140.5 71l-158 43q-207 57 -280 180q-60 97 -60 217q0 195 142 317.5t368 122.5q130 0 255.5 -37.5t219.5 -105.5l-135 -205q-96 58 -173.5 83.5t-157.5 25.5q-88 0 -143.5 -46
t-55.5 -118q0 -56 34.5 -87t123.5 -56l172 -48q175 -47 267.5 -156t92.5 -267q0 -217 -161 -348.5t-427 -131.5q-122 0 -250 34t-235 95zM440 -502q56 17 88.5 47.5t34.5 63.5v4q0 9 -5 14t-19 11.5t-21 11.5q-67 40 -67 119q0 60 44 100.5t109 40.5q83 0 131.5 -54
t48.5 -145q0 -108 -71 -192q-29 -35 -79.5 -68t-105.5 -47z" />
    <glyph glyph-name="scommaaccent" unicode="&#x219;" horiz-adv-x="1005" 
d="M72 88l98 201q77 -47 172 -83t176 -36q59 0 99 34t40 85q0 53 -38.5 83.5t-122.5 45.5l-123 22q-51 9 -108 41t-85 66q-27 33 -43 84.5t-16 103.5q0 154 111 248t294 94q78 0 152.5 -16.5t117.5 -34t105 -47.5l-90 -184q-147 75 -258 75q-60 0 -96.5 -28t-36.5 -74
q0 -40 29.5 -63.5t101.5 -42.5l127 -33q89 -23 133 -50.5t76 -68.5q57 -72 57 -178q0 -163 -123.5 -264t-324.5 -101q-191 0 -424 121zM340 -502q56 17 88.5 47.5t34.5 63.5v4q0 9 -5 14t-19 11.5t-21 11.5q-68 41 -68 119q0 60 44.5 100.5t109.5 40.5q83 0 131.5 -54
t48.5 -145q0 -107 -72 -192q-29 -35 -79 -68t-105 -47z" />
    <glyph glyph-name="uni021B" unicode="&#x21b;" horiz-adv-x="718" 
d="M49 860v189h105q0 169 10 247l278 70q-16 -154 -16 -317h246l-70 -189h-176v-526q0 -100 24 -134t95 -34q28 0 98 20l35 -163q-116 -48 -223 -48q-104 0 -181 42.5t-102 111.5q-12 33 -15 61t-3 101v569h-105zM287 -502q56 17 88.5 47.5t34.5 63.5v4q0 9 -5 14t-19 11.5
t-21 11.5q-68 41 -68 119q0 60 44.5 100.5t109.5 40.5q83 0 131.5 -54t48.5 -145q0 -107 -72 -192q-29 -35 -79 -68t-105 -47z" />
    <glyph glyph-name="circumflex" unicode="&#x2c6;" horiz-adv-x="847" 
d="M51 1280l369 276l377 -276l-92 -150l-285 156l-277 -156z" />
    <glyph glyph-name="caron" unicode="&#x2c7;" horiz-adv-x="847" 
d="M51 1411l92 150l285 -156l277 156l92 -150l-369 -276z" />
    <glyph glyph-name="breve" unicode="&#x2d8;" horiz-adv-x="800" 
d="M51 1419l74 90q27 -26 62 -51.5t99.5 -53.5t123.5 -28q113 0 276 133l64 -90q-15 -21 -45.5 -54t-78.5 -77t-109 -74t-116 -30q-56 0 -116.5 30t-109.5 74.5t-78 75.5t-46 55z" />
    <glyph glyph-name="dotaccent" unicode="&#x2d9;" horiz-adv-x="440" 
d="M51 1337q0 70 50.5 120t121.5 50q69 0 117.5 -49.5t48.5 -120.5t-49.5 -120.5t-120.5 -49.5q-69 0 -118.5 50t-49.5 120z" />
    <glyph glyph-name="ring" unicode="&#x2da;" horiz-adv-x="532" 
d="M51 1350q0 89 64.5 153t152.5 64t150.5 -64t62.5 -153t-64 -153t-153 -64q-88 0 -150.5 64t-62.5 153zM162 1350q0 -43 30.5 -74t71.5 -31q43 0 74 31t31 74t-30 73.5t-71 30.5q-44 0 -75 -30.5t-31 -73.5z" />
    <glyph glyph-name="ogonek" unicode="&#x2db;" horiz-adv-x="626" 
d="M113 -227q0 51 18 101t45 86t48 58t38 35l146 -82q-27 -26 -39.5 -39t-33 -38.5t-29.5 -50t-9 -50.5q0 -22 14 -37.5t35 -15.5q13 0 24.5 1.5t23.5 5.5t19 6.5t21 9t19 8.5l61 -129q-35 -19 -85.5 -34.5t-92.5 -15.5q-104 0 -163.5 51.5t-59.5 129.5z" />
    <glyph glyph-name="tilde" unicode="&#x2dc;" horiz-adv-x="847" 
d="M51 1354q94 119 254 119q61 0 135 -35t133 -35q85 0 140 61l84 -155q-47 -62 -106 -90.5t-148 -28.5q-63 0 -136.5 35t-132.5 35q-82 0 -139 -60z" />
    <glyph glyph-name="hungarumlaut" unicode="&#x2dd;" horiz-adv-x="964" 
d="M51 1143l170 469l228 -94l-238 -445zM465 1174l240 436l208 -129l-301 -402z" />
    <glyph glyph-name="Omega" unicode="&#x3a9;" horiz-adv-x="1466" 
d="M100 750q0 148 41.5 273.5t120.5 219t201 146.5t274 53q285 0 457 -184t172 -508q0 -141 -77 -288t-179 -229h244l-51 -233h-512v205q108 102 178.5 263.5t70.5 297.5q0 455 -307 455q-75 0 -132 -29.5t-90.5 -75t-54.5 -109.5t-28.5 -123.5t-7.5 -125.5
q0 -138 69 -293.5t181 -259.5v-205h-557l51 233h186q-102 83 -176 230t-74 287z" />
    <glyph glyph-name="pi" unicode="&#x3c0;" horiz-adv-x="1144" 
d="M41 852v197h1069l-72 -197h-82v-533q0 -86 17.5 -117.5t91.5 -86.5l-145 -168q-110 40 -172 125t-62 202v578h-258v-852h-274v852h-113z" />
    <glyph glyph-name="afii10023" unicode="&#x401;" horiz-adv-x="1034" 
d="M154 0v1423h811l-37 -233h-488v-330h408v-233h-404v-381h539v-246h-829zM168 1659q0 63 48.5 110.5t111.5 47.5t108 -47.5t45 -110.5t-46.5 -110.5t-110.5 -47.5q-62 0 -109 47.5t-47 110.5zM600 1659q0 63 47 110.5t113 47.5q63 0 108 -46.5t45 -111.5
q0 -63 -46.5 -110.5t-110.5 -47.5t-110 47t-46 111z" />
    <glyph glyph-name="afii10051" unicode="&#x402;" horiz-adv-x="1439" 
d="M31 1186v237h1026l-47 -237h-367v-348q153 63 289 63q152 0 252 -92q78 -71 105.5 -161t27.5 -204q0 -252 -113 -370q-94 -99 -248 -99q-98 0 -182 31l-29 10l46 203q14 -7 47 -18t59 -11q31 0 53.5 12t33.5 28.5t17.5 43.5t7.5 46.5t1 48.5v75q0 138 -49 187
q-43 43 -127 43q-99 0 -191 -43v-631h-291v1186h-321z" />
    <glyph glyph-name="afii10052" unicode="&#x403;" horiz-adv-x="950" 
d="M154 0v1423h776l-33 -231h-453v-1192h-290zM244 1653l424 266l118 -213l-458 -205z" />
    <glyph glyph-name="afii10053" unicode="&#x404;" horiz-adv-x="1177" 
d="M92 717q0 336 160 528q171 203 467 203q220 0 383 -113l-129 -192q-108 80 -242 80q-163 0 -244 -111q-55 -76 -63 -203l-2 -45h407v-229h-413v-68q0 -64 16.5 -134.5t46.5 -113.5q33 -46 99 -82t170 -36q134 0 253 92l132 -184q-170 -134 -406 -134q-88 0 -166 18.5
t-135 50t-96 62.5t-70 66q-54 62 -90 135t-51.5 149t-21 134.5t-5.5 126.5z" />
    <glyph glyph-name="afii10054" unicode="&#x405;" 
d="M72 98l106 224q203 -115 391 -115q133 0 199 61q51 44 51 133q0 64 -43 113q-41 44 -143 72l-158 43q-112 30 -175.5 73.5t-104.5 106.5q-60 89 -60 217q0 197 148 322q139 118 362 118q90 0 173.5 -16.5t145 -43t95.5 -45.5t61 -38l-135 -205q-168 109 -330 109
q-79 0 -131 -35q-69 -45 -69 -135q0 -46 26 -74q30 -35 131 -63l172 -48q174 -48 265 -151q96 -108 96 -272q0 -199 -137 -326q-162 -154 -451 -154q-248 0 -485 129z" />
    <glyph glyph-name="afii10055" unicode="&#x406;" horiz-adv-x="598" 
d="M154 0v1423h290v-1423h-290z" />
    <glyph glyph-name="afii10056" unicode="&#x407;" horiz-adv-x="598" 
d="M-74 1659q0 63 48.5 110.5t111.5 47.5t108.5 -47.5t45.5 -110.5t-47 -110.5t-111 -47.5q-62 0 -109 47.5t-47 110.5zM154 0v1423h290v-1423h-290zM358 1659q0 63 47 110.5t113 47.5q63 0 108.5 -46.5t45.5 -111.5q0 -63 -47 -110.5t-111 -47.5t-110 47t-46 111z" />
    <glyph glyph-name="afii10057" unicode="&#x408;" horiz-adv-x="608" 
d="M-31 -188q116 71 166 172q19 50 24 87t5 93v1259h291v-1230q0 -118 -21 -195q-20 -71 -59.5 -130t-89.5 -98t-93 -63.5t-90 -42.5z" />
    <glyph glyph-name="afii10058" unicode="&#x409;" horiz-adv-x="1896" 
d="M-10 186l35 11q68 18 106 47q57 41 84 110q28 69 45 238q30 268 35 579l4 252h815v-530h178q72 0 121 -4.5t116.5 -28.5t121.5 -69q143 -121 143 -340q0 -247 -176 -367q-122 -84 -313 -84h-482v1198h-264l-8 -221q-12 -354 -47 -590q-27 -192 -111 -281
q-51 -53 -115 -76.5t-145 -35.5l-90 -14zM1114 229h154q114 0 170 70q45 57 45 156q0 100 -58 155q-34 34 -71 44t-86 10h-154v-435z" />
    <glyph glyph-name="afii10059" unicode="&#x40a;" horiz-adv-x="1912" 
d="M154 0v1423h290v-536h396v536h290v-538h179q111 0 196 -19.5t162 -83.5q143 -121 143 -331q0 -244 -176 -367q-122 -84 -313 -84h-481v651h-396v-651h-290zM1130 229h154q111 0 170 70q45 54 45 147q0 102 -57 156q-24 24 -53.5 36.5t-50.5 14.5t-54 2h-154v-426z" />
    <glyph glyph-name="afii10060" unicode="&#x40b;" horiz-adv-x="1443" 
d="M31 1186v237h1026l-47 -237h-367v-348q155 63 289 63q180 0 278 -98q90 -90 90 -242v-561h-290v444q0 138 -49 187q-43 43 -127 43q-99 0 -191 -43v-631h-291v1186h-321z" />
    <glyph glyph-name="afii10061" unicode="&#x40c;" horiz-adv-x="1308" 
d="M154 0v1423h290v-553h127q95 0 142 41q38 33 59 129l45 179q8 33 12 47.5t19 44t37 51.5q47 50 151 63l138 19l55 -191l-66 -16q-36 -9 -65 -29q-37 -26 -56 -94l-38 -135q-31 -109 -76 -156q-51 -51 -117 -67q64 -19 111 -66q51 -51 82 -151l61 -211q8 -26 14 -41
t20 -33.5t34 -30.5q38 -22 81 -33l43 -12l-53 -198l-162 18q-110 12 -172 82q-26 32 -39.5 72t-27.5 104l-47 207q-8 33 -28 73t-40 58q-46 41 -137 41h-107v-635h-290zM424 1653l424 266l119 -213l-459 -205z" />
    <glyph glyph-name="afii10062" unicode="&#x40e;" horiz-adv-x="1128" 
d="M-10 1423h313l197 -530q55 -149 90 -287q36 157 102 346l166 471h301l-373 -1001q-12 -31 -31 -83t-26.5 -73t-21.5 -56t-21 -50t-18 -36.5t-20.5 -34.5t-20.5 -26q-27 -29 -61.5 -50.5t-74 -34t-60.5 -17t-56 -10.5l-90 -14l-54 206l35 11q67 18 107 45q36 24 62.5 57.5
t36.5 56t24 60.5l24 65l-139 -18zM225 1757l144 60q8 -21 28.5 -40t40.5 -30q46 -27 125 -27t125 27q21 11 41.5 30t28.5 40l143 -60q-25 -100 -113 -164q-54 -39 -104.5 -51t-120.5 -12t-120.5 12t-104.5 51q-88 64 -113 164z" />
    <glyph glyph-name="afii10145" unicode="&#x40f;" horiz-adv-x="1263" 
d="M154 0v1423h290v-1187h375v1187h291v-1423h-338v-352h-274v352h-344z" />
    <glyph glyph-name="afii10017" unicode="&#x410;" horiz-adv-x="1212" 
d="M-6 0l467 1427h309l449 -1427h-308l-100 338h-418l-100 -338h-299zM463 573h278q-45 145 -77 289q-5 22 -15.5 63.5t-20.5 84t-22 102.5q-23 -97 -67 -272q-57 -209 -76 -267z" />
    <glyph glyph-name="afii10018" unicode="&#x411;" horiz-adv-x="1257" 
d="M154 0v1423h901l-37 -233h-574v-322h224q223 0 346 -100q59 -47 100 -130t41 -200q0 -242 -168 -356q-120 -82 -307 -82h-526zM444 233h193q103 0 154 64q40 50 40 141q0 111 -73 162q-49 35 -131 35h-183v-402z" />
    <glyph glyph-name="afii10019" unicode="&#x412;" horiz-adv-x="1249" 
d="M154 0v1423h481q120 0 202 -20.5t150 -81.5q115 -105 115 -254t-96 -238q-56 -51 -132 -73q86 -20 158 -80q66 -55 95.5 -122t29.5 -157q0 -174 -112 -285.5t-320 -111.5h-571zM436 854h193q28 0 46 2t43 13t44 32q41 44 41 117q0 48 -21.5 87t-60.5 56q-45 19 -119 19
h-166v-326zM440 233h203q48 0 84.5 14t67.5 56q39 55 39 129q0 92 -54 143q-45 43 -137 43h-203v-385z" />
    <glyph glyph-name="afii10020" unicode="&#x413;" horiz-adv-x="950" 
d="M154 0v1423h776l-33 -231h-453v-1192h-290z" />
    <glyph glyph-name="afii10021" unicode="&#x414;" horiz-adv-x="1351" 
d="M10 225h92q135 268 185 535q16 89 31 233.5t18 245.5l6 184h815v-1198h148v-569h-277v344h-741v-344h-277v569zM354 225h512v973h-288l-9 -145q-9 -161 -26 -263t-62 -255q-31 -104 -57.5 -171t-69.5 -139z" />
    <glyph glyph-name="afii10022" unicode="&#x415;" horiz-adv-x="1034" 
d="M154 0v1423h811l-37 -235h-488v-328h408v-235h-404v-379h539v-246h-829z" />
    <glyph glyph-name="afii10024" unicode="&#x416;" horiz-adv-x="1923" 
d="M51 178l43 12q45 12 82 33q29 17 43 41.5t25 63.5l59 211q9 34 34 78.5t48 68.5q45 45 107 66q-70 23 -111 67q-9 9 -16.5 19.5t-13 18t-11.5 21t-8.5 18.5t-8 22t-6.5 19t-7 22l-5 20l-39 139q-16 67 -53 94q-22 17 -66 29l-65 16l55 191l137 -18q104 -13 152 -64
q44 -46 68 -143l43 -183q25 -99 59 -129q19 -15 58 -28t69 -13h96v553h285v-553h96q30 0 69 13t58 28q34 30 59 129l44 183q8 31 12.5 47t19 45t35.5 51q48 51 152 64l137 18l55 -191l-65 -16q-44 -12 -66 -29q-37 -27 -53 -94l-39 -139q-1 -3 -5 -18t-5.5 -19t-5.5 -17.5
t-6.5 -19t-7.5 -17t-9 -18.5t-10 -17t-12.5 -18t-14.5 -16q-42 -45 -110 -67q61 -21 106 -66q23 -24 48 -68.5t34 -78.5l59 -211q8 -26 14 -41t20 -33.5t34 -30.5q37 -21 82 -33l43 -12l-53 -198l-162 18q-114 11 -172 82q-41 47 -68 176l-47 207q-21 85 -67 127
q-31 29 -63.5 37t-74.5 8h-61v-635h-285v635h-61q-27 0 -45 -2t-44 -12.5t-48 -30.5q-48 -43 -68 -127l-47 -207q-27 -129 -68 -176q-58 -71 -172 -82l-162 -18z" />
    <glyph glyph-name="afii10025" unicode="&#x417;" horiz-adv-x="1116" 
d="M31 109l131 186q127 -98 291 -98q134 0 196 65q51 53 51 158q0 98 -47 147q-55 60 -176 60h-168v215h142q110 0 161 47q52 47 52 141q0 93 -46 139q-54 58 -165 58q-151 0 -246 -78l-135 182q105 66 205.5 91.5t220.5 25.5q201 0 327 -90q148 -106 148 -295
q0 -120 -66 -203q-62 -79 -164 -112q100 -14 175 -76q106 -93 106 -262q0 -207 -170 -332q-142 -103 -389 -103q-266 0 -434 134z" />
    <glyph glyph-name="afii10026" unicode="&#x418;" horiz-adv-x="1331" 
d="M154 0v1423h290v-704q0 -121 -12 -301q10 33 19 60t21.5 56.5t17 41t21 48t19.5 42.5l347 757h301v-1423h-291v705q0 121 12 301q-10 -33 -19 -60t-21.5 -56.5t-17 -41t-21 -48t-19.5 -42.5l-346 -758h-301z" />
    <glyph glyph-name="afii10027" unicode="&#x419;" horiz-adv-x="1331" 
d="M154 0v1423h290v-704q0 -121 -12 -301q10 33 19 60t21.5 56.5t17 41t21 48t19.5 42.5l347 757h301v-1423h-291v705q0 121 12 301q-10 -33 -19 -60t-21.5 -56.5t-17 -41t-21 -48t-19.5 -42.5l-346 -758h-301zM328 1749l143 59q24 -43 70 -69q49 -27 125 -27q79 0 125 27
q45 25 69 69l144 -59q-25 -100 -113 -164q-53 -39 -105 -51t-120 -12q-69 0 -121 12t-105 51q-86 64 -112 164z" />
    <glyph glyph-name="afii10028" unicode="&#x41a;" horiz-adv-x="1308" 
d="M154 0v1423h290v-553h127q95 0 142 41q38 33 59 129l45 179q8 33 12 47.5t19 44t37 51.5q47 50 151 63l138 19l55 -191l-66 -16q-36 -9 -65 -29q-37 -26 -56 -94l-38 -135q-31 -109 -76 -156q-51 -51 -117 -67q64 -19 111 -66q51 -51 82 -151l61 -211q8 -26 14 -41
t20 -33.5t34 -30.5q38 -22 81 -33l43 -12l-53 -198l-162 18q-110 12 -172 82q-26 32 -39.5 72t-27.5 104l-47 207q-8 33 -28 73t-40 58q-46 41 -137 41h-107v-635h-290z" />
    <glyph glyph-name="afii10029" unicode="&#x41b;" horiz-adv-x="1267" 
d="M-10 186l35 11q68 18 106 47q57 41 84 110q28 69 45 238q30 268 35 579l4 252h815v-1423h-291v1188h-264l-8 -211q-13 -364 -47 -590q-27 -192 -111 -281q-51 -53 -115 -76.5t-145 -35.5l-90 -14z" />
    <glyph glyph-name="afii10030" unicode="&#x41c;" horiz-adv-x="1695" 
d="M113 0l133 1423h366l187 -723q27 -101 32 -133q2 -10 5.5 -29.5t5.5 -29.5q1 -5 3 -16.5t3 -16.5q0 1 4.5 26t9.5 49.5t15 68t22 88.5l193 716h364l127 -1423h-280l-54 776q-6 74 -10 238q-16 -89 -53 -219l-225 -795h-244l-203 764q-38 138 -57 252q-4 -159 -11 -256
l-49 -760h-284z" />
    <glyph glyph-name="afii10031" unicode="&#x41d;" horiz-adv-x="1296" 
d="M154 0v1423h290v-553h408v553h291v-1423h-291v635h-408v-635h-290z" />
    <glyph glyph-name="afii10032" unicode="&#x41e;" horiz-adv-x="1417" 
d="M92 711q0 171 44.5 312.5t129.5 236.5q163 188 443 188q279 0 442 -188q85 -95 129.5 -236.5t44.5 -312.5q0 -169 -44.5 -309.5t-129.5 -237.5q-164 -189 -442 -189q-279 0 -443 189q-85 97 -129.5 237.5t-44.5 309.5zM416 711q0 -249 59 -365q75 -151 234 -151
q92 0 145.5 41.5t87.5 109.5q59 116 59 365q0 250 -59 366q-13 26 -27 45.5t-41.5 47.5t-69.5 43.5t-95 15.5q-156 0 -234 -152q-59 -116 -59 -366z" />
    <glyph glyph-name="afii10033" unicode="&#x41f;" horiz-adv-x="1271" 
d="M154 0v1423h964v-1423h-287v1188h-391v-1188h-286z" />
    <glyph glyph-name="afii10034" unicode="&#x420;" horiz-adv-x="1183" 
d="M154 0v1423h446q208 0 328 -69q100 -55 152.5 -150.5t52.5 -218.5q0 -38 -5 -77t-21.5 -88t-42.5 -92t-71.5 -85.5t-105.5 -71.5q-58 -27 -118 -37t-167 -10h-158v-524h-290zM444 758h150q64 0 101.5 8.5t55 23t33.5 41.5q35 63 35 146q0 101 -45 153q-49 62 -147 62
h-183v-434z" />
    <glyph glyph-name="afii10035" unicode="&#x421;" horiz-adv-x="1171" 
d="M92 680q0 259 96 440q82 152 227.5 240t315.5 88q72 0 137.5 -13.5t111 -35t69 -36t41.5 -28.5l-129 -192q-97 80 -222 80q-77 0 -142 -34t-103 -89q-80 -116 -80 -391q0 -139 14 -218.5t45 -136.5q87 -157 275 -157q134 0 241 90l131 -178q-163 -134 -393 -134
q-293 0 -463 197q-172 194 -172 508z" />
    <glyph glyph-name="afii10036" unicode="&#x422;" horiz-adv-x="1026" 
d="M31 1188v235h1026l-47 -235h-340v-1188h-291v1188h-348z" />
    <glyph glyph-name="afii10037" unicode="&#x423;" horiz-adv-x="1128" 
d="M-10 1423h313l197 -530q55 -149 90 -287q36 157 102 346l166 471h301l-373 -1001q-12 -31 -31 -83t-26.5 -73t-21.5 -56t-21 -50t-18 -36.5t-20.5 -34.5t-20.5 -26q-27 -29 -61.5 -50.5t-74 -34t-60.5 -17t-56 -10.5l-90 -14l-54 206l35 11q67 18 107 45q36 24 62.5 57.5
t36.5 56t24 60.5l24 65l-139 -18z" />
    <glyph glyph-name="afii10038" unicode="&#x424;" horiz-adv-x="1630" 
d="M92 754q0 127 40.5 239.5t117.5 180.5q66 58 166 90t205 32h49v199h291v-199h49q105 0 204.5 -32t165.5 -90q77 -68 117.5 -180.5t40.5 -239.5q0 -116 -33.5 -214t-91.5 -165q-143 -166 -403 -166h-49v-209h-291v209h-49q-261 0 -404 166q-58 67 -91.5 165t-33.5 214z
M406 743q0 -61 2 -95t20 -87.5t53 -89.5q66 -68 178 -68h25v699h-25q-107 0 -174 -62q-35 -34 -54 -88t-22 -92.5t-3 -93.5v-23zM946 403h25q112 0 178 68q27 28 43.5 61t23 74t8 67t1.5 70v23q0 54 -3.5 93t-22.5 93t-54 88q-67 62 -174 62h-25v-699z" />
    <glyph glyph-name="afii10039" unicode="&#x425;" horiz-adv-x="1171" 
d="M-20 0l446 762l-385 661h350l193 -383l194 383h342l-370 -643l442 -780h-346l-256 502l-254 -502h-356z" />
    <glyph glyph-name="afii10040" unicode="&#x426;" horiz-adv-x="1304" 
d="M154 0v1423h290v-1187h375v1187h291v-1190h147v-585h-276v352h-827z" />
    <glyph glyph-name="afii10041" unicode="&#x427;" horiz-adv-x="1214" 
d="M102 868v555h291v-446q0 -118 37 -168q45 -61 143 -61q85 0 197 43v632h291v-1423h-291v592q-136 -64 -299 -64q-182 0 -281 99q-88 88 -88 241z" />
    <glyph glyph-name="afii10042" unicode="&#x428;" horiz-adv-x="1896" 
d="M154 0v1423h286v-1196h365v1196h287v-1196h364v1196h287v-1423h-1589z" />
    <glyph glyph-name="afii10043" unicode="&#x429;" horiz-adv-x="1937" 
d="M154 0v1423h286v-1196h365v1196h287v-1196h364v1196h287v-1190h147v-585h-276v352h-1460z" />
    <glyph glyph-name="afii10044" unicode="&#x42a;" horiz-adv-x="1445" 
d="M20 1188v235h639v-530h187q110 0 199.5 -20t164.5 -82q144 -119 144 -340q0 -250 -176 -367q-125 -84 -320 -84h-489v1188h-349zM659 229h162q112 0 170 72q45 57 45 152q0 106 -57 159q-56 52 -158 52h-162v-435z" />
    <glyph glyph-name="afii10045" unicode="&#x42b;" horiz-adv-x="1773" 
d="M154 0v1423h290v-530h179q111 0 196 -19t162 -83q143 -121 143 -340q0 -247 -176 -367q-122 -84 -313 -84h-481zM444 229h154q47 0 95 19t75 51q45 53 45 156q0 102 -57 155q-28 25 -71.5 39.5t-86.5 14.5h-154v-435zM1329 0v1423h291v-1423h-291z" />
    <glyph glyph-name="afii10046" unicode="&#x42c;" horiz-adv-x="1230" 
d="M154 0v1423h290v-530h187q41 0 79 -3t91 -13.5t97.5 -28.5t90.5 -52t78 -79t52 -113.5t20 -152.5q0 -115 -39.5 -203.5t-108.5 -141.5t-157 -79.5t-191 -26.5h-489zM444 229h162q29 0 54.5 4t56.5 17.5t52.5 36.5t36.5 64.5t15 97.5q0 44 -9.5 79.5t-23 57.5t-35 38
t-39 23.5t-42 11.5t-36.5 4.5t-30 0.5h-162v-435z" />
    <glyph glyph-name="afii10047" unicode="&#x42d;" horiz-adv-x="1177" 
d="M45 109l131 184q119 -92 254 -92q104 0 169.5 35.5t98.5 82.5q30 43 47 113.5t17 134.5v68h-414v229h408l-2 45q-8 126 -64 203q-81 111 -244 111q-133 0 -241 -80l-129 192q163 113 383 113q296 0 467 -203q159 -190 159 -528q0 -68 -5 -126.5t-21 -134.5t-51.5 -149
t-89.5 -135q-31 -35 -70 -66t-96 -62.5t-135 -50t-166 -18.5q-236 0 -406 134z" />
    <glyph glyph-name="afii10048" unicode="&#x42e;" horiz-adv-x="1947" 
d="M154 0v1423h284v-553h230q10 103 48 210t103 184q156 184 432 184q268 0 432 -191q172 -200 172 -544q0 -342 -172 -545q-163 -193 -432 -193q-305 0 -469 236q-59 87 -91 200.5t-32 223.5h-221v-635h-284zM971 713q0 -243 55 -365q13 -28 27 -49.5t40 -48t66.5 -41
t91.5 -14.5q41 0 76.5 10.5t58 25.5t42 38t29.5 40t20 39q55 122 55 365q0 242 -55 364q-69 152 -226 152q-156 0 -225 -152q-55 -122 -55 -364z" />
    <glyph glyph-name="afii10049" unicode="&#x42f;" horiz-adv-x="1277" 
d="M20 178l43 12q45 12 82 33q29 17 43 41.5t25 63.5l47 161q27 94 82 146q45 42 115 65q-60 9 -116 38.5t-93 70.5q-82 91 -82 242q0 80 35 155.5t100 126.5q69 55 150.5 72.5t183.5 17.5h489v-1423h-290v580h-121q-82 0 -138 -52q-21 -20 -40 -56.5t-27 -70.5l-33 -145
q-9 -43 -15 -67t-20 -56t-32 -53q-58 -71 -172 -82l-162 -18zM467 1012q0 -95 43 -146q47 -57 145 -57h179v385h-158q-87 0 -129 -25q-80 -46 -80 -157z" />
    <glyph glyph-name="afii10065" unicode="&#x430;" horiz-adv-x="1069" 
d="M82 289q0 222 182 305q118 55 318 55q45 0 65 -2v43q0 92 -25 125t-96 33q-142 0 -305 -121l-117 197q66 42 168 86q81 33 139 48t142 15q276 0 346 -184q19 -53 19 -170v-19l-7 -352q0 -7 -1 -22.5t-1 -22.5q0 -54 20.5 -99.5t80.5 -88.5l-146 -168q-100 41 -147 127
q-48 -44 -64 -56q-77 -57 -211 -57q-171 0 -262 82q-98 90 -98 246zM375 305q0 -65 33.5 -104t87.5 -39q82 0 143 71l4 226h-12q-157 0 -209 -39q-47 -36 -47 -115z" />
    <glyph glyph-name="afii10066" unicode="&#x431;" horiz-adv-x="1128" 
d="M92 623q0 282 53 446q43 132 127.5 207.5t235.5 138.5l178 74q25 11 59.5 25t53 21.5t47.5 21t61 30.5l92 -215q-81 -50 -233 -104q-241 -83 -287 -107q-107 -56 -139 -139q-25 -62 -25 -152h9q42 70 100 111q54 39 106.5 53.5t120.5 14.5q77 0 143 -29t132 -107
t93.5 -169t27.5 -220q0 -251 -127 -399q-131 -150 -349 -150q-217 0 -350 148q-45 50 -72.5 109.5t-39 131.5t-14.5 124.5t-3 134.5zM395 514q0 -207 56 -281q42 -57 118 -57q77 0 119 57q55 73 55 281q0 107 -12 172.5t-43 106.5q-43 55 -119 55q-75 0 -118 -55
q-56 -74 -56 -279z" />
    <glyph glyph-name="afii10067" unicode="&#x432;" horiz-adv-x="1103" 
d="M154 0v1049h485q138 0 211 -50q106 -76 106 -221q0 -90 -59 -155q-42 -47 -102 -68q75 -12 135 -68q71 -68 71 -184q0 -66 -23.5 -124.5t-62.5 -94.5q-89 -84 -266 -84h-495zM416 174h108q35 0 55 1t49 10t48 26q39 35 39 108q0 77 -45 113q-36 29 -111 29h-143v-287z
M416 629h123q83 0 118 37q29 32 29 92q0 63 -37 92q-30 24 -96 24h-137v-245z" />
    <glyph glyph-name="afii10068" unicode="&#x433;" horiz-adv-x="845" 
d="M154 0v1049h692l-29 -193h-393v-856h-270z" />
    <glyph glyph-name="afii10069" unicode="&#x434;" horiz-adv-x="1112" 
d="M0 193h84q87 161 125 313q20 77 37 205t20 211l4 127h670v-856h131v-480h-256v287h-559v-287h-256v480zM319 193h351v663h-199l-10 -143q-10 -128 -39 -254q-34 -155 -103 -266z" />
    <glyph glyph-name="afii10070" unicode="&#x435;" horiz-adv-x="1056" 
d="M92 526q0 256 131 404q71 80 152.5 111.5t177.5 31.5q191 0 303 -112q139 -141 139 -459v-64h-606v-22q0 -115 68 -180q58 -56 157 -56q136 0 263 105l106 -164q-175 -146 -395 -146q-106 0 -198 36.5t-157 103.5q-141 148 -141 411zM393 639h318v12q0 116 -39 168
q-42 53 -115 53t-115 -51q-49 -58 -49 -178v-4z" />
    <glyph glyph-name="afii10072" unicode="&#x436;" horiz-adv-x="1576" 
d="M41 168l37 8q36 6 61 25q10 7 17.5 14.5t13 17.5t8 14.5t7 17t5.5 14.5l52 129q9 24 14.5 36t18 33t26 33.5t36.5 25.5t52 21q-102 17 -141 131l-35 94q-17 51 -43 70q-14 10 -53 20l-45 11l49 186l98 -8q112 -10 162 -53q44 -39 63 -129l23 -103q16 -71 43 -96
q35 -31 106 -31h41v375l263 51v-426h41q71 0 106 31q27 25 43 96l23 103q19 90 63 129q50 43 162 53l98 8l49 -186l-45 -11q-40 -10 -53 -20q-26 -19 -43 -70l-35 -94q-39 -114 -141 -131q29 -8 52 -21t36.5 -25.5t26 -33.5t18 -33t14.5 -36l51 -129q1 -3 4 -10.5t4.5 -11.5
t5 -11t6.5 -12t8 -11t11 -11.5t13 -10.5q25 -19 61 -25l37 -8l-49 -188l-90 6q-47 3 -76 6.5t-69 19t-64 41.5q-43 49 -60 131l-34 146q-15 71 -52 100q-34 27 -100 27h-22v-457h-263v457h-22q-65 0 -100 -27q-37 -29 -52 -100l-34 -146q-17 -82 -60 -131q-24 -26 -64 -41.5
t-69 -19t-76 -6.5l-90 -6z" />
    <glyph glyph-name="afii10073" unicode="&#x437;" horiz-adv-x="942" 
d="M41 119l123 164q41 -44 92 -72q63 -35 131 -35q87 0 125 33q43 34 43 108q0 82 -53 115q-37 23 -121 23h-78v188h107q71 0 102 39q25 31 25 78q0 56 -35 84t-101 28q-78 0 -141 -30q-37 -16 -82 -56l-110 160q47 44 131 82q109 45 235 45q168 0 273 -72q114 -80 114 -229
q0 -74 -30 -127q-38 -68 -115 -96q85 -23 129 -86q45 -61 45 -156q0 -165 -141 -256q-116 -76 -303 -76q-164 0 -269 68q-29 18 -96 76z" />
    <glyph glyph-name="afii10074" unicode="&#x438;" horiz-adv-x="1175" 
d="M154 0v1024l270 51v-483q0 -114 -12 -240q94 221 116 262l213 410l281 51v-1075h-270v381q0 158 12 301q-43 -130 -105 -248l-225 -434h-280z" />
    <glyph glyph-name="afii10075" unicode="&#x439;" horiz-adv-x="1175" 
d="M154 0v1024l270 51v-483q0 -114 -12 -240q94 221 116 262l213 410l281 51v-1075h-270v381q0 158 12 301q-43 -130 -105 -248l-225 -434h-280zM244 1460l145 60q12 -21 33 -42t41 -32q48 -29 125 -29q82 0 127 29q19 11 40 32.5t31 41.5l146 -60q-30 -115 -115 -180
q-88 -68 -229 -68q-145 0 -230 68q-40 31 -69.5 80.5t-44.5 99.5z" />
    <glyph glyph-name="afii10076" unicode="&#x43a;" horiz-adv-x="1128" 
d="M154 0v1024l270 51v-426h68q71 0 106 31q27 25 43 96l23 103q19 90 63 129q50 43 162 53l98 8l49 -186l-45 -11q-39 -10 -53 -20q-26 -19 -43 -70l-35 -94q-39 -114 -141 -131q29 -8 52 -21t36.5 -25.5t26 -33.5t18 -33t14.5 -36l52 -129q1 -2 5.5 -14.5t7 -17t8 -14.5
t13 -17.5t17.5 -14.5q25 -19 61 -25l37 -8l-49 -188l-90 6q-47 3 -76 6.5t-69 19t-64 41.5q-43 49 -60 131l-34 146q-15 71 -52 100q-34 27 -100 27h-49v-457h-270z" />
    <glyph glyph-name="afii10077" unicode="&#x43b;" horiz-adv-x="1089" 
d="M-4 168l51 14q70 18 107 72q25 41 41 125q17 94 30 274q10 135 13 265l4 131h694v-1049h-270v856h-187l-4 -88q-9 -198 -12 -240q-17 -227 -39 -311q-29 -110 -86 -160q-66 -56 -191 -67l-102 -10z" />
    <glyph glyph-name="afii10078" unicode="&#x43c;" horiz-adv-x="1445" 
d="M98 0l109 1049h319l152 -519q37 -121 43 -165q13 75 43 170l156 514h319l109 -1049h-244l-43 545q-6 86 -6 176q-24 -109 -45 -162l-193 -559h-209l-172 535q-32 100 -49 186q0 -99 -6 -191l-39 -530h-244z" />
    <glyph glyph-name="afii10079" unicode="&#x43d;" horiz-adv-x="1130" 
d="M154 0v1024l270 51v-426h283v375l270 51v-1075h-270v457h-283v-457h-270z" />
    <glyph glyph-name="afii10080" unicode="&#x43e;" horiz-adv-x="1118" 
d="M82 524q0 120 27 217.5t102 182.5q132 149 348 149t348 -149q75 -85 102 -182.5t27 -217.5q0 -119 -27 -216.5t-102 -182.5q-133 -150 -348 -150t-348 150q-75 85 -102 182.5t-27 216.5zM385 524q0 -218 55 -291q41 -57 119 -57t119 57q55 73 55 291t-55 291
q-41 57 -119 57t-119 -57q-55 -73 -55 -291z" />
    <glyph glyph-name="afii10081" unicode="&#x43f;" horiz-adv-x="1114" 
d="M154 0v1049h807v-1049h-271v856h-266v-856h-270z" />
    <glyph glyph-name="afii10082" unicode="&#x440;" horiz-adv-x="1157" 
d="M137 1026l250 43q9 -26 19 -98q89 102 258 102q107 0 206 -65q195 -131 195 -476q0 -155 -34.5 -256.5t-110.5 -179.5q-121 -121 -281 -121q-123 0 -219 58q4 -41 4 -64v-350l-270 -72v1215q0 190 -17 264zM424 256q77 -61 158 -61q56 0 93.5 26.5t55.5 63.5
q35 72 35 241q0 164 -27 232q-34 88 -129 88q-102 0 -186 -80v-510z" />
    <glyph glyph-name="afii10083" unicode="&#x441;" horiz-adv-x="952" 
d="M92 516q0 94 19 176t44 131.5t59.5 91.5t53.5 57.5t39 28.5q54 35 129.5 53.5t136.5 18.5q106 0 197 -47q61 -33 102 -74l-133 -180q-89 82 -172 82q-94 0 -137 -98q-35 -77 -35 -260t54 -252q48 -60 122 -60q45 0 101 25q25 11 88 61l16 15l125 -166q-53 -56 -96 -78
q-113 -66 -256 -66q-203 0 -324 129q-133 143 -133 412z" />
    <glyph glyph-name="afii10084" unicode="&#x442;" horiz-adv-x="821" 
d="M31 856v193h821l-37 -193h-248v-856h-270v856h-266z" />
    <glyph glyph-name="afii10085" unicode="&#x443;" horiz-adv-x="1038" 
d="M0 1032l281 33l182 -612q51 -199 55 -215q29 149 33 165q23 90 41 146l158 500h288l-381 -1065q-33 -92 -63 -157t-56 -102t-42.5 -54t-38.5 -33q-99 -76 -254 -97l-94 180q103 25 170 72q48 38 75 78q34 58 62 129h-70l-37 113q-9 32 -28 82q-16 44 -33 100z" />
    <glyph glyph-name="afii10086" unicode="&#x444;" horiz-adv-x="1560" 
d="M82 530q0 281 125 428q100 115 244 115q107 0 194 -67v446l270 66v-512q87 67 195 67q144 0 244 -115q125 -147 125 -428q0 -278 -123 -426q-107 -129 -275 -129q-86 0 -166 58v-447h-270v447q-80 -58 -166 -58q-167 0 -274 129q-123 148 -123 426zM369 543
q0 -116 7.5 -176.5t31.5 -102.5q24 -43 51.5 -56t68.5 -13q35 0 58 10t59 43v549q-62 57 -131 57q-33 0 -56.5 -12t-45.5 -45q-19 -31 -29 -77t-12 -82.5t-2 -94.5zM915 248q36 -33 59 -43t58 -10q41 0 69 13t52 56q24 42 31.5 102.5t7.5 176.5q0 58 -2 94.5t-12 82.5
t-29 77q-22 33 -45.5 45t-56.5 12q-70 0 -132 -57v-549z" />
    <glyph glyph-name="afii10087" unicode="&#x445;" horiz-adv-x="1044" 
d="M-20 0l387 559l-291 440l284 80q95 -157 142 -256q21 -42 33 -69q20 54 92 204q25 56 49 91h323l-311 -484l377 -565h-348l-111 193q-9 17 -43.5 82.5t-38.5 72.5q-7 -23 -37 -82.5t-67 -120.5l-88 -145h-352z" />
    <glyph glyph-name="afii10088" unicode="&#x446;" horiz-adv-x="1144" 
d="M154 0v1024l270 51v-882h258v831l270 51v-882h131v-480h-256v287h-673z" />
    <glyph glyph-name="afii10089" unicode="&#x447;" horiz-adv-x="1017" 
d="M82 664v360l270 51v-385q0 -71 33 -104q29 -29 84 -29q61 0 125 31v436l270 51v-1075h-270v406q-103 -41 -205 -41q-170 0 -248 94q-59 71 -59 205z" />
    <glyph glyph-name="afii10090" unicode="&#x448;" horiz-adv-x="1601" 
d="M154 0v1024l266 51v-891h248v840l266 51v-891h248v840l266 51v-1075h-1294z" />
    <glyph glyph-name="afii10091" unicode="&#x449;" horiz-adv-x="1640" 
d="M154 0v1024l266 51v-891h248v840l266 51v-891h248v840l266 51v-882h131v-480h-256v287h-1169z" />
    <glyph glyph-name="afii10092" unicode="&#x44a;" horiz-adv-x="1167" 
d="M10 1049h539v-371h174q167 0 268 -84q105 -89 105 -268q0 -160 -107 -250q-90 -76 -246 -76h-464v856h-248zM549 188h108q70 0 109 33q43 38 43 115q0 81 -41 117q-39 36 -119 36h-100v-301z" />
    <glyph glyph-name="afii10093" unicode="&#x44b;" horiz-adv-x="1546" 
d="M154 0v1024l270 51v-397h154q167 0 268 -84q104 -88 104 -268q0 -161 -106 -250q-90 -76 -246 -76h-444zM424 188h100q70 0 109 33q43 38 43 115q0 81 -41 117q-39 36 -119 36h-92v-301zM1122 0v1024l271 51v-1075h-271z" />
    <glyph glyph-name="afii10094" unicode="&#x44c;" horiz-adv-x="1042" 
d="M154 0v1024l270 51v-397h174q167 0 268 -84q105 -89 105 -268q0 -160 -107 -250q-90 -76 -246 -76h-464zM424 188h108q70 0 109 33q43 38 43 115q0 81 -41 117q-39 36 -119 36h-100v-301z" />
    <glyph glyph-name="afii10095" unicode="&#x44d;" horiz-adv-x="991" 
d="M72 119l125 157q23 -26 63 -53q71 -47 162 -47q99 0 147 60q37 47 37 165v56h-262v192h262v27q0 103 -47 153q-43 50 -129 50q-67 0 -131 -31q-42 -19 -74 -51l-125 161q59 51 127 80q95 41 226 41q214 0 327 -133q65 -76 97 -194t32 -230q0 -43 -3.5 -84.5t-16.5 -97.5
t-33.5 -104.5t-58.5 -98t-88 -84.5q-113 -78 -285 -78q-143 0 -252 66q-42 25 -100 78z" />
    <glyph glyph-name="afii10096" unicode="&#x44e;" horiz-adv-x="1576" 
d="M154 0v1024l270 51v-426h162q22 164 96 260q48 62 136.5 111t211.5 49q214 0 340 -145q125 -142 125 -400q0 -252 -125 -397q-132 -147 -340 -147q-233 0 -350 159q-85 114 -100 318h-156v-457h-270zM864 524q0 -216 51 -286q40 -58 113 -58t113 58q51 70 51 286
q0 217 -51 287q-39 57 -113 57t-113 -57q-51 -70 -51 -287z" />
    <glyph glyph-name="afii10097" unicode="&#x44f;" horiz-adv-x="1046" 
d="M31 168l37 8q36 6 61 25q10 7 17.5 14.5t13 17.5t8 14.5t7 17t5.5 14.5l31 75q22 55 55 86q41 36 90 49q-95 10 -157 80t-62 181q0 149 107 229q93 70 264 70h436v-1049h-270v399h-64q-64 0 -100 -30q-35 -30 -51 -97l-21 -88q-20 -89 -59 -131q-24 -26 -64 -41.5
t-69 -19t-76 -6.5l-90 -6zM418 729q0 -84 28 -115q33 -41 119 -41h109v283h-101q-81 0 -118 -35t-37 -92z" />
    <glyph glyph-name="afii10071" unicode="&#x451;" horiz-adv-x="1056" 
d="M92 526q0 256 131 404q71 80 152.5 111.5t177.5 31.5q191 0 303 -112q139 -141 139 -459v-64h-606v-22q0 -115 68 -180q58 -56 157 -56q136 0 263 105l106 -164q-175 -146 -395 -146q-106 0 -198 36.5t-157 103.5q-141 148 -141 411zM176 1300q0 63 48.5 110.5
t111.5 47.5t108 -47.5t45 -110.5t-46.5 -110t-110.5 -47q-62 0 -109 47t-47 110zM393 639h318v12q0 116 -39 168q-42 53 -115 53t-115 -51q-49 -58 -49 -178v-4zM608 1300q0 64 47 111t113 47q63 0 108.5 -46.5t45.5 -111.5q0 -63 -47 -110t-111 -47t-110 47t-46 110z" />
    <glyph glyph-name="afii10099" unicode="&#x452;" horiz-adv-x="1163" 
d="M51 1157v139h105v174l270 66v-240h399l-47 -139h-352v-135l-4 -88q65 57 144 85t153 28q154 0 227.5 -80t73.5 -240v-616q0 -279 -129 -422q-75 -86 -201 -140l-115 152q63 59 101 113q74 105 74 288v572q0 78 -24 110.5t-79 32.5q-54 0 -114 -26.5t-107 -69.5v-721h-270
v1157h-105z" />
    <glyph glyph-name="afii10100" unicode="&#x453;" horiz-adv-x="845" 
d="M154 0v1049h692l-29 -193h-393v-856h-270zM240 1294l424 267l118 -213l-458 -205z" />
    <glyph glyph-name="afii10101" unicode="&#x454;" horiz-adv-x="980" 
d="M82 522q0 112 32 230t97 194q113 133 328 133q130 0 225 -41q68 -29 127 -80l-125 -161q-32 32 -74 51q-64 31 -131 31q-86 0 -129 -50q-47 -50 -47 -153v-27h262v-192h-262v-56q0 -118 37 -165q48 -60 147 -60q91 0 162 47q42 28 64 53l125 -157q-56 -52 -101 -78
q-109 -66 -252 -66q-171 0 -284 78q-62 43 -105 105.5t-62 131t-26.5 123t-7.5 109.5z" />
    <glyph glyph-name="afii10102" unicode="&#x455;" horiz-adv-x="997" 
d="M61 96l99 197q78 -48 177 -82.5t167 -34.5t106 41q31 31 31 76q0 47 -29 76q-36 36 -131 53l-121 22q-127 22 -190 105q-25 32 -39.5 76.5t-17 68t-2.5 41.5q0 171 139 266q107 72 256 72q179 0 346 -82l31 -14l-90 -182q-137 73 -254 73q-64 0 -99 -28q-34 -27 -34 -72
q0 -35 26 -61q33 -29 105 -45l125 -31q87 -21 130.5 -49t75.5 -70q58 -77 58 -176q0 -158 -115 -254q-126 -107 -330 -107q-196 0 -420 121z" />
    <glyph glyph-name="afii10103" unicode="&#x456;" horiz-adv-x="581" 
d="M123 1337q0 70 50.5 120t121.5 50q69 0 117.5 -49.5t48.5 -120.5t-49.5 -120.5t-120.5 -49.5q-70 0 -119 49.5t-49 120.5zM156 0v1030l270 43v-1073h-270z" />
    <glyph glyph-name="afii10104" unicode="&#x457;" horiz-adv-x="581" 
d="M-82 1300q0 63 48.5 110.5t111.5 47.5t108 -47.5t45 -110.5t-46.5 -110t-110.5 -47q-62 0 -109 47t-47 110zM154 0v1030l274 43v-1073h-274zM350 1300q0 64 47 111t113 47q63 0 108.5 -46.5t45.5 -111.5q0 -63 -47 -110t-111 -47t-110 47t-46 110z" />
    <glyph glyph-name="afii10105" unicode="&#x458;" horiz-adv-x="579" 
d="M20 -299q66 55 101 119q20 36 26.5 80.5t6.5 119.5v986l270 65v-1042q0 -222 -76 -326q-74 -99 -213 -154zM123 1337q0 71 50 121.5t120 50.5q71 0 120.5 -49t49.5 -119q0 -71 -50 -121.5t-122 -50.5q-71 0 -119.5 48.5t-48.5 119.5z" />
    <glyph glyph-name="afii10106" unicode="&#x459;" horiz-adv-x="1523" 
d="M-4 168l51 14q70 18 107 72q25 41 41 125q17 94 30 274q10 135 13 265l4 131h684v-371h153q168 0 269 -84q104 -88 104 -268q0 -161 -106 -250q-90 -76 -246 -76h-445v852h-176l-4 -84q-6 -152 -12 -240q-17 -227 -39 -311q-29 -110 -86 -160q-66 -56 -191 -67l-102 -10z
M926 188h100q70 0 109 33q43 38 43 115q0 81 -41 117q-39 36 -119 36h-92v-301z" />
    <glyph glyph-name="afii10107" unicode="&#x45a;" horiz-adv-x="1560" 
d="M154 0v1024l270 51v-409h268v358l271 51v-413h153q76 0 149 -21t119 -59q105 -84 105 -256q0 -160 -107 -250q-90 -76 -245 -76h-445v473h-268v-473h-270zM963 188h100q69 0 108 33q43 34 43 109q0 79 -40 110q-37 33 -119 33h-92v-285z" />
    <glyph glyph-name="afii10108" unicode="&#x45b;" horiz-adv-x="1163" 
d="M51 1157v139h105v174l270 66v-240h399l-47 -139h-352v-135l-4 -88q65 57 144 85t153 28q60 0 121 -19t100 -55q80 -74 80 -246v-727h-270v674q0 81 -29 117q-22 26 -74 26q-54 0 -114 -26.5t-107 -69.5v-721h-270v1157h-105z" />
    <glyph glyph-name="afii10109" unicode="&#x45c;" horiz-adv-x="1128" 
d="M154 0v1024l270 51v-426h68q71 0 106 31q27 25 43 96l23 103q19 90 63 129q50 43 162 53l98 8l49 -186l-45 -11q-39 -10 -53 -20q-26 -19 -43 -70l-35 -94q-39 -114 -141 -131q29 -8 52 -21t36.5 -25.5t26 -33.5t18 -33t14.5 -36l52 -129q1 -2 5.5 -14.5t7 -17t8 -14.5
t13 -17.5t17.5 -14.5q25 -19 61 -25l37 -8l-49 -188l-90 6q-47 3 -76 6.5t-69 19t-64 41.5q-43 49 -60 131l-34 146q-15 71 -52 100q-34 27 -100 27h-49v-457h-270zM293 1292l424 267l119 -213l-459 -205z" />
    <glyph glyph-name="afii10110" unicode="&#x45e;" horiz-adv-x="1038" 
d="M0 1032l281 33l182 -612q51 -199 55 -215q29 149 33 165q23 90 41 146l158 500h288l-381 -1065q-33 -92 -63 -157t-56 -102t-42.5 -54t-38.5 -33q-99 -76 -254 -97l-94 180q103 25 170 72q48 38 75 78q34 58 62 129h-70l-37 113q-9 32 -28 82q-16 44 -33 100zM135 1466
l146 60q12 -21 33 -42t40 -32q48 -29 125 -29q82 0 127 29q19 11 40.5 32.5t31.5 41.5l145 -60q-31 -116 -114 -180q-87 -67 -230 -67q-145 0 -229 67q-40 31 -70 81t-45 99z" />
    <glyph glyph-name="afii10193" unicode="&#x45f;" horiz-adv-x="1105" 
d="M154 0v1024l270 51v-882h258v831l270 51v-1075h-272v-287h-254v287h-272z" />
    <glyph glyph-name="afii10050" unicode="&#x490;" horiz-adv-x="970" 
d="M154 0v1423h520v179h276v-414h-506v-1188h-290z" />
    <glyph glyph-name="afii10098" unicode="&#x491;" horiz-adv-x="876" 
d="M154 0v1049h454v198h248v-391h-432v-856h-270z" />
    <glyph glyph-name="uni2000" unicode="&#x2000;" horiz-adv-x="1003" 
 />
    <glyph glyph-name="uni2001" unicode="&#x2001;" horiz-adv-x="2007" 
 />
    <glyph glyph-name="uni2002" unicode="&#x2002;" horiz-adv-x="1003" 
 />
    <glyph glyph-name="uni2003" unicode="&#x2003;" horiz-adv-x="2007" 
 />
    <glyph glyph-name="uni2004" unicode="&#x2004;" horiz-adv-x="669" 
 />
    <glyph glyph-name="uni2005" unicode="&#x2005;" horiz-adv-x="501" 
 />
    <glyph glyph-name="uni2006" unicode="&#x2006;" horiz-adv-x="334" 
 />
    <glyph glyph-name="uni2007" unicode="&#x2007;" horiz-adv-x="334" 
 />
    <glyph glyph-name="uni2008" unicode="&#x2008;" horiz-adv-x="250" 
 />
    <glyph glyph-name="uni2009" unicode="&#x2009;" horiz-adv-x="401" 
 />
    <glyph glyph-name="uni200A" unicode="&#x200a;" horiz-adv-x="111" 
 />
    <glyph glyph-name="uni2010" unicode="&#x2010;" horiz-adv-x="675" 
d="M92 442v238h492v-238h-492z" />
    <glyph glyph-name="uni2011" unicode="&#x2011;" horiz-adv-x="675" 
d="M92 442v238h492v-238h-492z" />
    <glyph glyph-name="figuredash" unicode="&#x2012;" horiz-adv-x="675" 
d="M92 442v238h492v-238h-492z" />
    <glyph glyph-name="endash" unicode="&#x2013;" horiz-adv-x="1181" 
d="M92 457v211h998v-211h-998z" />
    <glyph glyph-name="emdash" unicode="&#x2014;" horiz-adv-x="1644" 
d="M92 457v211h1460v-211h-1460z" />
    <glyph glyph-name="afii00208" unicode="&#x2015;" horiz-adv-x="1644" 
d="M92 457v211h1460v-211h-1460z" />
    <glyph glyph-name="quoteleft" unicode="&#x2018;" horiz-adv-x="550" 
d="M82 1098q0 133 80 235.5t209 134.5l108 -114q-67 -15 -107 -47t-40 -70q0 -20 11.5 -34.5t41.5 -31.5q80 -45 80 -143q0 -73 -52 -124.5t-126 -51.5q-89 0 -147 70t-58 176z" />
    <glyph glyph-name="quoteright" unicode="&#x2019;" horiz-adv-x="550" 
d="M72 954q67 17 107 49t40 68q0 20 -11 33.5t-42 32.5q-80 48 -80 143q0 74 51.5 125t126.5 51q89 0 147 -69.5t58 -176.5q0 -132 -80 -234t-209 -134z" />
    <glyph glyph-name="quotesinglbase" unicode="&#x201a;" horiz-adv-x="550" 
d="M72 -182q67 15 107 47t40 69q0 20 -11 33.5t-42 32.5q-80 48 -80 143q0 73 52 124.5t126 51.5q89 0 147 -69t58 -176q0 -133 -80 -236t-209 -135z" />
    <glyph glyph-name="quotedblleft" unicode="&#x201c;" horiz-adv-x="1011" 
d="M82 1100q0 133 80 235.5t209 134.5l108 -114q-67 -15 -107 -47t-40 -70q0 -20 11 -33t42 -32q80 -48 80 -144q0 -73 -52.5 -124.5t-127.5 -51.5q-88 0 -145.5 69.5t-57.5 176.5zM545 1100q0 133 79 235.5t207 134.5l109 -114q-66 -15 -105.5 -47t-39.5 -70q0 -20 10 -32
t43 -33q80 -50 80 -144q0 -73 -52.5 -124.5t-127.5 -51.5q-89 0 -146 69.5t-57 176.5z" />
    <glyph glyph-name="quotedblright" unicode="&#x201d;" horiz-adv-x="1011" 
d="M72 954q67 17 107 49t40 68q0 20 -11 33.5t-42 32.5q-80 48 -80 143q0 74 51.5 125t126.5 51q89 0 147 -69.5t58 -176.5q0 -132 -80 -234t-209 -134zM535 954q66 17 105.5 48.5t39.5 68.5q0 20 -10.5 33.5t-40.5 32.5q-80 48 -80 143q0 74 51.5 125t126.5 51
q89 0 146 -69.5t57 -176.5q0 -132 -79 -234t-208 -134z" />
    <glyph glyph-name="quotedblbase" unicode="&#x201e;" horiz-adv-x="1013" 
d="M72 -182q67 15 107 47t40 69q0 20 -11 33.5t-42 32.5q-80 48 -80 143q0 73 52 124.5t126 51.5q89 0 147 -69t58 -176q0 -133 -80 -236t-209 -135zM535 -182q66 15 105.5 47t39.5 69q0 20 -10.5 33.5t-40.5 32.5q-80 48 -80 143q0 74 51.5 125t126.5 51q89 0 147 -69
t58 -176q0 -133 -80 -236t-209 -135z" />
    <glyph glyph-name="dagger" unicode="&#x2020;" horiz-adv-x="1011" 
d="M51 868v248h307v307h271v-307h332l-48 -248h-284v-868h-271v868h-307z" />
    <glyph glyph-name="daggerdbl" unicode="&#x2021;" horiz-adv-x="1036" 
d="M51 307l47 248h285v313h-307v248h307v307h270v-307h332l-47 -248h-285v-313h308v-248h-308v-307h-270v307h-332z" />
    <glyph glyph-name="bullet" unicode="&#x2022;" horiz-adv-x="991" 
d="M133 725q0 151 106 256.5t257 105.5t256.5 -105.5t105.5 -256.5t-105.5 -257t-256.5 -106t-257 106t-106 257z" />
    <glyph glyph-name="ellipsis" unicode="&#x2026;" horiz-adv-x="1609" 
d="M113 150q0 74 52.5 126t125.5 52q75 0 128.5 -52.5t53.5 -125.5q0 -75 -53 -129t-127 -54q-75 0 -127.5 54t-52.5 129zM625 150q0 74 52.5 126t125.5 52q75 0 128.5 -52.5t53.5 -125.5q0 -75 -53 -129t-127 -54q-75 0 -127.5 54t-52.5 129zM1137 150q0 74 52.5 126
t125.5 52q75 0 128.5 -52.5t53.5 -125.5q0 -75 -53 -129t-127 -54q-75 0 -127.5 54t-52.5 129z" />
    <glyph glyph-name="uni202F" unicode="&#x202f;" horiz-adv-x="401" 
 />
    <glyph glyph-name="perthousand" unicode="&#x2030;" horiz-adv-x="2498" 
d="M72 1087q0 160 95 258.5t251 98.5q160 0 256 -96q52 -52 74 -112t22 -144q0 -170 -96 -263q-97 -94 -256 -94q-158 0 -252 95.5t-94 256.5zM295 1094q0 -119 22 -154q32 -51 103 -51q65 0 94 49t29 158q0 123 -41 164q-32 32 -86 32q-36 0 -63.5 -16t-39.5 -45
q-18 -45 -18 -137zM401 0l746 1423h194l-745 -1423h-195zM971 332q0 160 95 258t251 98q162 0 260 -98q50 -50 71 -109.5t21 -144.5q0 -88 -22.5 -150.5t-73.5 -111.5q-97 -94 -256 -94q-158 0 -252 95.5t-94 256.5zM1194 338q0 -117 23 -154q32 -51 102 -51q65 0 94 49
t29 158q0 123 -41 164q-33 33 -86 33q-36 0 -63.5 -16.5t-39.5 -45.5q-18 -45 -18 -137zM1729 332q0 160 95 258t251 98q162 0 262 -100q90 -90 90 -252q0 -88 -22.5 -150.5t-73.5 -111.5q-97 -94 -256 -94q-158 0 -252 95.5t-94 256.5zM1952 338q0 -119 22 -154
q32 -51 103 -51q65 0 94 49t29 158q0 123 -41 164q-33 33 -86 33q-36 0 -63.5 -16.5t-39.5 -45.5q-18 -45 -18 -137z" />
    <glyph glyph-name="guilsinglleft" unicode="&#x2039;" horiz-adv-x="634" 
d="M61 510l326 479l186 -125l-237 -354l237 -354l-186 -125z" />
    <glyph glyph-name="guilsinglright" unicode="&#x203a;" horiz-adv-x="634" 
d="M61 156l238 354l-238 354l187 125l325 -479l-325 -479z" />
    <glyph glyph-name="fraction" unicode="&#x2044;" horiz-adv-x="544" 
d="M-379 -315l1081 1880h222l-1082 -1880h-221z" />
    <glyph glyph-name="uni205F" unicode="&#x205f;" horiz-adv-x="501" 
 />
    <glyph glyph-name="Euro" unicode="&#x20ac;" horiz-adv-x="1298" 
d="M72 442v201h204v39q0 73 5 119h-209v200h250q21 65 51 123q83 155 228 242.5t317 87.5q176 0 299 -72l-68 -235q-109 80 -227 80q-72 0 -138 -33t-104 -90q-28 -40 -47 -103h395v-200h-426q0 -10 -1 -31t-1 -33q0 -65 2 -94h426v-201h-401q12 -51 32 -86
q87 -159 275 -159q130 0 244 92l69 -221q-81 -50 -150.5 -71.5t-183.5 -21.5q-291 0 -464 197q-100 112 -144 270h-233z" />
    <glyph glyph-name="trademark" unicode="&#x2122;" horiz-adv-x="2109" 
d="M92 1253v197h709v-197h-244v-647h-221v647h-244zM981 606v844h297l201 -549l200 549h297v-844h-221v549h-4l-201 -549h-143l-201 549h-4v-549h-221z" />
    <glyph glyph-name="partialdiff" unicode="&#x2202;" horiz-adv-x="1095" 
d="M0 1217l164 194q152 -16 322 -100t284 -215q234 -274 234 -602q0 -248 -128.5 -383.5t-332.5 -135.5q-198 0 -325.5 125.5t-127.5 337.5q0 194 121.5 311t312.5 117q14 0 107 -6q-59 81 -135 148q-196 174 -496 209zM367 434q0 -106 50 -170.5t138 -64.5q87 0 131.5 75.5
t44.5 202.5q0 28 -12 133q-61 39 -182 39q-80 0 -125 -56t-45 -159z" />
    <glyph glyph-name="uni2206" unicode="&#x2206;" horiz-adv-x="1388" 
d="M72 0l499 1307h254l492 -1307h-1245zM416 236h528l-258 710z" />
    <glyph glyph-name="product" unicode="&#x220f;" horiz-adv-x="1468" 
d="M72 0v205h149v899h-149v233h1325v-233h-148v-899h148v-205h-559v205h141v899h-487v-899h141v-205h-561z" />
    <glyph glyph-name="summation" unicode="&#x2211;" horiz-adv-x="1038" 
d="M72 2l2 184l491 516l-485 517l65 188h813l-79 -229h-426l452 -469l-471 -476h533l-74 -231h-821z" />
    <glyph glyph-name="radical" unicode="&#x221a;" horiz-adv-x="1228" 
d="M10 856v193h340l178 -490q9 -25 22 -80.5t17 -68.5q4 14 16 61.5t19 67.5l338 940h279l-545 -1495h-223l-306 872h-135z" />
    <glyph glyph-name="infinity" unicode="&#x221e;" horiz-adv-x="1961" 
d="M72 520q0 97 37 172.5t99 119.5t134 66.5t150 22.5q182 0 366 -127l135 -94l137 102q164 121 359 121q53 0 105 -10t106.5 -36t95.5 -66t67.5 -105.5t26.5 -148.5q0 -76 -25 -140t-66.5 -107t-95.5 -73.5t-112 -44.5t-116 -14q-191 0 -353 116l-149 105l-135 -98
q-173 -125 -361 -125q-44 0 -87.5 7t-90.5 22.5t-86.5 44t-71.5 67.5t-50.5 96t-18.5 127zM342 522q0 -57 41.5 -94t108.5 -37q94 0 208 84l66 47l-100 72q-84 61 -174 61q-79 0 -114.5 -39.5t-35.5 -93.5zM1196 535l102 -68q100 -66 175 -66q79 0 114 40t35 94
q0 58 -41 94.5t-108 36.5q-48 0 -105.5 -22.5t-103.5 -57.5z" />
    <glyph glyph-name="integral" unicode="&#x222b;" horiz-adv-x="495" 
d="M-215 -330l109 226q53 -36 81.5 -50t53.5 -14q84 0 94 131l86 1176q8 113 45 177.5t102 110.5q86 62 209 62q116 0 248 -72l-108 -223q-92 63 -136 63q-85 0 -94 -133l-86 -1175q-8 -113 -45.5 -176.5t-103.5 -110.5q-88 -63 -207 -63q-118 0 -248 71z" />
    <glyph glyph-name="approxequal" unicode="&#x2248;" horiz-adv-x="1171" 
d="M113 377q92 176 256 176q80 0 227 -66q12 -5 44 -19.5t48 -21t40.5 -15.5t42.5 -13t34 -4q36 0 70.5 22t52.5 43t48 62q3 4 5 6.5t4 5.5l74 -221q-92 -176 -256 -176q-83 0 -228 65q-12 5 -54.5 24t-60 26.5t-46 15.5t-47.5 8q-29 0 -54 -10.5t-51.5 -38t-37 -40
t-38.5 -50.5zM113 786q93 177 256 177q80 0 227 -66q14 -6 44.5 -20t47.5 -21t40.5 -16t42 -13t34.5 -4q27 0 50.5 9.5t48.5 33.5t35 36.5t36 47.5q4 4 6 7l4 6l74 -222q-92 -176 -256 -176q-81 0 -228 66q-12 5 -54.5 24t-60 26.5t-46 15.5t-47.5 8q-36 0 -70.5 -22
t-53.5 -44.5t-49 -62.5q-2 -2 -3 -3.5t-2.5 -3.5t-2.5 -4z" />
    <glyph glyph-name="notequal" unicode="&#x2260;" horiz-adv-x="1347" 
d="M113 295v258h426l75 135h-501v258h645l186 314l164 -101l-68 -112q-10 -16 -29.5 -41.5t-33.5 -42.5l-14 -17h272v-258h-426l-76 -135h502v-258h-645l-187 -313l-163 100l67 113q10 16 29.5 41t33.5 42l15 17h-272z" />
    <glyph glyph-name="lessequal" unicode="&#x2264;" horiz-adv-x="907" 
d="M51 0v223h785v-223h-785zM51 528v197l785 365v-269l-422 -178l422 -143v-262z" />
    <glyph glyph-name="greaterequal" unicode="&#x2265;" horiz-adv-x="907" 
d="M72 0v223h784v-223h-784zM72 238v266l422 139l-422 178v269l784 -365v-197z" />
    <glyph glyph-name="lozenge" unicode="&#x25ca;" horiz-adv-x="1171" 
d="M92 705l371 702h237l379 -702l-379 -705h-237zM334 705l241 -533l250 533l-250 530z" />
    <glyph glyph-name="uni25FC" unicode="&#x25fc;" horiz-adv-x="1075" 
d="M0 0v1075h1075v-1075h-1075z" />
    </font>
</defs>
</svg>
